<svg width="58" height="60" viewBox="0 0 58 60" fill="none" xmlns="http://www.w3.org/2000/svg" xmlns:xlink="http://www.w3.org/1999/xlink">
<mask id="mask_0_47_3618" style="mask-type:alpha" maskUnits="userSpaceOnUse" x="-0.800049" y="0.880005" width="28.799999" height="28.799999">
<rect  x="-0.8" y="0.88" width="57.6" height="57.6" fill="#D9D9D9"/>
</mask>
<g mask="url(#mask_0_47_3618)">
<path d="M24.64,40.72L41.56,23.8L38.2,20.44L24.64,34L17.8,27.16L14.44,30.52L24.64,40.72ZM28,53.68C24.68,53.68 21.56,53.05 18.64,51.79C15.72,50.53 13.18,48.82 11.02,46.66C8.86,44.5 7.15,41.96 5.89,39.04C4.63,36.12 4,33 4,29.68C4,26.36 4.63,23.24 5.89,20.32C7.15,17.4 8.86,14.86 11.02,12.7C13.18,10.54 15.72,8.83 18.64,7.57C21.56,6.31 24.68,5.68 28,5.68C31.32,5.68 34.44,6.31 37.36,7.57C40.28,8.83 42.82,10.54 44.98,12.7C47.14,14.86 48.85,17.4 50.11,20.32C51.37,23.24 52,26.36 52,29.68C52,33 51.37,36.12 50.11,39.04C48.85,41.96 47.14,44.5 44.98,46.66C42.82,48.82 40.28,50.53 37.36,51.79C34.44,53.05 31.32,53.68 28,53.68ZM28,48.88C33.36,48.88 37.9,47.02 41.62,43.3C45.34,39.58 47.2,35.04 47.2,29.68C47.2,24.32 45.34,19.78 41.62,16.06C37.9,12.34 33.36,10.48 28,10.48C22.64,10.48 18.1,12.34 14.38,16.06C10.66,19.78 8.8,24.32 8.8,29.68C8.8,35.04 10.66,39.58 14.38,43.3C18.1,47.02 22.64,48.88 28,48.88Z" fill="#0069FF"/>
</g>
</svg>
