<svg width="40" height="40" viewBox="0 0 40 40" fill="none" xmlns="http://www.w3.org/2000/svg" xmlns:xlink="http://www.w3.org/1999/xlink">
<path d="M2,19.56L0,19.56L2,19.56ZM20,1.56L20,-0.44L20,1.56ZM0,19.56C0,24.864 2.107,29.951 5.858,33.702L8.686,30.874C5.686,27.873 4,23.803 4,19.56L0,19.56ZM5.858,33.702C9.609,37.453 14.696,39.56 20,39.56L20,35.56C15.757,35.56 11.687,33.874 8.686,30.874L5.858,33.702ZM20,39.56C25.304,39.56 30.391,37.453 34.142,33.702L31.314,30.874C28.313,33.874 24.243,35.56 20,35.56L20,39.56ZM34.142,33.702C37.893,29.951 40,24.864 40,19.56L36,19.56C36,23.803 34.314,27.873 31.314,30.874L34.142,33.702ZM40,19.56C40,14.256 37.893,9.169 34.142,5.418L31.314,8.246C34.314,11.247 36,15.317 36,19.56L40,19.56ZM34.142,5.418C30.391,1.667 25.304,-0.44 20,-0.44L20,3.56C24.243,3.56 28.313,5.246 31.314,8.246L34.142,5.418ZM20,-0.44C14.696,-0.44 9.609,1.667 5.858,5.418L8.686,8.246C11.687,5.246 15.757,3.56 20,3.56L20,-0.44ZM5.858,5.418C2.107,9.169 0,14.256 0,19.56L4,19.56C4,15.317 5.686,11.247 8.686,8.246L5.858,5.418Z" fill="#767676"/>
<path d="M3.383,24.484C2.278,24.484 1.383,25.379 1.383,26.484C1.383,27.589 2.278,28.484 3.383,28.484L3.383,24.484ZM8.231,26.484L8.231,28.484L8.232,28.484L8.231,26.484ZM13.075,21.636L11.075,21.636L11.075,21.636L13.075,21.636ZM17.923,12.636L17.923,10.636L17.923,12.636ZM22.767,7.792L20.767,7.792L22.767,7.792ZM24.767,1.772C24.767,0.667 23.871,-0.228 22.767,-0.228C21.662,-0.228 20.767,0.667 20.767,1.772L24.767,1.772ZM37.081,21.053C38.063,21.56 39.269,21.175 39.776,20.193C40.283,19.212 39.898,18.005 38.916,17.499L37.081,21.053ZM33.531,18.176L33.543,16.176L33.531,16.176L33.531,18.176ZM27.599,18.176L27.541,20.175C27.561,20.176 27.58,20.176 27.599,20.176L27.599,18.176ZM27.599,27.868L27.599,25.868C27.58,25.868 27.561,25.868 27.541,25.869L27.599,27.868ZM29.059,33.748C29.059,34.853 29.954,35.748 31.059,35.748C32.163,35.748 33.059,34.853 33.059,33.748L29.059,33.748ZM3.383,28.484L8.231,28.484L8.231,24.484L3.383,24.484L3.383,28.484ZM8.232,28.484C10.048,28.483 11.788,27.76 13.071,26.476L10.241,23.649C9.708,24.183 8.984,24.483 8.229,24.484L8.232,28.484ZM13.071,26.476C14.354,25.192 15.075,23.451 15.075,21.636L11.075,21.636C11.075,22.391 10.775,23.115 10.241,23.649L13.071,26.476ZM15.075,21.636L15.075,17.484L11.075,17.484L11.075,21.636L15.075,21.636ZM15.075,17.484C15.075,16.729 15.375,16.004 15.909,15.47L13.081,12.642C11.796,13.926 11.075,15.668 11.075,17.484L15.075,17.484ZM15.909,15.47C16.443,14.936 17.167,14.636 17.923,14.636L17.923,10.636C16.107,10.636 14.365,11.357 13.081,12.642L15.909,15.47ZM17.923,14.636C18.822,14.636 19.712,14.459 20.542,14.115L19.011,10.419C18.666,10.562 18.296,10.636 17.923,10.636L17.923,14.636ZM20.542,14.115C21.372,13.771 22.127,13.267 22.762,12.631L19.934,9.803C19.67,10.067 19.356,10.276 19.011,10.419L20.542,14.115ZM22.762,12.631C23.398,11.996 23.902,11.241 24.246,10.411L20.55,8.88C20.407,9.225 20.198,9.539 19.934,9.803L22.762,12.631ZM24.246,10.411C24.59,9.581 24.767,8.691 24.767,7.792L20.767,7.792C20.767,8.165 20.693,8.535 20.55,8.88L24.246,10.411ZM24.767,7.792L24.767,1.772L20.767,1.772L20.767,7.792L24.767,7.792ZM38.916,17.499C37.254,16.641 35.413,16.188 33.543,16.176L33.518,20.176C34.758,20.184 35.979,20.484 37.081,21.053L38.916,17.499ZM33.531,16.176L27.599,16.176L27.599,20.176L33.531,20.176L33.531,16.176ZM27.656,16.177C26.741,16.15 25.829,16.308 24.976,16.64L26.427,20.368C26.782,20.23 27.161,20.164 27.541,20.175L27.656,16.177ZM24.976,16.64C24.122,16.972 23.344,17.472 22.687,18.111L25.475,20.979C25.748,20.714 26.072,20.506 26.427,20.368L24.976,16.64ZM22.687,18.111C22.031,18.749 21.508,19.512 21.152,20.356L24.836,21.913C24.985,21.562 25.202,21.245 25.475,20.979L22.687,18.111ZM21.152,20.356C20.795,21.2 20.612,22.106 20.612,23.022L24.612,23.022C24.612,22.641 24.688,22.264 24.836,21.913L21.152,20.356ZM20.612,23.022C20.612,23.938 20.795,24.844 21.152,25.688L24.836,24.131C24.688,23.78 24.612,23.403 24.612,23.022L20.612,23.022ZM21.152,25.688C21.508,26.532 22.031,27.295 22.687,27.933L25.475,25.065C25.202,24.799 24.985,24.482 24.836,24.131L21.152,25.688ZM22.687,27.933C23.344,28.572 24.122,29.072 24.976,29.404L26.427,25.676C26.072,25.538 25.748,25.33 25.475,25.065L22.687,27.933ZM24.976,29.404C25.829,29.736 26.741,29.893 27.656,29.867L27.541,25.869C27.161,25.88 26.782,25.814 26.427,25.676L24.976,29.404ZM27.599,29.868C27.986,29.868 28.357,30.022 28.631,30.296L31.46,27.467C30.436,26.443 29.047,25.868 27.599,25.868L27.599,29.868ZM28.631,30.296C28.905,30.569 29.059,30.941 29.059,31.328L33.059,31.328C33.059,29.88 32.484,28.491 31.46,27.467L28.631,30.296ZM29.059,31.328L29.059,33.748L33.059,33.748L33.059,31.328L29.059,31.328Z" fill="#767676"/>
</svg>
