<svg width="40" height="40" viewBox="0 0 40 40" fill="none" xmlns="http://www.w3.org/2000/svg" xmlns:xlink="http://www.w3.org/1999/xlink">
<path d="M1.996,19.52L0.001,19.52L1.996,19.52ZM19.951,1.565L19.951,-0.43L19.951,1.565ZM0.001,19.52C0.001,24.811 2.103,29.885 5.844,33.627L8.666,30.805C5.673,27.812 3.991,23.753 3.991,19.52L0.001,19.52ZM5.844,33.627C9.586,37.368 14.66,39.47 19.951,39.47L19.951,35.48C15.718,35.48 11.659,33.799 8.666,30.805L5.844,33.627ZM19.951,39.47C25.242,39.47 30.316,37.368 34.058,33.627L31.236,30.805C28.243,33.799 24.184,35.48 19.951,35.48L19.951,39.47ZM34.058,33.627C37.799,29.885 39.901,24.811 39.901,19.52L35.911,19.52C35.911,23.753 34.23,27.812 31.236,30.805L34.058,33.627ZM39.901,19.52C39.901,14.229 37.799,9.155 34.058,5.413L31.236,8.235C34.23,11.228 35.911,15.287 35.911,19.52L39.901,19.52ZM34.058,5.413C30.316,1.672 25.242,-0.43 19.951,-0.43L19.951,3.56C24.184,3.56 28.243,5.241 31.236,8.235L34.058,5.413ZM19.951,-0.43C14.66,-0.43 9.586,1.672 5.844,5.413L8.666,8.235C11.659,5.241 15.718,3.56 19.951,3.56L19.951,-0.43ZM5.844,5.413C2.103,9.155 0.001,14.229 0.001,19.52L3.991,19.52C3.991,15.287 5.673,11.228 8.666,8.235L5.844,5.413Z" fill="#1A1A1A" fill-opacity="0.61"/>
<path d="M21.946,12.613C21.946,11.511 21.053,10.618 19.951,10.618C18.849,10.618 17.956,11.511 17.956,12.613L21.946,12.613ZM19.951,19.519L17.956,19.519C17.956,19.996 18.127,20.456 18.437,20.818L19.951,19.519ZM25.455,29.005C26.172,29.842 27.431,29.939 28.268,29.222C29.104,28.505 29.201,27.245 28.484,26.409L25.455,29.005ZM17.956,12.613L17.956,19.519L21.946,19.519L21.946,12.613L17.956,12.613ZM18.437,20.818L25.455,29.005L28.484,26.409L21.466,18.221L18.437,20.818Z" fill="#1A1A1A" fill-opacity="0.61"/>
</svg>
