<svg width="40" height="40" viewBox="0 0 40 40" fill="none" xmlns="http://www.w3.org/2000/svg" xmlns:xlink="http://www.w3.org/1999/xlink">
<path d="M1.995,19.52L0,19.52L1.995,19.52ZM19.95,1.565L19.95,-0.43L19.95,1.565ZM0,19.52C0,24.811 2.102,29.885 5.843,33.627L8.665,30.805C5.672,27.812 3.99,23.753 3.99,19.52L0,19.52ZM5.843,33.627C9.585,37.368 14.659,39.47 19.95,39.47L19.95,35.48C15.717,35.48 11.658,33.799 8.665,30.805L5.843,33.627ZM19.95,39.47C25.241,39.47 30.316,37.368 34.057,33.627L31.236,30.805C28.243,33.799 24.183,35.48 19.95,35.48L19.95,39.47ZM34.057,33.627C37.798,29.885 39.9,24.811 39.9,19.52L35.91,19.52C35.91,23.753 34.229,27.812 31.236,30.805L34.057,33.627ZM39.9,19.52C39.9,14.229 37.798,9.155 34.057,5.413L31.236,8.235C34.229,11.228 35.91,15.287 35.91,19.52L39.9,19.52ZM34.057,5.413C30.316,1.672 25.241,-0.43 19.95,-0.43L19.95,3.56C24.183,3.56 28.243,5.241 31.236,8.235L34.057,5.413ZM19.95,-0.43C14.659,-0.43 9.585,1.672 5.843,5.413L8.665,8.235C11.658,5.241 15.717,3.56 19.95,3.56L19.95,-0.43ZM5.843,5.413C2.102,9.155 0,14.229 0,19.52L3.99,19.52C3.99,15.287 5.672,11.228 8.665,8.235L5.843,5.413Z" fill="#1A1A1A" fill-opacity="0.61"/>
<path d="M21.946,12.613C21.946,11.511 21.052,10.618 19.951,10.618C18.849,10.618 17.956,11.511 17.956,12.613L21.946,12.613ZM19.951,19.52L17.956,19.52C17.956,19.996 18.126,20.456 18.436,20.818L19.951,19.52ZM25.454,29.006C26.171,29.842 27.431,29.939 28.267,29.222C29.104,28.505 29.201,27.245 28.484,26.409L25.454,29.006ZM17.956,12.613L17.956,19.52L21.946,19.52L21.946,12.613L17.956,12.613ZM18.436,20.818L25.454,29.006L28.484,26.409L21.465,18.221L18.436,20.818Z" fill="#1A1A1A" fill-opacity="0.61"/>
</svg>
