<svg width="36" height="20" viewBox="0 0 36 20" fill="none" xmlns="http://www.w3.org/2000/svg" xmlns:xlink="http://www.w3.org/1999/xlink">
<path d="M19.489,10.997C22.292,7.494 26.558,3.205 32.324,0.322L34.56,4.795C29.658,7.245 25.925,10.956 23.394,14.12C22.135,15.693 21.194,17.107 20.571,18.119C20.26,18.624 20.03,19.027 19.881,19.297C19.806,19.432 19.752,19.534 19.718,19.599L19.683,19.667L19.678,19.676L19.677,19.678C19.677,19.678 19.677,19.677 19.675,19.676L15.208,19.676C15.206,19.678 15.206,19.678 15.206,19.678L15.206,19.676L15.201,19.667L15.165,19.599C15.132,19.534 15.077,19.432 15.003,19.297C14.854,19.027 14.624,18.624 14.313,18.119C13.69,17.107 12.748,15.693 11.49,14.12C8.958,10.956 5.225,7.245 0.323,4.795L2.559,0.322C8.325,3.205 12.592,7.494 15.394,10.997C16.187,11.989 16.87,12.926 17.442,13.761C18.013,12.926 18.696,11.989 19.489,10.997Z" clip-rule="evenodd" fill-rule="evenodd" transform="rotate(180 17.442 10)" fill="#000000"/>
</svg>
