<svg width="28" height="30" viewBox="0 0 28 30" fill="none" xmlns="http://www.w3.org/2000/svg" xmlns:xlink="http://www.w3.org/1999/xlink">
<path d="M13.965,28.814C12.037,28.814 10.228,28.451 8.537,27.723C6.827,26.996 5.341,26 4.077,24.737C2.813,23.473 1.818,21.986 1.091,20.277C0.363,18.586 0,16.777 0,14.849C0,12.922 0.363,11.113 1.091,9.422C1.818,7.712 2.813,6.226 4.077,4.962C5.341,3.698 6.827,2.703 8.537,1.975C10.228,1.248 12.037,0.884 13.965,0.884C15.892,0.884 17.701,1.248 19.392,1.975C21.102,2.703 22.588,3.698 23.852,4.962C25.116,6.226 26.111,7.712 26.839,9.422C27.566,11.113 27.93,12.922 27.93,14.849C27.93,16.777 27.566,18.586 26.839,20.277C26.111,21.986 25.116,23.473 23.852,24.737C22.588,26 21.102,26.996 19.392,27.723C17.701,28.451 15.892,28.814 13.965,28.814ZM12.573,3.776C11.192,3.939 9.91,4.348 8.728,5.003C7.528,5.639 6.491,6.449 5.618,7.431C4.745,8.412 4.054,9.54 3.545,10.813C3.036,12.086 2.782,13.431 2.782,14.849C2.782,15.286 2.809,15.713 2.863,16.131C2.918,16.55 2.991,16.959 3.082,17.359L9.764,10.649L9.764,9.258C9.764,8.494 10.037,7.84 10.582,7.294C11.128,6.749 11.792,6.476 12.573,6.476L12.573,3.776ZM22.202,7.321C22.02,7.885 21.688,8.349 21.206,8.712C20.724,9.076 20.174,9.258 19.556,9.258L18.165,9.258L18.165,13.458C18.165,13.84 18.029,14.168 17.756,14.44C17.483,14.713 17.147,14.849 16.747,14.849L8.373,14.849L8.373,17.632L11.182,17.632C11.564,17.632 11.892,17.768 12.164,18.041C12.437,18.313 12.573,18.65 12.573,19.05L12.573,21.832L15.356,21.832C16.137,21.832 16.801,22.105 17.347,22.65C17.892,23.196 18.165,23.85 18.165,24.614L18.165,25.214C19.183,24.796 20.12,24.241 20.974,23.55C21.829,22.859 22.565,22.064 23.184,21.164C23.802,20.264 24.284,19.277 24.629,18.204C24.975,17.15 25.148,16.031 25.148,14.849C25.148,13.395 24.884,12.022 24.357,10.731C23.829,9.44 23.111,8.303 22.202,7.321Z" fill="#1A1A1A"/>
</svg>
