<svg width="24" height="20" viewBox="0 0 24 20" fill="none" xmlns="http://www.w3.org/2000/svg" xmlns:xlink="http://www.w3.org/1999/xlink">
<path d="M2,7.382C1.172,7.382 0.5,8.053 0.5,8.882C0.5,9.71 1.172,10.382 2,10.382L2,7.382ZM22,8.882L23.061,9.942C23.646,9.357 23.646,8.407 23.061,7.821L22,8.882ZM15.061,-0.179C14.475,-0.765 13.525,-0.765 12.939,-0.179C12.354,0.407 12.354,1.357 12.939,1.942L15.061,-0.179ZM12.939,15.821C12.354,16.407 12.354,17.357 12.939,17.942C13.525,18.528 14.475,18.528 15.061,17.942L12.939,15.821ZM2,10.382L22,10.382L22,7.382L2,7.382L2,10.382ZM23.061,7.821L15.061,-0.179L12.939,1.942L20.939,9.942L23.061,7.821ZM20.939,7.821L12.939,15.821L15.061,17.942L23.061,9.942L20.939,7.821Z" fill="#008BF9"/>
</svg>
