<svg width="32" height="32" viewBox="0 0 32 32" fill="none" xmlns="http://www.w3.org/2000/svg" xmlns:xlink="http://www.w3.org/1999/xlink">
<path d="M7.819,28.359L8.715,29.268L8.725,29.258L7.819,28.359ZM2.581,28.317L3.491,27.422L3.49,27.421L2.581,28.317ZM2.622,23.079L3.518,23.989L3.529,23.978L2.622,23.079ZM13.45,12.162L14.356,13.062C14.7,12.715 14.816,12.202 14.655,11.741L13.45,12.162ZM22.1,0.713L22.024,1.987L22.036,1.988L22.1,0.713ZM22.92,2.842L23.816,3.752L23.823,3.745L22.92,2.842ZM20.778,4.948L19.883,4.038L19.883,4.039L20.778,4.948ZM25.978,10.231L26.874,11.141L26.874,11.141L25.978,10.231ZM28.117,8.125L27.228,7.208L27.221,7.215L28.117,8.125ZM30.233,8.97L28.957,9.021L28.958,9.026L30.233,8.97ZM18.659,17.436L19.098,16.237C18.63,16.065 18.104,16.182 17.753,16.536L18.659,17.436ZM6.923,27.449C6.696,27.673 6.427,27.849 6.132,27.969L7.09,30.336C7.697,30.09 8.249,29.727 8.715,29.268L6.923,27.449ZM6.132,27.969C5.836,28.089 5.52,28.149 5.201,28.146L5.181,30.7C5.835,30.705 6.484,30.581 7.09,30.336L6.132,27.969ZM5.201,28.146C4.883,28.144 4.568,28.079 4.274,27.954L3.278,30.305C3.88,30.561 4.527,30.695 5.181,30.7L5.201,28.146ZM4.274,27.954C3.981,27.83 3.715,27.649 3.491,27.422L1.671,29.212C2.129,29.679 2.676,30.05 3.278,30.305L4.274,27.954ZM3.49,27.421C3.267,27.194 3.09,26.925 2.97,26.63L0.604,27.589C0.849,28.195 1.212,28.747 1.671,29.213L3.49,27.421ZM2.97,26.63C2.851,26.334 2.79,26.018 2.793,25.7L0.239,25.679C0.234,26.333 0.358,26.982 0.604,27.589L2.97,26.63ZM2.793,25.7C2.796,25.381 2.861,25.066 2.985,24.772L0.634,23.776C0.379,24.378 0.245,25.025 0.239,25.679L2.793,25.7ZM2.985,24.772C3.11,24.479 3.29,24.213 3.518,23.989L1.727,22.169C1.261,22.627 0.889,23.174 0.634,23.776L2.985,24.772ZM3.529,23.978L14.356,13.062L12.543,11.263L1.716,22.18L3.529,23.978ZM14.655,11.741C14.255,10.599 14.144,9.376 14.331,8.181L11.808,7.786C11.556,9.397 11.706,11.045 12.244,12.584L14.655,11.741ZM14.331,8.181C14.518,6.986 14.997,5.855 15.727,4.89L13.689,3.351C12.706,4.652 12.06,6.175 11.808,7.786L14.331,8.181ZM15.727,4.89C16.456,3.925 17.412,3.155 18.511,2.648L17.442,0.329C15.961,1.012 14.672,2.05 13.689,3.351L15.727,4.89ZM18.511,2.648C19.609,2.142 20.816,1.915 22.024,1.987L22.176,-0.562C20.549,-0.659 18.922,-0.353 17.442,0.329L18.511,2.648ZM22.036,1.988C22.031,1.988 22.026,1.986 22.021,1.983L23.518,-0.086C23.122,-0.373 22.652,-0.538 22.164,-0.563L22.036,1.988ZM22.021,1.983C22.017,1.979 22.013,1.975 22.011,1.97L24.394,1.051C24.218,0.595 23.914,0.2 23.518,-0.086L22.021,1.983ZM22.011,1.97C22.009,1.964 22.009,1.959 22.01,1.953L24.508,2.483C24.609,2.005 24.57,1.507 24.394,1.051L22.011,1.97ZM22.01,1.953C22.011,1.948 22.014,1.943 22.018,1.939L23.823,3.745C24.169,3.399 24.407,2.961 24.508,2.483L22.01,1.953ZM22.025,1.932L19.883,4.038L21.674,5.859L23.816,3.752L22.025,1.932ZM19.883,4.039C18.941,4.966 18.406,6.229 18.395,7.55L20.949,7.571C20.954,6.926 21.215,6.31 21.674,5.858L19.883,4.039ZM18.395,7.55C18.385,8.872 18.9,10.144 19.827,11.085L21.647,9.294C21.195,8.835 20.944,8.215 20.949,7.571L18.395,7.55ZM19.827,11.085C20.754,12.027 22.017,12.562 23.339,12.573L23.359,10.019C22.715,10.014 22.099,9.753 21.647,9.294L19.827,11.085ZM23.339,12.573C24.661,12.583 25.932,12.068 26.874,11.141L25.083,9.321C24.623,9.773 24.003,10.024 23.359,10.019L23.339,12.573ZM26.874,11.141L29.013,9.034L27.221,7.215L25.082,9.322L26.874,11.141ZM29.006,9.041C29.002,9.045 28.997,9.047 28.992,9.048L28.497,6.543C28.018,6.638 27.578,6.869 27.228,7.208L29.006,9.041ZM28.992,9.048C28.986,9.049 28.981,9.049 28.975,9.047L29.923,6.676C29.471,6.495 28.975,6.449 28.497,6.543L28.992,9.048ZM28.975,9.047C28.97,9.045 28.966,9.041 28.963,9.037L31.048,7.563C30.767,7.165 30.376,6.857 29.923,6.676L28.975,9.047ZM28.963,9.037C28.959,9.032 28.958,9.027 28.957,9.021L31.509,8.92C31.49,8.432 31.33,7.961 31.048,7.563L28.963,9.037ZM28.958,9.026C29.01,10.233 28.763,11.434 28.24,12.523L30.541,13.629C31.247,12.162 31.579,10.542 31.509,8.915L28.958,9.026ZM28.24,12.523C27.716,13.612 26.932,14.555 25.957,15.269L27.464,17.33C28.779,16.368 29.836,15.097 30.541,13.629L28.24,12.523ZM25.957,15.269C24.982,15.982 23.845,16.444 22.649,16.612L23.006,19.141C24.618,18.913 26.15,18.291 27.464,17.33L25.957,15.269ZM22.649,16.612C21.452,16.781 20.233,16.652 19.098,16.237L18.22,18.635C19.749,19.195 21.393,19.369 23.006,19.141L22.649,16.612ZM17.753,16.536L6.913,27.459L8.725,29.258L19.565,18.335L17.753,16.536Z" fill="#1A1A1A"/>
</svg>
