<svg width="24" height="20" viewBox="0 0 24 20" fill="none" xmlns="http://www.w3.org/2000/svg" xmlns:xlink="http://www.w3.org/1999/xlink">
<path d="M2,7.5C1.172,7.5 0.5,8.172 0.5,9C0.5,9.828 1.172,10.5 2,10.5L2,7.5ZM22,9L23.061,10.061C23.646,9.475 23.646,8.525 23.061,7.939L22,9ZM15.061,-0.061C14.475,-0.646 13.525,-0.646 12.939,-0.061C12.354,0.525 12.354,1.475 12.939,2.061L15.061,-0.061ZM12.939,15.939C12.354,16.525 12.354,17.475 12.939,18.061C13.525,18.646 14.475,18.646 15.061,18.061L12.939,15.939ZM2,10.5L22,10.5L22,7.5L2,7.5L2,10.5ZM23.061,7.939L15.061,-0.061L12.939,2.061L20.939,10.061L23.061,7.939ZM20.939,7.939L12.939,15.939L15.061,18.061L23.061,10.061L20.939,7.939Z" fill="#008BF9"/>
</svg>
