<svg width="40" height="40" viewBox="0 0 40 40" fill="none" xmlns="http://www.w3.org/2000/svg" xmlns:xlink="http://www.w3.org/1999/xlink">
<path d="M12,1.619C12,0.514 11.105,-0.381 10,-0.381C8.895,-0.381 8,0.514 8,1.619L8,3.619L6,3.619C4.409,3.619 2.883,4.251 1.757,5.376C0.632,6.502 0,8.028 0,9.619L0,15.619L0,33.619C0,35.21 0.632,36.736 1.757,37.862C2.883,38.987 4.409,39.619 6,39.619L34,39.619C35.591,39.619 37.117,38.987 38.243,37.862C39.368,36.736 40,35.21 40,33.619L40,15.619L40,9.619C40,8.028 39.368,6.502 38.243,5.376C37.117,4.251 35.591,3.619 34,3.619L32,3.619L32,1.619C32,0.514 31.105,-0.381 30,-0.381C28.895,-0.381 28,0.514 28,1.619L28,3.619L12,3.619L12,1.619ZM36,13.619L36,9.619C36,9.089 35.789,8.58 35.414,8.205C35.039,7.83 34.53,7.619 34,7.619L30.002,7.619L30,7.619L29.998,7.619L10.002,7.619L9.998,7.619L6,7.619C5.47,7.619 4.961,7.83 4.586,8.205C4.211,8.58 4,9.089 4,9.619L4,13.619L36,13.619ZM4,17.619L36,17.619L36,33.619C36,34.149 35.789,34.658 35.414,35.033C35.039,35.408 34.53,35.619 34,35.619L6,35.619C5.47,35.619 4.961,35.408 4.586,35.033C4.211,34.658 4,34.149 4,33.619L4,17.619Z" clip-rule="evenodd" fill-rule="evenodd" fill="#767676"/>
</svg>
