<svg width="38" height="40" viewBox="0 0 38 40" fill="none" xmlns="http://www.w3.org/2000/svg" xmlns:xlink="http://www.w3.org/1999/xlink">
<path d="M8.999,10.68L10.999,10.68L10.999,10.68L8.999,10.68ZM26.999,10.68L24.999,10.68L24.999,10.68L26.999,10.68ZM17.999,1.68L17.999,-0.32L17.999,1.68ZM34.975,37.68L34.975,39.68C35.624,39.68 36.233,39.365 36.608,38.835C36.983,38.306 37.077,37.627 36.862,37.015L34.975,37.68ZM17.999,25.665L17.999,23.665L17.999,25.665ZM1.023,37.68L-0.863,37.015C-1.079,37.627 -0.984,38.306 -0.609,38.835C-0.234,39.365 0.374,39.68 1.023,39.68L1.023,37.68ZM6.999,10.68C6.999,12.125 7.284,13.555 7.837,14.89L11.532,13.359C11.18,12.509 10.999,11.599 10.999,10.68L6.999,10.68ZM7.837,14.89C8.39,16.224 9.2,17.437 10.221,18.458L13.05,15.63C12.4,14.98 11.884,14.208 11.532,13.359L7.837,14.89ZM10.221,18.458C11.243,19.48 12.455,20.29 13.79,20.843L15.321,17.147C14.471,16.795 13.7,16.28 13.05,15.63L10.221,18.458ZM13.79,20.843C15.124,21.395 16.555,21.68 17.999,21.68L17.999,17.68C17.08,17.68 16.17,17.499 15.321,17.147L13.79,20.843ZM17.999,21.68C19.444,21.68 20.874,21.395 22.209,20.843L20.678,17.147C19.829,17.499 18.919,17.68 17.999,17.68L17.999,21.68ZM22.209,20.843C23.544,20.29 24.756,19.48 25.778,18.458L22.949,15.63C22.299,16.28 21.527,16.795 20.678,17.147L22.209,20.843ZM25.778,18.458C26.799,17.437 27.609,16.224 28.162,14.89L24.467,13.359C24.115,14.208 23.599,14.98 22.949,15.63L25.778,18.458ZM28.162,14.89C28.715,13.555 28.999,12.125 28.999,10.68L24.999,10.68C24.999,11.599 24.818,12.509 24.467,13.359L28.162,14.89ZM28.999,10.68C28.999,9.235 28.715,7.805 28.162,6.47L24.467,8.001C24.818,8.85 24.999,9.761 24.999,10.68L28.999,10.68ZM28.162,6.47C27.609,5.136 26.799,3.923 25.778,2.902L22.949,5.73C23.599,6.38 24.115,7.152 24.467,8.001L28.162,6.47ZM25.778,2.902C24.756,1.88 23.543,1.07 22.209,0.517L20.678,4.213C21.527,4.565 22.299,5.08 22.949,5.73L25.778,2.902ZM22.209,0.517C20.874,-0.035 19.444,-0.32 17.999,-0.32L17.999,3.68C18.919,3.68 19.829,3.861 20.678,4.213L22.209,0.517ZM17.999,-0.32C16.555,-0.32 15.124,-0.035 13.79,0.517L15.321,4.213C16.17,3.861 17.08,3.68 17.999,3.68L17.999,-0.32ZM13.79,0.517C12.455,1.07 11.243,1.88 10.221,2.902L13.05,5.73C13.7,5.08 14.471,4.565 15.321,4.213L13.79,0.517ZM10.221,2.902C9.2,3.923 8.39,5.136 7.837,6.47L11.532,8.001C11.884,7.152 12.4,6.38 13.05,5.73L10.221,2.902ZM7.837,6.47C7.284,7.805 6.999,9.235 6.999,10.68L10.999,10.68C10.999,9.761 11.18,8.85 11.532,8.001L7.837,6.47ZM36.862,37.015C35.486,33.112 32.932,29.731 29.554,27.34L27.243,30.605C29.946,32.518 31.988,35.222 33.089,38.345L36.862,37.015ZM29.554,27.34C26.175,24.949 22.138,23.665 17.999,23.665L17.999,27.665C21.311,27.665 24.54,28.692 27.243,30.605L29.554,27.34ZM17.999,23.665C13.86,23.665 9.823,24.949 6.445,27.34L8.756,30.605C11.459,28.692 14.688,27.665 17.999,27.665L17.999,23.665ZM6.445,27.34C3.067,29.731 0.513,33.112 -0.863,37.015L2.91,38.345C4.011,35.222 6.053,32.518 8.756,30.605L6.445,27.34ZM1.023,39.68L34.975,39.68L34.975,35.68L1.023,35.68L1.023,39.68Z" fill="#767676"/>
</svg>
