<svg width="24" height="24" viewBox="0 0 24 24" fill="none" xmlns="http://www.w3.org/2000/svg" xmlns:xlink="http://www.w3.org/1999/xlink">
<path d="M12.857,-0.117C13.331,-0.117 13.715,0.271 13.715,0.749L13.715,18.111L21.329,10.397C21.49,10.233 21.709,10.141 21.937,10.141C22.166,10.141 22.385,10.233 22.546,10.397L23.746,11.628C23.909,11.791 24,12.012 24,12.243C24,12.475 23.909,12.696 23.746,12.859L13.235,23.501C12.994,23.745 12.667,23.882 12.326,23.883L11.674,23.883C11.334,23.879 11.008,23.742 10.765,23.501L0.254,12.859C0.091,12.696 0,12.475 0,12.243C0,12.012 0.091,11.791 0.254,11.628L1.471,10.397C1.629,10.234 1.845,10.143 2.071,10.143C2.297,10.143 2.513,10.234 2.671,10.397L10.285,18.111L10.285,0.749C10.285,0.271 10.669,-0.117 11.143,-0.117L12.857,-0.117Z" fill="#000000"/>
</svg>
