<svg width="28" height="30" viewBox="0 0 28 30" fill="none" xmlns="http://www.w3.org/2000/svg" xmlns:xlink="http://www.w3.org/1999/xlink">
<path d="M13.965,28.815C12.037,28.815 10.228,28.452 8.537,27.724C6.827,26.997 5.341,26.001 4.077,24.738C2.813,23.474 1.818,21.987 1.091,20.278C0.363,18.587 0,16.778 0,14.85C0,12.923 0.363,11.114 1.091,9.423C1.818,7.713 2.813,6.227 4.077,4.963C5.341,3.699 6.827,2.704 8.537,1.976C10.228,1.249 12.037,0.885 13.965,0.885C15.892,0.885 17.701,1.249 19.392,1.976C21.102,2.704 22.588,3.699 23.852,4.963C25.116,6.227 26.111,7.713 26.839,9.423C27.566,11.114 27.93,12.923 27.93,14.85C27.93,16.778 27.566,18.587 26.839,20.278C26.111,21.987 25.116,23.474 23.852,24.738C22.588,26.001 21.102,26.997 19.392,27.724C17.701,28.452 15.892,28.815 13.965,28.815ZM12.573,3.777C11.192,3.94 9.91,4.349 8.728,5.004C7.528,5.64 6.491,6.45 5.618,7.432C4.745,8.413 4.054,9.541 3.545,10.814C3.036,12.087 2.782,13.432 2.782,14.85C2.782,15.287 2.809,15.714 2.863,16.132C2.918,16.551 2.991,16.96 3.082,17.36L9.764,10.65L9.764,9.259C9.764,8.495 10.037,7.841 10.582,7.295C11.128,6.75 11.792,6.477 12.573,6.477L12.573,3.777ZM22.202,7.322C22.02,7.886 21.688,8.35 21.206,8.713C20.724,9.077 20.174,9.259 19.556,9.259L18.165,9.259L18.165,13.459C18.165,13.841 18.029,14.169 17.756,14.441C17.483,14.714 17.147,14.85 16.747,14.85L8.373,14.85L8.373,17.633L11.182,17.633C11.564,17.633 11.892,17.769 12.164,18.042C12.437,18.314 12.573,18.651 12.573,19.051L12.573,21.833L15.356,21.833C16.137,21.833 16.801,22.106 17.347,22.651C17.892,23.197 18.165,23.851 18.165,24.615L18.165,25.215C19.183,24.797 20.12,24.242 20.974,23.551C21.829,22.86 22.565,22.065 23.184,21.165C23.802,20.265 24.284,19.278 24.629,18.205C24.975,17.151 25.148,16.032 25.148,14.85C25.148,13.396 24.884,12.023 24.357,10.732C23.829,9.441 23.111,8.304 22.202,7.322Z" fill="#1A1A1A"/>
</svg>
