<svg width="38" height="38" viewBox="0 0 38 38" fill="none" xmlns="http://www.w3.org/2000/svg" xmlns:xlink="http://www.w3.org/1999/xlink">
<path d="M28,36.858C24.693,36.855 21.437,36.038 18.52,34.478L17.62,33.978C11.401,30.635 6.303,25.536 2.96,19.318L2.46,18.418C0.86,15.485 0.014,12.199 0,8.858L0,7.518C-0.001,6.452 0.424,5.43 1.18,4.678L4.56,1.298C4.888,0.967 5.352,0.808 5.814,0.866C6.276,0.925 6.685,1.196 6.92,1.598L11.42,9.318C11.875,10.104 11.744,11.097 11.1,11.738L7.32,15.518C7.006,15.828 6.933,16.308 7.14,16.698L7.84,18.018C10.354,22.675 14.179,26.492 18.84,28.998L20.16,29.718C20.55,29.925 21.03,29.852 21.34,29.538L25.12,25.758C25.76,25.114 26.754,24.983 27.54,25.438L35.26,29.938C35.662,30.173 35.933,30.582 35.991,31.044C36.05,31.506 35.891,31.97 35.56,32.298L32.18,35.678C31.428,36.434 30.406,36.859 29.34,36.858L28,36.858Z" fill="#000000"/>
</svg>
