<svg width="30" height="40" viewBox="0 0 30 40" fill="none" xmlns="http://www.w3.org/2000/svg" xmlns:xlink="http://www.w3.org/1999/xlink">
<path d="M14,-0.118C6.012,-0.118 -0.486,6.38 -0.486,14.368C-0.486,24.281 12.478,38.834 13.03,39.449C13.548,40.026 14.453,40.025 14.971,39.449C15.523,38.834 28.487,24.281 28.487,14.368C28.486,6.38 21.988,-0.118 14,-0.118ZM14,21.657C9.981,21.657 6.712,18.387 6.712,14.368C6.712,10.349 9.981,7.08 14,7.08C18.019,7.08 21.289,10.349 21.289,14.368C21.289,18.387 18.019,21.657 14,21.657Z" fill="#000000"/>
</svg>
