<svg width="24" height="20" viewBox="0 0 24 20" fill="none" xmlns="http://www.w3.org/2000/svg" xmlns:xlink="http://www.w3.org/1999/xlink">
<path d="M2,7.383C1.172,7.383 0.5,8.054 0.5,8.883C0.5,9.711 1.172,10.383 2,10.383L2,7.383ZM22,8.883L23.061,9.943C23.646,9.358 23.646,8.408 23.061,7.822L22,8.883ZM15.061,-0.178C14.475,-0.764 13.525,-0.764 12.939,-0.178C12.354,0.408 12.354,1.358 12.939,1.943L15.061,-0.178ZM12.939,15.822C12.354,16.408 12.354,17.358 12.939,17.943C13.525,18.529 14.475,18.529 15.061,17.943L12.939,15.822ZM2,10.383L22,10.383L22,7.383L2,7.383L2,10.383ZM23.061,7.822L15.061,-0.178L12.939,1.943L20.939,9.943L23.061,7.822ZM20.939,7.822L12.939,15.822L15.061,17.943L23.061,9.943L20.939,7.822Z" fill="#008BF9"/>
</svg>
