<svg width="24" height="20" viewBox="0 0 24 20" fill="none" xmlns="http://www.w3.org/2000/svg" xmlns:xlink="http://www.w3.org/1999/xlink">
<path d="M1,7.383C0.172,7.383 -0.5,8.054 -0.5,8.883C-0.5,9.711 0.172,10.383 1,10.383L1,7.383ZM21,8.883L22.061,9.943C22.646,9.358 22.646,8.408 22.061,7.822L21,8.883ZM14.061,-0.178C13.475,-0.764 12.525,-0.764 11.939,-0.178C11.354,0.408 11.354,1.358 11.939,1.943L14.061,-0.178ZM11.939,15.822C11.354,16.408 11.354,17.358 11.939,17.943C12.525,18.529 13.475,18.529 14.061,17.943L11.939,15.822ZM1,10.383L21,10.383L21,7.383L1,7.383L1,10.383ZM22.061,7.822L14.061,-0.178L11.939,1.943L19.939,9.943L22.061,7.822ZM19.939,7.822L11.939,15.822L14.061,17.943L22.061,9.943L19.939,7.822Z" fill="#008BF9"/>
</svg>
