<svg width="40" height="40" viewBox="0 0 40 40" fill="none" xmlns="http://www.w3.org/2000/svg" xmlns:xlink="http://www.w3.org/1999/xlink">
<path d="M1.995,19.519L0,19.519L1.995,19.519ZM19.95,1.564L19.95,-0.431L19.95,1.564ZM0,19.519C0,24.81 2.102,29.885 5.843,33.626L8.665,30.805C5.672,27.812 3.99,23.752 3.99,19.519L0,19.519ZM5.843,33.626C9.585,37.368 14.659,39.469 19.95,39.469L19.95,35.479C15.717,35.479 11.658,33.798 8.665,30.805L5.843,33.626ZM19.95,39.469C25.241,39.469 30.316,37.368 34.057,33.626L31.236,30.805C28.243,33.798 24.183,35.479 19.95,35.479L19.95,39.469ZM34.057,33.626C37.798,29.885 39.9,24.81 39.9,19.519L35.91,19.519C35.91,23.752 34.229,27.812 31.236,30.805L34.057,33.626ZM39.9,19.519C39.9,14.228 37.798,9.154 34.057,5.413L31.236,8.234C34.229,11.227 35.91,15.287 35.91,19.519L39.9,19.519ZM34.057,5.413C30.316,1.671 25.241,-0.431 19.95,-0.431L19.95,3.559C24.183,3.559 28.243,5.241 31.236,8.234L34.057,5.413ZM19.95,-0.431C14.659,-0.431 9.585,1.671 5.843,5.413L8.665,8.234C11.658,5.241 15.717,3.559 19.95,3.559L19.95,-0.431ZM5.843,5.413C2.102,9.154 0,14.228 0,19.519L3.99,19.519C3.99,15.287 5.672,11.227 8.665,8.234L5.843,5.413Z" fill="#1A1A1A" fill-opacity="0.61"/>
<path d="M21.946,12.612C21.946,11.51 21.052,10.617 19.951,10.617C18.849,10.617 17.956,11.51 17.956,12.612L21.946,12.612ZM19.951,19.519L17.956,19.519C17.956,19.995 18.126,20.456 18.436,20.817L19.951,19.519ZM25.454,29.005C26.171,29.841 27.431,29.938 28.267,29.221C29.104,28.504 29.201,27.245 28.484,26.408L25.454,29.005ZM17.956,12.612L17.956,19.519L21.946,19.519L21.946,12.612L17.956,12.612ZM18.436,20.817L25.454,29.005L28.484,26.408L21.465,18.221L18.436,20.817Z" fill="#1A1A1A" fill-opacity="0.61"/>
</svg>
