<svg width="562" height="508" viewBox="0 0 562 508" fill="none" xmlns="http://www.w3.org/2000/svg" xmlns:xlink="http://www.w3.org/1999/xlink">
<path d="M385.473,491.769C381.429,498.148 385.715,494.671 387.556,499.055C389.398,503.469 392.656,506.825 397.032,506.583C401.44,506.341 407.656,493.492 407.656,493.492C403.038,490.136 407.988,485.964 410.674,484.694C413.3,483.424 411.158,481.127 411.368,470.666C407.324,468.489 407.716,467.492 408.018,460.719C408.472,450.289 402.254,446.812 399.478,444.726C396.7,442.64 395.554,444.726 395.312,448.898C395.072,453.07 390.694,454.461 385.836,454.673C380.977,454.915 378.894,466.01 378.894,466.01C371.047,453.977 372.888,468.792 368.029,466.01C363.17,463.229 365.494,461.143 365.252,458.21C365.011,455.277 361.329,456.517 355.776,457.908C350.223,459.298 349.317,455.822 347.235,452.133C345.152,448.415 339.388,450.047 333.835,453.524C328.281,457.001 300.304,451.891 297.769,448.898C295.234,445.875 288.986,448.656 289.801,445.875C290.646,443.094 280.868,433.359 275.556,431.272C270.244,429.186 273.715,423.865 276.009,421.084C278.333,418.303 277.638,418.303 272.085,417.91C266.532,417.517 254.973,409.263 254.067,413.435C253.132,417.607 250.355,416.67 247.609,414.826C244.832,412.982 247.367,416.912 243.685,417.849C239.973,418.786 238.374,410.442 235.356,407.419C232.337,404.395 231.191,407.419 229.591,406.028C227.991,404.637 217.338,400.707 214.108,400.012C212.509,399.679 208.766,394.539 205.356,389.43C204.541,389.188 203.062,388.825 201.916,388.825C200.286,388.825 199.441,393.995 199.441,393.995C199.441,393.995 198.354,395.537 194.974,394.086C191.594,392.605 189.21,395.174 187.64,397.865C186.101,400.556 191.865,401.795 193.737,402.884C195.608,403.972 194.733,405.423 194.733,406.602C194.733,407.751 197.57,407.751 197.57,407.751C199.411,412.619 205.96,410.14 207.982,410.14C209.974,410.14 211.453,411.984 211.754,413.616C212.056,415.249 214.833,419.572 216.523,421.719C218.213,423.865 218.062,426.042 217.76,429.277C217.458,432.512 223.615,432.21 224.913,431.817C226.211,431.424 226.15,429.277 227.841,428.975C229.531,428.672 231.16,430.124 233.303,435.233C235.446,440.342 240.003,436.533 240.547,435.384C241.09,434.235 236.472,433.993 236.623,432.603C236.774,431.212 239.158,431.212 239.158,431.212C236.382,428.128 239.158,425.196 240.637,428.189C242.116,431.212 246.039,431.121 246.039,431.121C248.725,436.745 252.136,434.296 254.581,435.596C257.055,436.896 256.814,438.68 256.12,440.524C255.426,442.368 262.216,445.996 262.216,445.996C262.216,445.996 258.896,447.84 260.918,450.773C262.941,453.705 266.773,451.075 270.305,451.559C273.836,452.012 283.161,464.438 285.184,464.438C287.206,464.438 288.564,463.894 290.103,464.196C291.642,464.499 295.264,461.566 295.264,461.566C295.415,462.866 298.584,465.98 300.666,467.824C302.749,469.668 301.36,472.45 300.063,475.473C298.765,478.496 301.541,478.103 301.149,480.099C300.757,482.094 306.25,482.245 307.457,481.58C308.694,480.885 310.233,482.276 312.708,480.976C315.183,479.675 315.726,480.038 318.805,480.038C321.883,480.038 322.577,478.648 321.491,476.864C320.404,475.08 325.384,475.231 325.384,475.231C328.161,477.075 328.161,479.857 328.161,479.857C324.448,482.759 327.225,483.576 330.575,482.638C333.925,481.701 337.969,479.736 341.108,480.31C344.217,480.885 344.911,482.729 346.993,481.006C349.076,479.282 349.891,479.494 351.611,477.982C353.331,476.471 353.935,475.655 356.108,475.655C358.311,475.655 362.355,472.178 361.993,473.327C361.631,474.475 370.081,479.464 369.055,479.706C368.029,479.948 367.335,482.245 367.908,484.906C368.482,487.566 366.188,487.113 365.132,489.078C364.106,491.043 368.844,489.894 368.844,489.894C368.844,489.894 369.78,486.659 369.78,485.964C369.78,485.269 371.5,484.12 372.677,482.85C373.824,481.58 379.498,485.057 380.765,486.659C382.033,488.292 375.906,488.504 375.906,488.504C375.574,492.313 381.339,491.406 383.18,490.59C385.021,489.924 385.473,491.769 385.473,491.769Z" fill="#FED6FB" stroke="#666666" stroke-width="0.127" stroke-miterlimit="10" stroke-linecap="round" stroke-linejoin="round"/>
<path d="M448.702,391.849C447.314,391.395 446.499,389.521 444.416,386.86C442.334,384.2 444.99,383.837 444.869,381.297C444.748,378.758 444.054,378.969 441.519,378.062C440.402,377.639 439.799,376.883 439.497,375.886C435.966,376.309 433.883,376.672 429.96,375.674C425.553,374.586 414.477,366.937 413.33,363.913C412.184,360.89 405.483,363.218 403.16,365.304C400.836,367.39 386.047,375.039 384.206,372.953C382.365,370.867 376.812,368.781 375.182,372.258C373.552,375.734 370.776,375.493 371.017,377.82C371.259,380.148 365.011,383.142 367.999,385.47C370.987,387.797 370.082,391.486 373.1,391.486C376.118,391.486 378.2,391.032 378.653,393.118C379.106,395.205 374.247,393.36 374.247,397.291C374.247,401.221 371.017,402.4 368.241,397.291C365.464,392.181 361.299,400.163 363.14,400.677C364.981,401.221 366.611,400.526 366.611,403.519C366.611,406.542 366.611,411.168 370.776,410.23C374.941,409.293 380.252,412.075 381.641,414.161C383.029,416.247 384.659,420.419 384.659,420.419C384.659,420.419 383.965,420.419 381.429,425.044C378.894,429.67 373.583,427.584 376.57,431.303C379.588,435.021 381.671,439.647 383.271,438.256C384.9,436.866 391.359,436.442 391.6,438.498C391.842,440.554 389.276,439.859 390.906,443.577C391.238,444.303 392.325,447.417 394.075,451.952C394.8,451.166 395.222,450.168 395.313,448.929C395.554,444.756 396.701,442.67 399.478,444.756C402.254,446.842 408.502,450.319 408.019,460.75C407.717,467.552 407.324,468.519 411.369,470.696C411.369,470.606 411.369,470.545 411.369,470.454C411.61,459.812 420.513,454.824 422.928,453.101C425.342,451.377 422.686,435.505 422.686,435.505C422.686,435.505 427.304,432.482 428.813,429.247C430.322,426.012 431.469,426.224 431.469,426.224C431.469,426.224 431.469,426.224 433.551,428.431C435.634,430.638 438.652,430.97 440.372,427.614C442.092,424.258 441.76,427.282 443.843,425.649C445.925,424.017 442.907,421.477 441.881,418.575C440.855,415.672 440.251,415.672 441.308,413.586C442.364,411.5 446.408,415.219 448.943,416.126C451.479,417.033 449.275,413.586 448.823,408.356C448.37,403.156 449.517,398.621 450.905,395.507C452.293,392.453 450.09,392.332 448.702,391.849Z" fill="#AEC0FF" stroke="#666666" stroke-width="0.127" stroke-miterlimit="10" stroke-linecap="round" stroke-linejoin="round"/>
<path d="M114.422,300.666C110.891,298.671 111.646,295.405 113.034,292.957C114.422,290.508 106.877,290.478 101.777,288.633C96.676,286.789 99.151,283.524 99.936,279.533C100.72,275.512 96.706,283.403 94.533,283.07C92.39,282.768 92.058,278.294 91.757,276.268C91.455,274.242 84.966,272.731 84.966,272.731C85.902,269.647 81.103,267.803 79.866,267.319C78.628,266.866 80.167,265.324 79.866,262.542C79.564,259.761 74.946,254.984 72.32,253.321C69.695,251.658 70.479,246.186 69.393,242.316C68.306,238.447 61.365,233.972 61.365,233.972C61.576,230.133 59.614,229.105 57.381,229.135L57.291,229.649C53.82,231.614 52.552,238.326 52.552,238.326C45.973,245.733 46.426,248.877 46.426,248.877C42.713,251.537 41.325,256.526 40.661,256.858C39.967,257.191 37.764,255.468 35.923,254.44C34.082,253.412 33.025,258.733 31.879,260.456C30.732,262.179 30.249,264.386 31.758,266.14C33.267,267.863 33.267,269.163 31.879,269.949C30.49,270.766 27.593,272.852 26.446,274.242C25.299,275.633 28.649,281.317 28.649,281.317C24.605,282.133 24.847,285.126 24.847,285.126C26.808,285.943 27.05,290.326 27.05,290.326C27.05,290.326 22.311,293.35 21.617,296.917C20.923,300.485 26.235,300.515 26.235,300.515C26.235,306.652 30.852,311.157 31.909,313.364C32.935,315.571 30.792,318.352 30.792,318.352C32.663,319.38 32.392,324.127 32.392,324.127C29.857,325.85 31.003,327.725 31.456,327.604C31.909,327.483 37.13,329.236 37.13,329.236C36.194,335.615 43.709,336.069 43.709,335.373C43.709,334.678 45.55,333.862 47.18,332.713C48.81,331.564 51.798,329.357 51.798,329.357C55.842,331.776 56.415,328.783 56.536,327.392C56.657,326.001 60.278,326.818 60.278,326.818L62.995,329.478C59.645,330.173 60.339,330.99 60.339,330.99L64.051,333.892L66.586,334.708C63.93,339.334 66.254,340.392 66.707,343.295C67.16,346.197 65.077,346.076 63.93,345.955C62.783,345.834 61.727,346.076 62.089,349.069C62.451,352.062 69.242,351.276 69.242,351.276C66.828,352.788 67.522,360.195 69.242,357.867C70.962,355.539 76.998,357.867 76.998,357.867C76.998,357.867 76.184,350.581 78.628,348.948C81.043,347.315 82.914,348.827 84.181,348.948C85.449,349.069 84.181,343.174 84.181,343.174C88.105,343.99 88.346,339.576 88.346,339.576C90.187,340.029 92.511,337.943 92.753,335.857C92.994,333.771 95.409,333.439 97.612,333.318C99.815,333.197 102.803,326.032 104.433,324.973C106.062,323.915 108.145,327.392 108.477,327.392C108.809,327.392 110.891,324.278 113.909,322.071C116.927,319.864 121.545,311.066 121.545,311.066C121.545,311.066 121.575,311.066 121.575,311.036C120.73,298.701 117.712,302.51 114.422,300.666Z" fill="#D5BB81" stroke="#666666" stroke-width="0.127" stroke-miterlimit="10" stroke-linecap="round" stroke-linejoin="round"/>
<path d="M32.241,215.863C32.935,216.8 37.794,218.402 42.532,221.546C47.271,224.66 47.723,222.937 49.353,222.937C50.983,222.937 57.683,227.805 57.683,227.805L57.441,229.135C59.675,229.105 61.637,230.133 61.425,233.972C61.425,233.972 68.367,238.447 69.453,242.317C70.54,246.186 69.755,251.659 72.381,253.321C75.007,254.984 79.624,259.761 79.926,262.542C80.228,265.324 78.689,266.866 79.926,267.319C81.163,267.773 85.932,269.647 85.026,272.731C85.026,272.731 91.485,274.273 91.817,276.268C92.149,278.264 92.421,282.738 94.594,283.071C96.737,283.373 100.751,275.512 99.996,279.533C99.453,282.375 98.064,284.824 99.091,286.668C100.117,285.731 100.751,285.157 100.962,285.005C103.738,282.678 103.165,279.684 105.127,279.231C107.088,278.777 106.756,275.754 105.579,273.91C104.433,272.066 108.115,272.187 109.624,271.703C111.133,271.249 107.42,268.347 109.956,267.41C112.491,266.473 115.841,260.819 115.509,258.491C115.177,256.163 117.471,255.135 116.776,253.321C116.082,251.507 111.585,250.51 109.956,248.424C108.326,246.338 109.835,245.31 107.632,242.528C105.428,239.747 108.205,238.719 109.714,235.937C111.223,233.156 116.293,233.035 115.962,230.375C115.63,227.714 105.791,221.819 98.638,221.819C91.485,221.819 90.67,213.263 91.938,209.211C93.205,205.16 92.964,207.942 97.129,206.097C101.294,204.253 105.338,199.96 106.274,197.421C107.209,194.881 100.509,196.151 92.632,195.334C84.785,194.518 82.582,190.346 79.685,188.683C76.787,187.02 74.705,189.651 73.437,188.139C72.17,186.627 69.152,188.26 67.31,188.593C65.469,188.925 64.534,187.897 64.534,185.932C64.534,183.967 59.343,183.392 58.528,180.732C57.713,178.071 61.999,179.704 65.107,179.795C68.216,179.916 66.496,177.376 64.655,174.806C62.814,172.237 66.375,171.45 68.246,170.302C70.087,169.153 68.94,167.52 70.208,166.25C71.475,164.981 69.182,156.636 69.272,154.218C69.393,151.799 74.131,155.941 74.011,153.643C73.89,151.315 79.775,149.592 79.775,146.932C79.775,144.271 80.59,139.162 80.59,137.68C80.59,136.169 77.693,132.359 74.916,130.727C72.139,129.094 72.381,127.613 72.381,125.285C72.381,122.957 65.681,119.026 65.681,117.636C65.681,116.245 63.84,108.959 63.84,106.873C63.84,104.787 69.725,104.787 70.661,104.212C71.596,103.638 67.19,97.38 64.896,95.656C62.572,93.933 61.425,91.605 60.399,92.3C59.373,92.996 55.993,93.117 53.82,93.933C51.647,94.749 52.884,96.714 50.711,97.047C48.508,97.38 46.999,97.289 44.343,97.047C41.687,96.805 41.235,99.949 38.337,99.828C36.798,99.768 34.987,101.31 33.629,102.791C33.84,103.063 34.052,103.154 34.202,102.942C34.776,102.126 37.432,102.942 37.432,102.942C37.432,102.942 38.579,103.759 37.311,105.27C36.043,106.782 36.285,113.252 36.285,113.252C36.285,113.252 36.285,113.252 35.017,113.252C33.75,113.252 32.361,109.08 30.038,110.017C27.714,110.954 29.343,119.631 29.343,119.631C24.364,121.022 24.846,126.101 23.217,128.308C21.587,130.515 20.44,130.394 19.867,132.934C19.293,135.473 24.273,136.652 27.14,138.497C30.038,140.341 27.472,142.306 27.472,146.025C27.472,149.743 32.905,149.622 34.293,150.076C35.681,150.529 35.561,152.283 34.414,153.099C33.267,153.915 35.108,159.115 35.108,159.115C31.879,158.087 31.879,161.322 31.879,161.322C27.593,158.299 26.567,160.627 26.567,160.627C33.961,171.964 39.152,168.276 39.152,168.276C42.261,176.741 34.655,180.672 34.655,180.672C22.885,182.183 17.452,189.107 17.452,189.107C14.344,188.532 10.058,191.434 5.772,191.525C1.487,191.646 -0.113,193.369 -0.113,195.818C-0.113,198.267 9.726,196.514 9.937,197.209C10.179,197.904 13.982,199.99 16.185,200.323C18.388,200.655 19.987,208.546 21.557,209.121C23.096,209.725 31.547,214.925 32.241,215.863Z" fill="#FFA599" stroke="#666666" stroke-width="0.127" stroke-miterlimit="10" stroke-linecap="round" stroke-linejoin="round"/>
<path d="M293.121,74.493C293.935,72.77 291.975,69.747 290.585,68.598C289.197,67.449 290.707,66.058 289.801,64.547C288.895,63.035 285.969,63.609 283.071,62.219C280.173,60.828 279.721,61.402 279.479,60.586C279.237,59.77 276.461,57.926 273.715,54.691C270.939,51.456 273.263,48.1 273.263,46.225C273.263,44.381 272.235,44.26 271.421,41.721C270.607,39.181 265.535,39.302 263.907,38.244C262.277,37.216 266.231,33.83 266.563,31.986C266.893,30.141 262.065,27.813 262.277,25.032C262.487,22.251 259.047,20.165 256.843,19.137C254.641,18.109 254.641,14.844 253.253,11.971C251.865,9.069 247.487,9.069 247.487,8.253C247.487,7.436 246.915,3.385 244.469,2.236C242.055,1.088 241.361,1.42 239.731,0.271C238.101,-0.878 239.611,1.995 238.011,1.995C236.411,1.995 236.503,11.367 236.503,11.367C230.708,12.304 229.772,23.43 229.772,23.43C226.422,23.43 221.563,26.332 219.722,27.36C217.881,28.388 219.601,42.537 219.601,44.018C219.601,45.53 222.257,46.346 223.525,46.8C224.792,47.253 226.18,51.788 227.569,52.937C228.957,54.086 231.855,55.265 231.613,57.23C231.371,59.195 231.281,61.402 232.881,62.098C234.511,62.793 234.601,67.419 232.881,67.086C231.161,66.754 228.716,67.902 226.995,68.598C225.275,69.293 226.06,68.93 221.442,67.449C216.824,65.937 220.507,69.293 217.156,69.414C213.806,69.535 213.565,68.598 212.297,66.058C211.03,63.519 210.336,65.726 208.827,65.03C207.318,64.335 205.477,61.221 205.024,59.135C204.571,57.049 202.609,56.353 202.489,52.665C202.368,48.977 199.38,51.516 196.604,52.211C193.827,52.907 184.35,51.879 183.656,51.063C182.962,50.246 180.879,50.609 180.306,51.637C179.733,52.665 176.956,52.574 176.594,50.821C176.262,49.097 174.27,47.586 172.097,46.407C169.924,45.228 168.173,44.895 165.638,45.379C163.103,45.863 163.556,48.039 162.047,50.246C160.538,52.453 149.462,51.516 149.462,51.516C148.647,47.586 143.456,42.265 142.067,41.328C140.679,40.39 138.717,42.265 137.208,42.265C135.699,42.265 135.005,40.632 133.617,37.518C132.228,34.404 127.49,35.1 121.484,35.432C115.478,35.765 119.402,39.362 119.402,39.362C113.034,36.581 109.472,43.414 109.472,43.414C109.472,43.414 107.39,43.172 104.975,43.414C102.561,43.656 104.855,44.925 102.893,45.742C100.931,46.558 99.784,44.018 96.193,44.472C92.601,44.925 94.231,48.19 94.231,48.19C91.213,48.07 89.131,51.546 88.346,52.816C87.561,54.086 85.69,52.816 80.71,52.816C75.731,52.816 75.731,59.649 74.704,58.712C73.678,57.774 71.234,57.774 67.552,56.505C63.87,55.235 62.119,57.895 58.196,58.137C54.272,58.379 54.393,63.247 52.763,64.97C51.133,66.693 49.051,67.298 48.96,70.654C48.84,74.009 45.248,75.4 43.981,76.337C42.713,77.275 38.88,74.372 41.657,78.756C44.433,83.17 42.804,88.007 42.109,89.398C41.415,90.789 43.498,91.363 42.351,93.449C41.204,95.535 39.454,94.477 39.454,94.477C39.001,91.938 36.677,92.391 34.353,92.059C32.029,91.726 30.188,96.563 31.244,98.317C32.089,99.707 33.629,102.852 33.568,102.791C34.957,101.31 36.767,99.768 38.276,99.828C41.174,99.949 41.627,96.805 44.282,97.047C46.938,97.289 48.447,97.38 50.65,97.047C52.854,96.714 51.586,94.749 53.759,93.933C55.932,93.117 59.312,92.996 60.338,92.3C61.365,91.605 62.542,93.933 64.835,95.656C67.159,97.38 71.535,103.638 70.6,104.212C69.664,104.787 63.779,104.787 63.779,106.873C63.779,108.959 65.62,116.245 65.62,117.636C65.62,119.026 72.32,122.957 72.32,125.285C72.32,127.612 72.079,129.094 74.855,130.726C77.632,132.359 80.529,136.168 80.529,137.68C80.529,139.192 79.714,144.271 79.714,146.931C79.714,149.592 73.829,151.345 73.95,153.643C74.071,155.971 69.332,151.799 69.212,154.217C69.091,156.636 71.415,164.98 70.147,166.25C69.664,166.734 69.544,167.248 69.453,167.762C71.113,168.457 72.803,168.427 73.739,166.492C76.063,161.625 77.209,157.936 81.586,158.39C85.992,158.843 91.062,154.852 92.451,158.359C93.839,161.866 91.515,168.034 96.615,168.185C101.716,168.336 102.863,167.641 105.851,163.952C108.869,160.234 110.257,156.999 111.857,160.234C113.486,163.469 115.569,162.773 115.78,165.343C116.022,167.883 110.016,170.906 113.245,171.813C116.474,172.75 117.863,166.946 120.186,170.18C122.51,173.415 123.416,172.508 127.339,178.736C131.263,184.995 128.033,189.409 134.039,189.409C140.045,189.409 139.351,184.541 146.534,184.057C153.717,183.574 154.381,186.597 155.769,181.034C157.158,175.471 157.399,174.564 159.693,171.087C162.017,167.611 162.017,148.171 166.151,147.687C170.286,147.203 174.481,146.992 176.322,144.664C178.163,142.336 179.552,143.727 181.634,143.515C183.716,143.273 188.334,137.952 190.869,140.492C193.404,143.031 201.04,142.124 204.058,139.796C207.076,137.468 207.076,138.406 208.676,136.32C210.275,134.234 204.058,122.654 205.899,119.873C207.74,117.091 209.37,108.052 213.746,111.77C218.152,115.489 219.511,109.563 222.529,110.894C225.547,112.224 229.681,115.247 231.553,118.966C233.393,122.685 230.858,122.896 233.635,124.075C236.411,125.224 244.259,132.42 248.907,134.022C253.555,135.624 252.135,134.022 255.847,135.413C259.561,136.803 263.483,132.178 268.553,134.475C273.655,136.803 278.967,135.413 279.871,130.999C280.807,126.585 266.471,121.747 269.459,117.333C272.477,112.919 276.159,99.496 271.541,98.589C271.541,98.589 269.459,93.721 277.789,93.721C277.789,93.721 277.547,83.291 282.195,81.9C285.153,81.023 290.585,81.084 294.419,77.486C294.297,75.823 293.121,74.493 293.121,74.493Z" fill="#FFC1F1" stroke="#666666" stroke-width="0.127" stroke-miterlimit="10" stroke-linecap="round" stroke-linejoin="round"/>
<path d="M561.064,227.2C561.396,217.465 552.976,217.465 549.173,216.558C545.37,215.621 543.167,215.983 539.817,214.351C536.467,212.718 531.487,212.96 524.546,210.3C517.604,207.639 515.763,199.748 514.707,196.755C513.681,193.732 502.574,190.739 502.454,190.164C502.333,189.59 498.047,186.567 493.792,185.055C489.506,183.543 486.518,176.832 484.195,177.406C481.871,177.981 481.539,184.813 480.15,183.997C478.762,183.181 476.8,184.934 475.653,184.692C474.507,184.45 472.424,180.399 470.462,179.099C468.501,177.799 462.615,177.164 459.929,175.653C457.274,174.141 459.235,172.176 456.459,171.36C453.682,170.543 454.135,172.75 452.535,172.75C450.905,172.75 444.326,168.457 443.3,166.734C442.274,165.011 437.173,163.62 435.453,163.62C433.733,163.62 434.517,165.827 433.039,165.011C431.56,164.194 429.688,164.769 428.21,163.983C426.731,163.166 424.256,161.322 424.045,159.69C423.803,158.057 424.86,158.873 425.675,156.908C426.489,154.943 423.833,156.576 423.954,155.276C424.075,154.006 422.234,146.478 421.298,144.634C420.363,142.789 423.26,141.852 426.037,139.766C428.813,137.68 429.145,128.761 426.037,128.761C422.928,128.761 419.457,127.129 419.457,127.129C420.604,123.773 419.216,120.054 417.133,118.663C415.051,117.273 412.395,116.336 412.516,117.968C412.636,119.601 410.101,123.289 409.045,123.743C408.14,124.136 407.174,123.168 405.604,122.533C404.156,124.438 402.918,126.645 403.401,128.278C404.427,131.754 406.299,136.954 406.299,136.954C406.299,136.954 397.516,136.954 394.739,135.231C391.963,133.508 383.301,140.431 385.384,142.517C387.466,144.603 391.269,143.908 392.325,149.108C393.351,154.308 397.184,160.566 397.184,160.566C397.184,160.566 385.021,168.215 388.16,173.083C391.269,177.95 391.963,183.846 394.407,187.685C396.822,191.495 396.822,202.983 391.993,205.402C391.993,205.402 392.687,208.879 391.299,212.355C389.911,215.832 400.655,215.832 402.043,220.7C403.431,225.567 403.311,229.377 407.174,231.13C411.037,232.884 410.373,236.33 409.317,241.198C408.291,246.065 404.458,245.581 404.82,253.291C405.182,261 403.794,265.172 405.152,270.373C406.54,275.573 405.393,277.659 410.132,280.803C414.87,283.947 421.449,289.48 418.673,291.566C415.896,293.652 408.834,291.233 407.174,294.68C407.174,294.68 399.961,291.596 396.49,293.652C393.019,295.708 395.464,299.88 392.687,300.938C389.911,301.966 393.713,302.329 395.464,305.11C397.184,307.892 400.323,311.701 400.323,311.701C400.323,311.701 393.049,320.74 389.911,319.35C386.802,317.96 384.025,319.682 383.331,316.931C382.637,314.15 382.305,310.673 379.528,312.427C376.752,314.15 377.808,317.99 374.669,317.99C371.531,317.99 366.702,313.485 364.951,314.875C363.231,316.266 363.231,316.266 363.231,316.266C363.231,316.266 368.09,317.99 365.313,322.856C365.313,322.856 370.504,319.38 372.949,322.856C375.364,326.334 375.032,329.81 381.279,331.534C387.526,333.258 388.552,336.734 388.552,338.82C388.552,340.906 390.243,340.544 391.299,342.992C392.355,345.41 391.329,356.838 396.852,358.26C402.405,359.68 402.949,355.66 407.174,363.218C409.83,362.28 412.757,362.07 413.482,363.944C414.628,366.966 425.735,374.586 430.111,375.704C434.034,376.702 436.117,376.34 439.648,375.916C439.286,374.706 439.346,373.164 439.346,371.652C439.346,368.902 442.123,368.6 444.658,368.6C447.193,368.6 449.396,372.076 450.423,371.622C451.449,371.17 450.423,369.084 449.396,365.364C448.37,361.646 449.396,365.364 451.479,364.336C453.561,363.308 457.485,359.228 459.326,357.262C461.167,355.296 457.002,352.848 457.605,352.636C458.179,352.394 466.629,344.172 468.923,340.482C471.247,336.764 468.35,333.196 466.147,331.11C463.943,329.024 464.758,327.996 463.129,325.336C461.499,322.676 459.779,318.956 459.779,316.176C459.779,313.394 462.434,313.757 464.275,313.152C466.116,312.548 465.664,311.429 465.664,308.164C465.664,304.899 471.79,304.808 476.649,305.261C481.508,305.715 481.267,306.41 482.776,306.41C484.285,306.41 483.229,306.078 482.897,302.812C482.565,299.547 484.285,300.152 485.794,299.699C487.303,299.245 487.424,297.854 488.691,295.889C489.959,293.924 491.589,295.073 492.162,293.471C492.736,291.838 492.283,290.357 493.43,288.845C494.577,287.333 493.671,280.622 493.188,279.352C492.736,278.082 499.888,273.91 505.562,274.484C511.236,275.059 512.383,272.156 514.013,269.859C515.643,267.531 515.401,267.44 517.725,267.44C520.049,267.44 521.196,265.475 522.826,263.51C524.455,261.544 523.067,254.954 524.787,254.349C526.508,253.744 529.194,251.447 529.194,250.751C529.194,250.056 534.626,250.056 536.256,248.665C537.886,247.275 536.588,245.642 539.727,244.251C542.835,242.861 539.485,236.028 539.485,236.028C542.594,235.212 545.612,226.535 546.306,226.535C547,226.535 548.147,228.5 548.147,230.949C548.147,233.367 551.95,234.426 553.7,233.488C555.421,232.551 557.986,233.156 560.763,233.035C563.359,232.884 561.064,227.2 561.064,227.2Z" fill="#FFA1A1" stroke="#666666" stroke-width="0.127" stroke-miterlimit="10" stroke-linecap="round" stroke-linejoin="round"/>
<path d="M363.05,316.266C363.05,316.266 363.05,316.266 364.77,314.875C366.491,313.485 371.35,317.989 374.488,317.989C377.627,317.989 376.571,314.18 379.347,312.427C382.124,310.703 382.456,314.15 383.15,316.931C383.844,319.713 386.621,317.959 389.729,319.35C392.838,320.741 400.142,311.701 400.142,311.701C400.142,311.701 397.033,307.892 395.283,305.11C393.562,302.329 389.73,301.996 392.506,300.938C395.283,299.91 392.838,295.738 396.309,293.652C399.78,291.596 406.993,294.68 406.993,294.68C408.653,291.203 415.715,293.652 418.492,291.566C421.268,289.48 414.689,283.917 409.95,280.803C405.212,277.689 406.359,275.603 404.971,270.373C403.582,265.172 404.971,261 404.639,253.291C404.307,245.581 408.109,246.065 409.136,241.198C410.162,236.33 410.856,232.853 406.993,231.13C403.13,229.407 403.25,225.567 401.862,220.7C400.836,217.072 394.619,216.165 392.084,214.502C389.458,216.497 387.164,218.311 386.5,218.976C384.659,220.821 382.788,215.258 379.559,218.976C376.329,222.695 372.617,226.142 368,222.695C363.382,219.249 358.764,222 358.764,222C358.764,222 362.235,231.493 360.847,233.579C359.458,235.665 360.605,234.274 358.764,237.056C356.923,239.837 356.682,239.595 355.988,242.165C355.294,244.705 352.064,244.009 353.453,247.728C354.841,251.447 355.082,252.837 355.294,256.193C355.505,259.549 356.923,257.675 360.394,261.151C363.865,264.628 364.8,266.261 362.718,269.012C360.635,271.793 351.4,275.966 348.624,274.575C345.847,273.184 344.459,274.333 339.6,273.426C334.741,272.519 336.582,268.317 331.511,271.098C326.411,273.88 323.664,274.212 320.405,274.847C317.176,275.512 316.481,273.426 313.705,272.489C310.928,271.552 309.087,270.856 309.087,270.856C309.087,270.856 303.534,284.763 301.24,284.763C301.24,284.763 306.793,284.522 306.793,289.389C306.793,294.257 303.775,298.187 309.812,302.359C315.817,306.531 317.658,306.985 320.918,310.008C324.147,313.031 323.694,315.571 331.783,314.422C339.871,313.273 341.26,309.887 348.654,314.694C356.018,319.501 365.645,321.708 365.706,321.708C367.124,317.717 363.05,316.266 363.05,316.266Z" fill="#FDD7E4" stroke="#666666" stroke-width="0.127" stroke-miterlimit="10" stroke-linecap="round" stroke-linejoin="round"/>
<path d="M390.906,443.607C389.276,439.889 391.842,440.584 391.6,438.528C391.359,436.472 384.9,436.896 383.27,438.286C381.641,439.677 379.558,435.051 376.57,431.333C373.552,427.614 378.894,429.7 381.429,425.074C383.964,420.449 384.659,420.449 384.659,420.449C384.659,420.449 383.029,416.277 381.641,414.191C380.252,412.105 374.94,409.323 370.776,410.26C366.611,411.198 366.611,406.542 366.611,403.549C366.611,400.525 364.981,401.221 363.14,400.707C361.299,400.163 365.464,392.211 368.24,397.321C371.017,402.43 374.246,401.251 374.246,397.321C374.246,393.39 379.105,395.235 378.653,393.148C378.2,391.062 376.118,391.516 373.099,391.516C370.081,391.516 371.017,387.797 367.999,385.5C366.188,384.109 367.727,382.476 369.176,380.874C364.951,380.209 363.321,378.637 360.182,377.82C355.595,376.641 355.052,381.327 352.275,379.876C349.498,378.425 349.951,376.46 345.333,374.827C340.716,373.195 342.798,367.874 342.315,363.702C341.863,359.529 336.762,361.374 335.857,359.983C334.921,358.592 331.239,356.506 329.609,358.592C327.98,360.678 322.668,360.436 319.197,359.983C315.726,359.529 316.873,363.913 315.968,366.695C315.032,369.476 310.203,370.413 309.72,367.843C309.268,365.304 304.861,364.82 304.861,364.82C303.232,358.532 290.978,349.794 283.584,349.794C276.19,349.794 269.248,363.702 264.389,365.304C259.53,366.937 250.295,362.462 250.295,362.462C249.601,358.471 239.43,357.202 239.43,357.202C238.977,354.42 235.959,355.115 235.959,355.115C233.877,361.827 230.406,363.46 228.324,363.46C226.241,363.46 225.094,372.016 222.318,377.79C219.541,383.565 219.299,375.734 218.847,372.711C218.696,371.683 217.247,371.744 215.436,372.288C216.644,372.288 217.458,372.258 217.458,372.258C217.458,372.258 216.674,374.948 215.527,375.976C214.38,376.974 215.074,378.455 214.984,380.058C214.893,381.69 212.992,383.444 210.125,385.681C207.288,387.918 206.111,386.679 206.111,386.679L205.809,389.611C205.809,389.611 205.598,389.551 205.235,389.43C208.646,394.569 212.388,399.679 213.988,400.011C217.217,400.707 227.871,404.637 229.47,406.028C231.07,407.418 232.247,404.395 235.235,407.418C238.253,410.442 239.852,418.756 243.565,417.849C247.277,416.912 244.712,412.981 247.488,414.826C250.265,416.67 253.041,417.607 253.947,413.435C254.882,409.263 266.441,417.516 271.965,417.909C277.518,418.302 278.212,418.302 275.888,421.084C273.564,423.865 270.124,429.186 275.435,431.272C280.747,433.358 290.495,443.093 289.68,445.875C288.835,448.656 295.083,445.875 297.648,448.898C300.183,451.921 328.161,457 333.714,453.524C339.267,450.047 345.032,448.414 347.114,452.133C349.196,455.852 350.132,459.298 355.655,457.907C361.208,456.517 364.89,455.277 365.132,458.21C365.373,461.142 363.049,463.228 367.908,466.01C372.767,468.791 370.926,453.977 378.773,466.01C378.773,466.01 380.856,454.884 385.715,454.673C389.125,454.521 392.294,453.766 393.954,451.921C392.324,447.477 391.238,444.363 390.906,443.607Z" fill="#F7F667" stroke="#666666" stroke-width="0.127" stroke-miterlimit="10" stroke-linecap="round" stroke-linejoin="round"/>
<path d="M239.491,357.232C239.491,357.232 249.662,358.502 250.356,362.492C250.356,362.492 259.591,366.937 264.45,365.334C269.31,363.702 276.251,349.825 283.645,349.825C291.039,349.825 303.293,358.562 304.923,364.851C304.923,364.851 309.329,365.334 309.782,367.874C310.234,370.414 315.093,369.507 316.029,366.725C316.965,363.944 315.788,359.56 319.258,360.013C322.729,360.467 328.041,360.709 329.671,358.623C331.3,356.537 334.982,358.623 335.918,360.013C336.854,361.404 341.924,359.56 342.377,363.732C342.829,367.904 340.747,373.225 345.395,374.858C350.012,376.49 349.56,378.455 352.336,379.907C355.113,381.358 355.656,376.672 360.243,377.851C363.382,378.667 365.012,380.239 369.237,380.904C370.203,379.846 371.139,378.818 371.048,377.881C370.807,375.553 373.583,375.795 375.213,372.318C376.843,368.841 382.366,370.927 384.237,373.014C386.108,375.1 400.866,367.451 403.19,365.365C404.035,364.609 405.514,363.792 407.053,363.248C402.828,355.69 402.255,359.711 396.732,358.29C391.178,356.869 392.235,345.471 391.178,343.022C390.122,340.604 388.432,340.936 388.432,338.85C388.432,336.764 387.406,333.287 381.159,331.564C374.911,329.841 375.273,326.364 372.829,322.887C372.557,322.585 372.014,321.708 370.656,321.376C368.905,320.952 367.276,321.769 367.004,321.95C366.581,322.101 366.159,322.313 365.706,322.585C365.374,322.766 365.193,322.887 365.193,322.887C365.495,322.343 365.766,321.617 365.736,321.738C365.676,321.738 356.048,319.501 348.684,314.724C341.29,309.917 339.902,313.273 331.813,314.452C323.725,315.601 324.178,313.062 320.948,310.038C317.719,307.015 315.848,306.561 309.842,302.389C303.836,298.217 306.824,294.287 306.824,289.419C306.824,284.552 301.271,284.794 301.271,284.794L299.762,287.424L296.653,286.638C296.653,286.638 292.79,290.175 291.553,288.029C290.315,285.882 286.935,280.622 286.935,280.622L283.223,280.622C283.223,280.622 284.46,284.643 284.007,286.184C283.555,287.726 283.223,288.664 283.223,288.664L277.82,289.601C277.82,289.601 277.67,283.887 276.734,283.282C275.798,282.677 271.181,279.563 269.943,281.74C268.706,283.887 269.792,287.908 268.253,288.543C266.714,289.178 261.463,289.631 261.463,289.631C261.463,289.631 263.002,294.105 261.463,294.559C259.923,295.012 256.845,292.412 256.06,293.471C255.275,294.559 250.658,295.315 250.356,296.403C250.054,297.492 249.42,298.55 247.127,298.55C244.803,298.55 243.113,301.785 243.113,303.478C243.113,305.171 245.889,304.415 246.342,306.259C246.795,308.103 246.342,309.192 248.817,310.129C251.292,311.066 252.046,321.194 250.205,322.918C248.364,324.641 249.42,327.876 250.507,329.418C251.593,330.959 251.593,332.955 250.205,333.892C248.817,334.829 250.054,334.497 250.507,336.825C250.96,339.153 250.205,340.997 249.27,341.45C248.334,341.904 245.557,340.664 244.954,343.778C244.35,346.892 247.881,348.404 246.191,349.885C244.501,351.367 243.716,350.581 243.113,353.362C242.6,355.66 238.767,353.03 237.861,355.297C238.586,355.448 239.28,355.992 239.491,357.232Z" fill="#D9F98D" stroke="#666666" stroke-width="0.127" stroke-miterlimit="10" stroke-linecap="round" stroke-linejoin="round"/>
<path d="M397.063,160.627C397.063,160.627 393.23,154.369 392.204,149.169C391.178,143.969 387.345,144.664 385.263,142.578C383.18,140.492 391.842,133.538 394.619,135.292C397.395,137.015 406.178,137.015 406.178,137.015C406.178,137.015 404.337,131.815 403.28,128.338C402.797,126.736 404.035,124.499 405.484,122.594C405.212,122.473 404.94,122.382 404.638,122.292C402.556,121.717 401.62,120.901 402.103,119.389C402.556,117.878 399.447,113.252 397.244,111.861C395.041,110.471 393.653,111.982 392.838,110.833C392.023,109.685 382.094,104.454 380.132,103.668C378.17,102.882 376.42,103.336 375.635,100.554C374.82,97.773 374.247,98.136 372.406,98.136C370.565,98.136 368.935,91.424 367.215,87.826C365.494,84.228 361.209,88.28 358.432,88.159C355.655,88.038 355.776,85.831 353.573,85.74C351.37,85.619 351.732,84.924 349.167,83.201C346.601,81.477 344.881,85.861 342.919,86.919C340.958,87.947 336.551,86.587 334.378,86.677C332.175,86.798 332.869,89.58 332.054,90.396C331.239,91.212 326.954,90.396 326.501,91.666C326.048,92.936 323.483,93.752 320.133,92.815C316.783,91.877 315.515,90.033 315.032,88.31C314.58,86.587 311.682,85.528 312.014,83.896C312.346,82.263 311.079,79.724 308.906,77.638C306.703,75.552 306.703,76.489 303.926,77.305C301.149,78.121 294.449,78.242 294.449,78.242C294.449,78 294.449,77.789 294.419,77.547C290.586,81.114 285.154,81.054 282.196,81.961C277.578,83.352 277.79,93.782 277.79,93.782C269.46,93.782 271.542,98.65 271.542,98.65C276.16,99.587 272.478,113.01 269.46,117.394C266.442,121.808 280.778,126.645 279.872,131.059C278.937,135.473 273.625,136.834 268.554,134.536C265.114,132.964 262.186,134.597 259.53,135.352C261.673,137.499 263.876,138.98 265.899,139.162C273.866,139.857 276.311,140.552 277.337,146.448C278.363,152.343 284.61,149.562 284.973,153.039C285.305,156.515 283.343,163.469 280.868,164.86C278.393,166.25 274.923,172.509 269.731,170.06C269.731,170.06 266.291,175.955 266.11,178.041C265.929,180.127 265.597,182.214 266.11,183.604C266.623,184.995 264.54,179.432 260.375,187.081C256.21,194.73 257.961,204.102 253.796,204.435C249.631,204.767 242.69,207.912 247.217,209.635C251.744,211.358 252.076,210.421 254.49,214.533C256.905,218.644 261.432,221.426 256.573,222.816C251.714,224.207 247.217,222.816 247.217,222.816C247.217,222.816 246.191,233.247 244.108,234.275C242.026,235.303 247.579,239.475 249.993,240.533C252.408,241.561 254.158,241.561 253.464,244.705C252.77,247.819 249.661,250.449 252.438,253.321C255.215,256.163 259.017,252.021 260.768,256.194C262.488,260.366 257.659,266.896 261.462,268.136C265.265,269.375 267.709,275.966 267.709,275.966L266.683,280.592C266.683,280.592 268.736,279.896 271.361,280.924C273.232,280.894 276.039,282.768 276.733,283.222C277.277,283.586 277.548,285.702 277.699,287.394C277.759,288.422 277.79,288.754 277.82,289.54L283.222,288.604C283.222,288.604 283.524,287.666 284.007,286.124C284.46,284.582 283.222,280.562 283.222,280.562L286.934,280.562C286.934,280.562 290.315,285.822 291.552,287.968C292.789,290.116 296.652,286.578 296.652,286.578L299.761,287.364L301.27,284.734L301.451,284.704C303.866,284.038 309.117,270.826 309.117,270.826C309.117,270.826 310.958,271.522 313.735,272.459C316.511,273.396 317.205,275.482 320.435,274.817C323.664,274.152 326.441,273.85 331.541,271.068C336.642,268.287 334.77,272.459 339.63,273.396C344.489,274.333 345.877,273.154 348.654,274.545C351.43,275.936 360.665,271.764 362.748,268.982C364.83,266.201 363.895,264.568 360.424,261.122C356.953,257.645 355.565,259.489 355.323,256.163C355.082,252.838 354.871,251.417 353.482,247.698C352.094,243.979 355.323,244.675 356.018,242.135C356.712,239.596 356.953,239.807 358.794,237.026C360.635,234.244 359.488,235.635 360.877,233.549C362.265,231.463 358.794,221.97 358.794,221.97C358.794,221.97 363.412,219.188 368.029,222.665C372.647,226.142 376.359,222.665 379.589,218.947C382.818,215.228 384.689,220.791 386.53,218.947C387.194,218.281 389.488,216.467 392.114,214.472C391.238,213.898 390.786,213.233 391.148,212.356C392.536,208.879 391.842,205.402 391.842,205.402C396.701,202.984 396.701,191.495 394.256,187.686C391.842,183.876 391.148,177.951 388.009,173.083C384.9,168.276 397.063,160.627 397.063,160.627Z" fill="#91F8F5" stroke="#666666" stroke-width="0.127" stroke-miterlimit="10" stroke-linecap="round" stroke-linejoin="round"/>
<path d="M266.653,280.591L267.679,275.966C267.679,275.966 265.265,269.375 261.432,268.135C257.599,266.896 262.458,260.335 260.738,256.193C259.018,252.021 255.185,256.193 252.408,253.321C249.631,250.479 252.74,247.849 253.434,244.705C254.128,241.591 252.408,241.591 249.963,240.533C247.971,239.686 243.897,236.723 243.625,235.121C240.547,235.605 238.374,235.937 237.801,236.028C234.994,236.361 237.469,241.923 232.278,242.286C227.087,242.619 227.419,244.009 221.865,243.314C216.312,242.619 216.674,240.533 216.312,237.751C215.98,234.97 211.694,226.293 211.694,226.293C211.694,226.293 212.147,229.074 205.266,229.135C198.385,229.195 198.626,232.914 198.626,232.914C198.626,232.914 194.461,232.914 192.741,234.305C191.021,235.695 187.55,232.914 182.329,230.828C177.138,228.742 179.22,235 179.22,235C179.22,235 172.279,239.868 169.17,240.2C166.062,240.533 167.782,247.849 166.062,246.761C164.341,245.703 164.492,253.321 164.492,253.321C164.492,253.321 159.814,253.382 162.651,256.193C165.488,259.005 164.673,261.061 162.651,262.784C160.629,264.507 160.508,264.87 157.37,262.784C154.261,260.698 150.428,264.507 149.734,260.366C149.04,256.193 145.569,262.784 139.684,262.784C133.799,262.784 139.684,256.193 139.684,256.193C139.684,256.193 137.963,253.049 134.131,250.54C130.328,248.031 128.577,254.44 125.801,253.231C123.024,252.021 122.692,248.877 121.455,251.658C121.123,252.384 119.282,252.928 116.686,253.352C117.32,255.135 115.056,256.193 115.388,258.491C115.72,260.819 112.37,266.473 109.835,267.41C107.3,268.347 110.982,271.219 109.503,271.703C107.994,272.156 104.312,272.035 105.459,273.91C106.606,275.754 106.968,278.777 105.006,279.231C103.045,279.684 103.618,282.708 100.841,285.005C100.66,285.157 99.996,285.731 98.97,286.668L100.087,287.847L101.717,288.633C106.817,290.478 114.362,290.478 112.974,292.957C111.586,295.436 110.831,298.671 114.362,300.666C117.652,302.51 120.64,298.701 121.455,311.036C125.71,308.799 130.69,312.729 132.32,314.271C133.949,315.813 138.084,314.815 139.322,317.355C140.559,319.894 148.346,318.897 148.346,318.897C147.199,322.525 152.118,330.234 152.118,330.234C150.036,340.574 162.742,350.157 167.54,352.304C172.309,354.451 176.564,358.078 180.337,361.495C184.109,364.881 190.206,363.581 190.206,363.581C192.892,370.232 205.236,369.9 205.236,369.9C206.564,372.016 212.328,372.318 215.437,372.318C217.278,371.774 218.696,371.714 218.847,372.742C219.3,375.765 219.541,383.565 222.318,377.821C225.095,372.046 226.241,363.49 228.324,363.49C230.406,363.49 233.877,361.858 235.96,355.146C235.96,355.146 236.895,354.934 237.77,355.206C238.706,352.969 242.539,355.569 243.022,353.271C243.625,350.49 244.41,351.276 246.1,349.795C247.79,348.313 244.259,346.771 244.863,343.688C245.466,340.604 248.243,341.843 249.179,341.36C250.114,340.906 250.869,339.032 250.416,336.734C249.963,334.406 248.726,334.739 250.114,333.801C251.503,332.864 251.503,330.869 250.416,329.327C249.33,327.785 248.273,324.55 250.114,322.827C251.955,321.104 251.201,310.976 248.726,310.038C246.251,309.101 246.734,308.043 246.251,306.168C245.768,304.294 243.022,305.08 243.022,303.387C243.022,301.694 244.712,298.459 247.036,298.459C249.36,298.459 249.963,297.371 250.265,296.313C250.567,295.224 255.185,294.468 255.969,293.38C256.754,292.292 259.832,294.922 261.372,294.468C262.911,294.015 261.372,289.54 261.372,289.54C261.372,289.54 266.623,289.087 268.162,288.452C269.701,287.817 268.615,283.826 269.852,281.65C270.154,281.136 270.667,280.894 271.271,280.894C268.705,279.896 266.653,280.591 266.653,280.591Z" fill="#F4ADF4" stroke="#666666" stroke-width="0.127" stroke-miterlimit="10" stroke-linecap="round" stroke-linejoin="round"/>
<path d="M285.033,153.008C284.701,149.532 278.454,152.313 277.397,146.418C276.371,140.522 273.927,139.827 265.959,139.131C263.937,138.95 261.734,137.469 259.591,135.322C258.323,135.685 257.116,135.866 255.909,135.413C252.197,134.022 253.585,135.655 248.967,134.022C244.35,132.39 236.473,125.224 233.696,124.075C233.545,124.015 233.394,123.955 233.274,123.894C233.183,124.982 233.032,125.738 232.791,125.95C231.402,127.099 232.791,130.576 230.708,132.42C228.626,134.264 220.99,137.983 220.296,139.373C219.602,140.764 214.29,140.764 214.29,143.787C214.29,146.811 216.131,153.734 214.29,156.999C212.449,160.234 210.819,166.946 208.737,167.883C206.654,168.82 205.507,171.118 205.96,172.297C206.413,173.446 207.137,177.86 205.87,180.853C204.602,183.846 199.501,186.174 201.795,187.807C204.119,189.439 205.96,187.565 204.572,191.737C203.184,195.909 200.618,196.362 201.192,200.293C201.795,204.223 200.618,206.067 203.636,208.395C206.654,210.723 204.089,212.174 206.654,214.563C209.22,216.951 202.882,222.514 207.107,221.819C211.091,221.153 216.161,236.361 216.342,237.812C216.674,240.593 216.342,242.679 221.895,243.375C227.449,244.07 227.087,242.679 232.308,242.347C237.499,242.014 235.024,236.451 237.831,236.089C238.404,236.028 240.577,235.696 243.656,235.182C243.595,234.819 243.716,234.516 244.108,234.335C246.191,233.307 247.217,222.877 247.217,222.877C247.217,222.877 251.714,224.267 256.573,222.877C261.432,221.486 256.905,218.705 254.49,214.593C252.076,210.481 251.714,211.418 247.217,209.695C242.72,207.972 249.631,204.828 253.796,204.495C257.961,204.163 256.211,194.76 260.376,187.141C264.541,179.492 266.623,185.055 266.11,183.665C265.597,182.274 265.929,180.188 266.11,178.102C266.291,176.016 269.732,170.12 269.732,170.12C274.923,172.539 278.393,166.311 280.868,164.92C283.403,163.408 285.395,156.455 285.033,153.008Z" fill="#F1DEB3" stroke="#666666" stroke-width="0.127" stroke-miterlimit="10" stroke-linecap="round" stroke-linejoin="round"/>
<path d="M233.726,124.045C233.636,124.015 233.575,123.984 233.485,123.954C233.545,123.984 233.636,124.015 233.726,124.045ZM70.178,166.19C70.118,166.25 70.087,166.28 70.027,166.341C70.057,166.31 70.118,166.25 70.178,166.19ZM69.997,166.401C69.967,166.462 69.906,166.492 69.876,166.552C69.906,166.492 69.936,166.431 69.997,166.401ZM69.876,166.552C69.846,166.613 69.816,166.673 69.786,166.703C69.786,166.673 69.846,166.613 69.876,166.552ZM69.665,166.945C69.635,167.006 69.635,167.066 69.605,167.127C69.635,167.036 69.635,166.976 69.665,166.945ZM69.514,167.52C69.514,167.58 69.484,167.641 69.484,167.701C69.484,167.641 69.484,167.58 69.514,167.52ZM205.326,229.135C198.445,229.195 198.687,232.914 198.687,232.914C198.687,232.914 194.522,232.914 192.801,234.304C191.081,235.695 187.61,232.914 182.389,230.828C177.198,228.742 179.281,235 179.281,235C179.281,235 172.339,239.867 169.23,240.2C166.122,240.532 167.842,247.849 166.122,246.76C164.402,245.702 164.552,253.321 164.552,253.321C164.552,253.321 159.874,253.381 162.711,256.193C165.548,259.005 164.734,261.061 162.711,262.784C160.689,264.507 160.569,264.87 157.43,262.784C154.321,260.698 150.488,264.507 149.794,260.365C149.1,256.193 145.629,262.784 139.744,262.784C133.859,262.784 139.744,256.193 139.744,256.193C139.744,256.193 138.024,253.049 134.191,250.54C130.388,248.03 128.638,254.44 125.861,253.23C123.084,252.021 122.752,248.877 121.515,251.658C121.183,252.384 119.342,252.928 116.747,253.351L116.747,253.321C116.052,251.507 111.555,250.509 109.926,248.423C108.296,246.337 109.805,245.309 107.602,242.528C105.399,239.746 108.175,238.718 109.684,235.937C111.193,233.156 116.264,233.035 115.932,230.374C115.6,227.714 105.761,221.818 98.608,221.818C91.455,221.818 90.64,213.262 91.908,209.211C93.176,205.16 92.934,207.941 97.099,206.097C101.264,204.253 105.308,199.96 106.244,197.42C107.179,194.881 100.479,196.15 92.602,195.334C84.755,194.518 82.552,190.346 79.655,188.683C76.757,187.02 74.675,189.65 73.407,188.139C72.14,186.627 69.122,188.26 67.281,188.592C65.44,188.925 64.504,187.897 64.504,185.932C64.504,183.967 59.313,183.392 58.498,180.732C57.683,178.071 61.969,179.704 65.077,179.794C68.186,179.915 66.466,177.376 64.625,174.806C62.784,172.236 66.345,171.45 68.216,170.301C69.393,169.576 69.363,168.669 69.484,167.762C71.144,168.457 72.834,168.427 73.769,166.492C76.093,161.624 77.24,157.936 81.616,158.389C86.023,158.843 91.093,154.852 92.481,158.359C93.87,161.866 91.546,168.034 96.646,168.185C101.747,168.336 102.894,167.641 105.882,163.952C108.9,160.234 110.288,156.999 111.887,160.234C113.517,163.469 115.6,162.773 115.811,165.343C116.052,167.883 110.046,170.906 113.276,171.813C116.505,172.75 117.893,166.945 120.217,170.18C122.541,173.415 123.447,172.508 127.37,178.736C131.294,184.994 128.064,189.408 134.07,189.408C140.076,189.408 139.382,184.541 146.565,184.057C153.748,183.573 154.412,186.597 155.8,181.034C157.188,175.471 157.43,174.564 159.724,171.087C162.047,167.61 162.047,148.171 166.182,147.687C170.317,147.203 174.512,146.992 176.353,144.664C178.194,142.336 179.582,143.726 181.665,143.515C183.747,143.273 188.365,137.952 190.9,140.491C193.435,143.031 201.071,142.124 204.089,139.796C207.107,137.468 207.107,138.405 208.707,136.319C210.306,134.233 204.089,122.654 205.93,119.873C207.771,117.091 209.401,108.052 213.777,111.77C218.183,115.489 219.541,109.563 222.559,110.893C225.577,112.224 229.712,115.247 231.583,118.966C233.334,122.442 231.161,122.866 233.243,123.863C233.153,124.952 233.002,125.708 232.76,125.919C231.372,127.068 232.76,130.545 230.678,132.389C228.596,134.233 220.96,137.952 220.266,139.343C219.572,140.733 214.26,140.733 214.26,143.757C214.26,146.78 216.101,153.703 214.26,156.968C212.419,160.203 210.789,166.915 208.707,167.852C206.624,168.79 205.477,171.087 205.93,172.266C206.383,173.415 207.107,177.829 205.839,180.822C204.572,183.815 199.471,186.143 201.765,187.776C204.089,189.408 205.93,187.534 204.542,191.706C203.153,195.878 200.588,196.332 201.161,200.262C201.765,204.192 200.588,206.037 203.606,208.365C206.624,210.692 204.059,212.144 206.624,214.532C209.189,216.92 202.852,222.483 207.077,221.788C210.065,221.274 211.694,226.293 211.694,226.293C211.694,226.293 212.208,229.074 205.326,229.135Z" fill="#B4FF98" stroke="#666666" stroke-width="0.127" stroke-miterlimit="10" stroke-linecap="round" stroke-linejoin="round"/>
<path d="M93.424,251.029L93.541,250.899L93.827,250.562L94.268,250.316L94.346,250.186L94.424,249.966L94.424,249.785L94.554,249.642L94.632,249.461L94.788,249.461L95.073,249.603L95.255,249.914L95.281,250.277L95.709,250.51L95.956,250.692L96.177,250.977L96.437,251.586L96.541,251.974L96.606,252.441L96.671,252.881L96.891,253.076L97.008,253.412L97.125,253.736L97.164,254.086L97.008,254.397L96.788,254.604L96.502,254.656L96.45,254.889L96.32,255.213L96.047,255.537L95.749,255.796L95.347,255.951L94.892,256.068L94.151,256.068L93.606,256.003L92.982,255.796L92.619,255.614L92.359,255.432L92.177,255.291L91.995,255.07L91.866,254.889L91.918,254.617L92.138,254.487L92.138,254.293L92.229,253.982L92.411,253.619L92.58,253.321L92.749,253.075L92.917,252.92L93.047,252.829L93.047,252.609L93.086,252.35L93.125,251.935L93.203,251.586L93.307,251.262L93.424,251.029Z" fill="#FACD00" stroke="#666666" stroke-width="0.041" stroke-miterlimit="3.999327"/>
<path d="M97.213,253.83L97.213,253.822C97.187,253.561 97.105,253.309 96.973,253.082C96.936,253.019 96.894,252.96 96.847,252.904C96.83,252.885 96.809,252.868 96.786,252.857C96.763,252.846 96.737,252.839 96.711,252.838C96.71,252.822 96.708,252.806 96.707,252.79C96.697,252.692 96.687,252.596 96.676,252.503C96.673,252.479 96.671,252.457 96.668,252.433L96.662,252.383C96.662,252.378 96.661,252.373 96.659,252.368C96.658,252.357 96.657,252.346 96.655,252.335C96.655,252.329 96.654,252.322 96.652,252.316C96.651,252.306 96.65,252.296 96.648,252.286C96.647,252.275 96.647,252.273 96.645,252.266C96.644,252.26 96.643,252.247 96.641,252.237C96.639,252.227 96.639,252.225 96.638,252.219C96.637,252.208 96.635,252.198 96.633,252.188C96.633,252.182 96.632,252.177 96.631,252.171C96.629,252.159 96.627,252.147 96.625,252.136C96.624,252.132 96.624,252.129 96.623,252.125C96.62,252.11 96.618,252.095 96.615,252.079L96.612,252.067C96.61,252.056 96.609,252.045 96.606,252.034L96.604,252.019C96.602,252.01 96.6,252 96.598,251.991C96.596,251.982 96.596,251.98 96.595,251.974L96.589,251.948C96.588,251.942 96.587,251.936 96.586,251.931C96.585,251.925 96.582,251.913 96.58,251.905C96.577,251.897 96.577,251.894 96.576,251.889L96.569,251.86C96.569,251.855 96.568,251.851 96.567,251.847C96.564,251.833 96.56,251.819 96.557,251.806L96.555,251.799C96.552,251.788 96.55,251.777 96.547,251.766L96.543,251.751C96.541,251.743 96.539,251.734 96.537,251.725L96.532,251.71C96.53,251.702 96.528,251.695 96.526,251.686C96.524,251.678 96.523,251.676 96.521,251.671C96.52,251.666 96.517,251.656 96.515,251.647C96.513,251.639 96.512,251.637 96.511,251.632L96.503,251.608L96.499,251.594C96.496,251.584 96.493,251.574 96.49,251.564C96.49,251.561 96.489,251.559 96.488,251.557C96.484,251.545 96.48,251.533 96.477,251.521L96.473,251.509C96.47,251.501 96.467,251.493 96.465,251.485L96.46,251.471C96.457,251.464 96.455,251.457 96.452,251.45L96.447,251.436C96.446,251.431 96.442,251.422 96.44,251.415L96.435,251.401L96.427,251.38C96.426,251.376 96.424,251.371 96.422,251.367C96.421,251.362 96.416,251.352 96.413,251.343C96.413,251.34 96.411,251.337 96.41,251.334C96.405,251.323 96.401,251.312 96.397,251.302L96.393,251.292L96.384,251.269L96.378,251.257L96.37,251.238C96.368,251.233 96.366,251.229 96.364,251.225L96.356,251.207C96.354,251.202 96.352,251.198 96.351,251.194L96.342,251.176C96.34,251.172 96.339,251.168 96.336,251.164C96.334,251.159 96.33,251.151 96.328,251.145C96.325,251.138 96.324,251.138 96.323,251.134L96.309,251.108C96.308,251.106 96.307,251.104 96.306,251.102L96.294,251.078L96.289,251.067L96.28,251.05L96.273,251.038L96.265,251.023L96.258,251.012C96.255,251.007 96.253,251.001 96.25,250.996L96.243,250.985C96.24,250.98 96.237,250.975 96.234,250.97L96.228,250.959L96.217,250.939C96.217,250.937 96.215,250.934 96.213,250.932C96.208,250.924 96.203,250.916 96.198,250.906L96.192,250.898L96.182,250.882L96.176,250.873L96.166,250.858L96.16,250.848L96.151,250.835L96.144,250.825L96.134,250.811L96.127,250.802C96.124,250.797 96.12,250.792 96.117,250.788C96.114,250.783 96.113,250.782 96.111,250.779L96.096,250.758L96.091,250.752L96.08,250.736L96.072,250.728L96.063,250.716L96.055,250.706L96.046,250.695L96.038,250.686L96.029,250.675L96.022,250.666L96.01,250.655L96.003,250.647L95.991,250.633L95.985,250.627L95.97,250.61L95.963,250.603L95.952,250.592L95.945,250.585L95.935,250.575L95.927,250.567L95.917,250.558L95.91,250.55L95.9,250.541L95.892,250.534L95.881,250.523L95.874,250.518L95.857,250.502L95.851,250.497L95.832,250.481L95.822,250.472L95.813,250.466L95.804,250.458L95.796,250.452L95.785,250.444L95.777,250.437L95.766,250.43L95.759,250.424L95.744,250.413L95.737,250.408L95.724,250.399L95.716,250.394L95.706,250.387L95.698,250.381L95.687,250.374L95.679,250.369L95.669,250.363L95.661,250.358L95.65,250.351L95.642,250.347L95.63,250.339L95.624,250.336L95.606,250.326L95.599,250.322L95.588,250.316L95.58,250.312L95.569,250.306L95.561,250.302L95.551,250.297L95.543,250.292L95.532,250.287L95.512,250.275L95.505,250.272L95.487,250.264L95.481,250.261L95.469,250.256L95.461,250.252L95.45,250.248L95.442,250.245L95.432,250.241L95.424,250.237L95.413,250.233L95.405,250.23L95.394,250.226L95.387,250.224L95.367,250.217L95.35,250.211L95.346,250.21C95.365,250.106 95.362,249.999 95.338,249.895C95.313,249.792 95.266,249.695 95.202,249.611C95.084,249.456 94.918,249.357 94.778,249.357C94.744,249.356 94.71,249.362 94.679,249.376C94.648,249.389 94.62,249.409 94.597,249.434C94.555,249.48 94.531,249.538 94.529,249.6C94.483,249.606 94.44,249.625 94.405,249.656C94.37,249.686 94.345,249.726 94.334,249.771C94.324,249.805 94.322,249.841 94.328,249.876C94.334,249.911 94.348,249.944 94.368,249.973C94.312,250.025 94.262,250.106 94.256,250.236C94.174,250.265 94.095,250.299 94.018,250.34C94.001,250.349 93.983,250.359 93.966,250.369L93.922,250.395C93.912,250.402 93.901,250.409 93.89,250.416C93.858,250.437 93.827,250.459 93.795,250.483C93.785,250.491 93.774,250.5 93.765,250.509C93.745,250.525 93.726,250.541 93.707,250.558C93.687,250.575 93.663,250.597 93.641,250.618C93.611,250.649 93.581,250.68 93.552,250.713C93.538,250.728 93.525,250.746 93.511,250.762C93.497,250.779 93.489,250.788 93.479,250.803L93.461,250.826C93.444,250.848 93.428,250.872 93.411,250.896C93.395,250.92 93.376,250.95 93.359,250.978C93.347,250.999 93.335,251.02 93.323,251.041C93.314,251.057 93.305,251.074 93.297,251.09C93.282,251.121 93.265,251.153 93.25,251.187C93.22,251.249 93.193,251.315 93.168,251.385C93.153,251.428 93.137,251.472 93.124,251.518C93.115,251.549 93.105,251.581 93.097,251.613C93.088,251.645 93.081,251.675 93.073,251.706C93.071,251.716 93.068,251.726 93.066,251.737C93.058,251.771 93.051,251.806 93.044,251.841C93.038,251.871 93.033,251.902 93.027,251.934C93.017,251.997 93.008,252.063 92.999,252.13C92.99,252.208 92.983,252.289 92.977,252.373C92.974,252.42 92.972,252.466 92.969,252.511C92.967,252.555 92.965,252.6 92.963,252.644C92.962,252.688 92.96,252.73 92.959,252.772L92.959,252.8C92.918,252.8 92.795,252.8 92.465,253.337C92.275,253.649 92.115,253.982 92.05,254.206C92.024,254.292 92,254.401 92.025,254.481L92.023,254.481L92.01,254.483L92.004,254.484L91.992,254.487L91.987,254.489L91.974,254.492L91.97,254.493C91.964,254.495 91.959,254.497 91.954,254.499L91.951,254.499L91.938,254.504L91.933,254.506L91.923,254.511L91.918,254.513L91.908,254.519L91.904,254.521L91.891,254.529C91.886,254.532 91.882,254.536 91.877,254.539L91.874,254.542L91.865,254.549L91.861,254.553L91.849,254.565C91.847,254.568 91.844,254.571 91.841,254.574L91.839,254.578C91.836,254.582 91.832,254.586 91.829,254.591L91.827,254.594C91.825,254.598 91.822,254.602 91.82,254.606C91.82,254.608 91.819,254.609 91.817,254.611C91.815,254.614 91.814,254.618 91.812,254.622C91.812,254.624 91.811,254.626 91.81,254.628L91.802,254.643L91.8,254.648C91.798,254.654 91.795,254.66 91.794,254.667C91.792,254.675 91.79,254.682 91.789,254.69C91.788,254.698 91.787,254.707 91.787,254.715C91.79,254.794 91.81,254.872 91.846,254.943C91.869,254.992 91.895,255.039 91.924,255.084C91.937,255.104 91.95,255.124 91.966,255.144C92.06,255.272 92.171,255.387 92.295,255.487C92.333,255.518 92.373,255.549 92.416,255.579C92.49,255.632 92.568,255.681 92.648,255.726C92.927,255.881 93.28,256.013 93.713,256.084C93.782,256.095 93.854,256.105 93.929,256.112C94.094,256.13 94.26,256.139 94.427,256.139C94.621,256.139 94.816,256.124 95.008,256.093C95.077,256.081 95.142,256.067 95.206,256.052C95.616,255.95 95.923,255.765 96.15,255.523C96.16,255.513 96.169,255.502 96.179,255.492C96.194,255.474 96.209,255.457 96.224,255.44L96.246,255.411C96.269,255.383 96.29,255.354 96.311,255.324C96.323,255.307 96.334,255.291 96.345,255.274C96.391,255.202 96.433,255.128 96.469,255.051C96.479,255.032 96.488,255.012 96.495,254.992C96.501,254.98 96.506,254.966 96.512,254.954C96.523,254.927 96.534,254.899 96.545,254.871C96.552,254.851 96.56,254.831 96.567,254.81C96.573,254.792 96.579,254.773 96.585,254.755L96.602,254.703C96.61,254.704 96.619,254.705 96.628,254.705C96.649,254.705 96.669,254.701 96.689,254.694C96.796,254.659 96.894,254.603 96.978,254.529C97.072,254.445 97.141,254.337 97.178,254.217C97.216,254.091 97.228,253.96 97.213,253.83ZM94.686,250.024C94.688,250.024 94.689,250.023 94.69,250.022C94.69,250.022 94.691,250.022 94.691,250.021C94.691,250.021 94.691,250.02 94.691,250.019C94.692,250.018 94.692,250.017 94.691,250.016C94.691,250.016 94.691,250.015 94.69,250.015C94.69,250.014 94.689,250.014 94.689,250.014C94.572,249.959 94.452,249.907 94.478,249.812C94.491,249.766 94.53,249.747 94.58,249.747C94.657,249.753 94.732,249.775 94.8,249.813C94.801,249.813 94.802,249.813 94.802,249.813C94.803,249.813 94.804,249.812 94.805,249.812C94.806,249.811 94.806,249.81 94.807,249.809C94.807,249.809 94.807,249.807 94.807,249.807C94.807,249.806 94.806,249.805 94.806,249.804C94.721,249.717 94.629,249.626 94.709,249.534C94.718,249.525 94.729,249.518 94.741,249.514C94.753,249.509 94.766,249.507 94.778,249.508C94.941,249.508 95.261,249.779 95.199,250.173L95.192,250.171L95.181,250.169L95.174,250.168L95.163,250.165L95.144,250.162L95.138,250.162L95.121,250.159L95.118,250.159L95.103,250.157L95.097,250.157L95.086,250.156L95.061,250.156L95.051,250.154L95.027,250.154L95.013,250.153L94.787,250.153L94.754,250.155L94.752,250.155L94.721,250.157L94.718,250.157L94.689,250.159L94.685,250.159L94.657,250.162L94.654,250.162L94.626,250.165L94.624,250.165L94.595,250.169L94.556,250.175L94.517,250.181L94.506,250.184C94.48,250.188 94.456,250.193 94.431,250.199L94.418,250.202L94.413,250.203C94.443,250.044 94.573,250.03 94.686,250.024ZM92.268,254.042C92.374,253.794 92.501,253.556 92.647,253.329C92.818,253.064 92.918,252.974 92.952,252.956C92.954,252.954 92.956,252.953 92.958,252.953C93,252.955 93.054,253.002 93.102,253.077C93.103,253.08 93.105,253.083 93.106,253.085C93.246,253.317 93.3,253.728 93.147,254.015C93.119,254.069 93.084,254.12 93.043,254.167C92.945,254.277 92.82,254.36 92.68,254.41C92.648,254.421 92.618,254.43 92.593,254.437C92.391,254.49 92.225,254.467 92.167,254.435C92.162,254.422 92.145,254.336 92.268,254.042ZM96.575,254.023C96.558,254.224 96.522,254.424 96.469,254.619C96.454,254.672 96.438,254.724 96.421,254.774C96.344,255.001 96.225,255.21 96.068,255.391C95.895,255.582 95.679,255.73 95.438,255.822C95.156,255.932 94.817,255.988 94.429,255.988C94.243,255.989 94.057,255.977 93.872,255.954C93.799,255.945 93.726,255.934 93.656,255.921C93.394,255.874 93.14,255.795 92.899,255.684C92.57,255.531 92.291,255.318 92.111,255.083C91.945,254.867 91.934,254.729 91.941,254.707C91.954,254.658 91.983,254.621 92.212,254.621L92.336,254.621C92.506,254.621 92.635,254.597 92.741,254.548C92.973,254.466 93.165,254.301 93.282,254.086C93.466,253.739 93.397,253.271 93.238,253.007C93.204,252.949 93.159,252.898 93.106,252.856C93.11,252.709 93.116,252.551 93.127,252.383C93.173,251.66 93.372,251.113 93.719,250.754C93.885,250.583 94.089,250.454 94.314,250.377C94.413,250.344 94.514,250.32 94.617,250.305C94.697,250.294 94.778,250.288 94.858,250.288C95.007,250.287 95.154,250.309 95.296,250.353C95.485,250.414 95.658,250.517 95.801,250.654C96.175,251.008 96.416,251.613 96.517,252.451C96.533,252.588 96.55,252.737 96.563,252.895C96.594,253.25 96.61,253.645 96.575,254.023ZM97.067,253.973C97.067,254.001 97.065,254.029 97.061,254.056C97.057,254.082 97.052,254.108 97.045,254.134C97.031,254.195 97.006,254.252 96.972,254.305C96.959,254.326 96.945,254.345 96.929,254.364C96.921,254.373 96.913,254.382 96.904,254.39C96.895,254.397 96.886,254.407 96.878,254.416C96.87,254.424 96.86,254.431 96.852,254.438C96.825,254.46 96.796,254.479 96.766,254.496C96.746,254.507 96.726,254.517 96.706,254.525C96.686,254.534 96.666,254.542 96.645,254.549C96.651,254.525 96.656,254.5 96.662,254.476C96.675,254.414 96.686,254.351 96.696,254.288C96.698,254.274 96.701,254.26 96.702,254.245C96.708,254.209 96.713,254.172 96.717,254.135C96.72,254.11 96.722,254.084 96.725,254.058C96.728,254.032 96.73,254.006 96.732,253.98C96.735,253.941 96.737,253.902 96.74,253.864C96.741,253.837 96.743,253.812 96.743,253.786C96.744,253.76 96.745,253.734 96.746,253.708L96.746,253.436C96.746,253.41 96.746,253.384 96.744,253.358C96.742,253.332 96.742,253.306 96.741,253.28C96.74,253.254 96.739,253.228 96.737,253.202C96.734,253.132 96.729,253.062 96.724,252.993L96.727,252.993C96.729,252.995 96.731,252.996 96.732,252.998C96.752,253.021 96.771,253.045 96.789,253.071C96.803,253.091 96.817,253.112 96.83,253.133L96.843,253.154C96.873,253.205 96.9,253.257 96.923,253.31C96.935,253.336 96.947,253.364 96.957,253.392C96.973,253.434 96.988,253.478 97.001,253.522C97.014,253.565 97.025,253.61 97.035,253.654C97.047,253.714 97.057,253.775 97.063,253.836C97.065,253.851 97.066,253.866 97.067,253.881C97.068,253.914 97.068,253.944 97.067,253.973Z" fill="#939393"/>
<path d="M94.236,256.638C94.202,256.637 94.17,256.626 94.142,256.607C94.115,256.588 94.094,256.56 94.082,256.529L93.929,256.114C93.855,256.106 93.783,256.097 93.713,256.085C93.784,256.282 93.871,256.524 93.896,256.589C93.904,256.611 93.896,256.638 93.856,256.638L93.62,256.638C93.62,256.638 93.548,256.795 93.743,256.789C94.279,256.773 94.221,257.202 94.39,257.121C94.553,257.043 94.243,256.789 94.248,256.789C94.866,256.867 94.668,256.637 94.668,256.637C94.668,256.637 94.354,256.638 94.236,256.638Z" fill="#939393"/>
<path d="M95.395,256.426C95.38,256.426 95.365,256.422 95.353,256.413C95.34,256.405 95.33,256.393 95.325,256.379C95.296,256.308 95.243,256.157 95.205,256.053C95.142,256.068 95.075,256.082 95.008,256.094C95.048,256.206 95.105,256.362 95.11,256.377C95.121,256.411 95.113,256.424 95.052,256.424L94.822,256.424C94.822,256.424 94.755,256.572 95.009,256.572C95.527,256.572 95.419,257.006 95.619,256.895C95.746,256.824 95.51,256.624 95.491,256.6C95.48,256.586 95.488,256.568 95.517,256.572C96.046,256.652 95.915,256.424 95.915,256.424C95.915,256.424 95.55,256.426 95.395,256.426Z" fill="#939393"/>
<path d="M94.592,252.008C94.615,252.003 94.636,251.991 94.651,251.974C94.667,251.957 94.678,251.935 94.682,251.912C94.685,251.889 94.682,251.866 94.672,251.845C94.663,251.824 94.647,251.806 94.627,251.793C94.607,251.781 94.584,251.775 94.561,251.776C94.538,251.777 94.515,251.785 94.496,251.798C94.477,251.812 94.463,251.831 94.455,251.852C94.447,251.874 94.445,251.898 94.45,251.921C94.454,251.936 94.46,251.95 94.47,251.963C94.479,251.975 94.49,251.986 94.503,251.994C94.516,252.002 94.531,252.007 94.546,252.01C94.562,252.012 94.577,252.012 94.592,252.008Z" fill="#939393"/>
<path d="M95.85,251.993C95.87,251.98 95.885,251.963 95.895,251.941C95.905,251.92 95.908,251.897 95.904,251.874C95.9,251.851 95.89,251.829 95.874,251.812C95.858,251.795 95.838,251.783 95.815,251.778C95.792,251.773 95.768,251.774 95.747,251.782C95.725,251.79 95.706,251.805 95.692,251.824C95.679,251.843 95.671,251.865 95.67,251.888C95.669,251.912 95.675,251.935 95.688,251.954C95.696,251.968 95.706,251.979 95.719,251.988C95.731,251.997 95.746,252.004 95.761,252.007C95.776,252.011 95.792,252.011 95.807,252.009C95.822,252.006 95.837,252.001 95.85,251.993Z" fill="#939393"/>
<path d="M95.513,252.295L95.22,252.173C95.21,252.17 95.2,252.168 95.19,252.168C95.179,252.168 95.169,252.17 95.159,252.173L94.865,252.295C94.856,252.297 94.847,252.303 94.841,252.31C94.835,252.317 94.831,252.327 94.83,252.336C94.829,252.346 94.83,252.356 94.835,252.364C94.839,252.373 94.846,252.38 94.854,252.385L95.152,252.577C95.163,252.585 95.176,252.589 95.189,252.588C95.202,252.589 95.215,252.585 95.226,252.577L95.524,252.385C95.53,252.381 95.536,252.376 95.54,252.37C95.544,252.365 95.547,252.358 95.548,252.351C95.549,252.343 95.549,252.336 95.547,252.329C95.545,252.322 95.542,252.316 95.537,252.31C95.531,252.303 95.523,252.297 95.513,252.295Z" fill="#939393"/>
</svg>
