<svg width="564" height="508" viewBox="0 0 564 508" fill="none" xmlns="http://www.w3.org/2000/svg" xmlns:xlink="http://www.w3.org/1999/xlink">
<path d="M386.473,491.65C382.429,498.029 386.715,494.553 388.556,498.936C390.398,503.35 393.656,506.706 398.032,506.464C402.44,506.223 408.656,493.374 408.656,493.374C404.038,490.018 408.988,485.846 411.674,484.576C414.3,483.306 412.158,481.008 412.368,470.548C408.324,468.371 408.716,467.373 409.018,460.601C409.472,450.171 403.254,446.694 400.478,444.608C397.7,442.522 396.554,444.608 396.312,448.78C396.072,452.952 391.694,454.343 386.835,454.554C381.976,454.796 379.894,465.892 379.894,465.892C372.047,453.859 373.888,468.673 369.029,465.892C364.17,463.11 366.494,461.024 366.252,458.092C366.011,455.159 362.329,456.399 356.776,457.789C351.222,459.18 350.317,455.703 348.235,452.015C346.152,448.296 340.388,449.929 334.834,453.406C329.281,456.882 301.304,451.773 298.769,448.78C296.233,445.757 289.986,448.538 290.801,445.757C291.646,442.975 281.868,433.24 276.556,431.154C271.244,429.068 274.715,423.747 277.008,420.966C279.332,418.184 278.638,418.184 273.085,417.791C267.532,417.398 255.973,409.144 255.067,413.317C254.132,417.489 251.355,416.552 248.609,414.707C245.832,412.863 248.367,416.793 244.685,417.731C240.973,418.668 239.373,410.324 236.355,407.3C233.337,404.277 232.19,407.3 230.591,405.91C228.991,404.519 218.338,400.589 215.108,399.893C213.509,399.561 209.766,394.421 206.356,389.312C205.541,389.07 204.062,388.707 202.915,388.707C201.286,388.707 200.44,393.877 200.44,393.877C200.44,393.877 199.354,395.419 195.974,393.968C192.594,392.486 190.209,395.056 188.64,397.747C187.101,400.437 192.865,401.677 194.736,402.765C196.608,403.854 195.732,405.305 195.732,406.484C195.732,407.633 198.569,407.633 198.569,407.633C200.41,412.5 206.959,410.021 208.982,410.021C210.973,410.021 212.452,411.865 212.754,413.498C213.056,415.131 215.833,419.454 217.523,421.6C219.213,423.747 219.062,425.924 218.76,429.159C218.458,432.394 224.615,432.091 225.913,431.698C227.211,431.305 227.15,429.159 228.84,428.856C230.53,428.554 232.16,430.005 234.303,435.115C236.446,440.224 241.003,436.415 241.546,435.266C242.09,434.117 237.472,433.875 237.623,432.484C237.774,431.094 240.158,431.094 240.158,431.094C237.381,428.01 240.158,425.077 241.637,428.07C243.116,431.094 247.039,431.003 247.039,431.003C249.725,436.626 253.136,434.177 255.58,435.477C258.055,436.777 257.814,438.561 257.12,440.405C256.425,442.25 263.216,445.878 263.216,445.878C263.216,445.878 259.896,447.722 261.918,450.654C263.94,453.587 267.773,450.957 271.304,451.44C274.835,451.894 284.161,464.32 286.183,464.32C288.205,464.32 289.564,463.775 291.103,464.078C292.642,464.38 296.264,461.448 296.264,461.448C296.415,462.748 299.583,465.862 301.666,467.706C303.748,469.55 302.36,472.331 301.062,475.355C299.765,478.378 302.541,477.985 302.149,479.98C301.757,481.976 307.249,482.127 308.457,481.462C309.694,480.766 311.233,482.157 313.708,480.857C316.183,479.557 316.726,479.92 319.804,479.92C322.883,479.92 323.577,478.529 322.491,476.745C321.404,474.962 326.384,475.113 326.384,475.113C329.16,476.957 329.16,479.738 329.16,479.738C325.448,482.641 328.225,483.457 331.575,482.52C334.925,481.583 338.969,479.618 342.108,480.192C345.216,480.766 345.911,482.611 347.993,480.887C350.076,479.164 350.89,479.376 352.611,477.864C354.331,476.352 354.935,475.536 357.108,475.536C359.311,475.536 363.355,472.059 362.993,473.208C362.631,474.357 371.081,479.345 370.055,479.587C369.029,479.829 368.335,482.127 368.908,484.787C369.482,487.448 367.188,486.994 366.132,488.96C365.105,490.925 369.844,489.776 369.844,489.776C369.844,489.776 370.779,486.541 370.779,485.846C370.779,485.15 372.5,484.001 373.677,482.732C374.824,481.462 380.498,484.939 381.765,486.541C383.033,488.173 376.906,488.385 376.906,488.385C376.574,492.194 382.339,491.287 384.18,490.471C386.021,489.806 386.473,491.65 386.473,491.65Z" fill="#FED6FB" stroke="#666666" stroke-width="0.127" stroke-miterlimit="10" stroke-linecap="round" stroke-linejoin="round"/>
<path d="M449.702,391.73C448.314,391.276 447.499,389.402 445.416,386.741C443.334,384.081 445.99,383.718 445.869,381.179C445.748,378.639 445.054,378.851 442.519,377.944C441.402,377.52 440.799,376.765 440.497,375.767C436.966,376.19 434.883,376.553 430.96,375.555C426.553,374.467 415.477,366.818 414.33,363.795C413.184,360.771 406.483,363.099 404.16,365.185C401.836,367.271 387.047,374.92 385.206,372.834C383.365,370.748 377.812,368.662 376.182,372.139C374.552,375.616 371.776,375.374 372.017,377.702C372.259,380.03 366.011,383.023 368.999,385.351C371.987,387.679 371.082,391.367 374.1,391.367C377.118,391.367 379.2,390.914 379.653,393C380.106,395.086 375.247,393.242 375.247,397.172C375.247,401.102 372.017,402.281 369.241,397.172C366.464,392.062 362.299,400.044 364.14,400.558C365.981,401.102 367.611,400.407 367.611,403.4C367.611,406.423 367.611,411.049 371.776,410.112C375.941,409.174 381.252,411.956 382.641,414.042C384.029,416.128 385.659,420.3 385.659,420.3C385.659,420.3 384.965,420.3 382.429,424.926C379.894,429.551 374.583,427.465 377.57,431.184C380.588,434.903 382.671,439.528 384.271,438.137C385.9,436.747 392.359,436.323 392.6,438.379C392.842,440.435 390.276,439.74 391.906,443.458C392.238,444.184 393.325,447.298 395.075,451.833C395.8,451.047 396.222,450.049 396.313,448.81C396.554,444.638 397.701,442.551 400.478,444.638C403.254,446.724 409.502,450.2 409.019,460.631C408.717,467.433 408.324,468.401 412.369,470.577C412.369,470.487 412.369,470.426 412.369,470.336C412.61,459.694 421.513,454.705 423.928,452.982C426.342,451.259 423.686,435.386 423.686,435.386C423.686,435.386 428.304,432.363 429.813,429.128C431.322,425.893 432.469,426.105 432.469,426.105C432.469,426.105 432.469,426.105 434.551,428.312C436.634,430.519 439.652,430.851 441.372,427.495C443.092,424.14 442.76,427.163 444.843,425.53C446.925,423.898 443.907,421.358 442.881,418.456C441.855,415.553 441.251,415.553 442.308,413.467C443.364,411.381 447.408,415.1 449.943,416.007C452.479,416.914 450.275,413.467 449.823,408.237C449.37,403.037 450.517,398.502 451.905,395.388C453.293,392.335 451.09,392.214 449.702,391.73Z" fill="#AEC0FF" stroke="#666666" stroke-width="0.127" stroke-miterlimit="10" stroke-linecap="round" stroke-linejoin="round"/>
<path d="M115.422,300.547C111.891,298.552 112.646,295.287 114.034,292.838C115.422,290.389 107.877,290.359 102.777,288.515C97.676,286.671 100.151,283.405 100.936,279.415C101.72,275.394 97.706,283.284 95.533,282.952C93.39,282.65 93.058,278.175 92.757,276.149C92.455,274.124 85.966,272.612 85.966,272.612C86.902,269.528 82.103,267.684 80.866,267.2C79.628,266.747 81.167,265.205 80.866,262.424C80.564,259.642 75.946,254.865 73.32,253.203C70.695,251.54 71.479,246.068 70.393,242.198C69.306,238.328 62.365,233.854 62.365,233.854C62.576,230.014 60.614,228.986 58.381,229.016L58.291,229.53C54.82,231.495 53.552,238.207 53.552,238.207C46.973,245.614 47.426,248.758 47.426,248.758C43.713,251.419 42.325,256.407 41.661,256.74C40.967,257.072 38.764,255.349 36.923,254.321C35.082,253.293 34.025,258.614 32.879,260.338C31.732,262.061 31.249,264.268 32.758,266.021C34.267,267.745 34.267,269.045 32.879,269.831C31.49,270.647 28.593,272.733 27.446,274.124C26.299,275.515 29.649,281.198 29.649,281.198C25.605,282.015 25.847,285.008 25.847,285.008C27.808,285.824 28.05,290.208 28.05,290.208C28.05,290.208 23.311,293.231 22.617,296.799C21.923,300.366 27.235,300.396 27.235,300.396C27.235,306.534 31.852,311.038 32.909,313.245C33.935,315.452 31.792,318.234 31.792,318.234C33.663,319.262 33.392,324.008 33.392,324.008C30.857,325.731 32.003,327.606 32.456,327.485C32.909,327.364 38.13,329.118 38.13,329.118C37.194,335.497 44.709,335.95 44.709,335.255C44.709,334.56 46.55,333.743 48.18,332.594C49.81,331.446 52.798,329.239 52.798,329.239C56.842,331.657 57.415,328.664 57.536,327.273C57.657,325.883 61.278,326.699 61.278,326.699L63.995,329.359C60.645,330.055 61.339,330.871 61.339,330.871L65.051,333.773L67.586,334.59C64.93,339.215 67.254,340.274 67.707,343.176C68.16,346.078 66.077,345.957 64.93,345.836C63.783,345.716 62.727,345.957 63.089,348.95C63.451,351.943 70.242,351.157 70.242,351.157C67.828,352.669 68.522,360.076 70.242,357.748C71.962,355.42 77.998,357.748 77.998,357.748C77.998,357.748 77.184,350.462 79.628,348.829C82.043,347.197 83.914,348.709 85.181,348.829C86.449,348.95 85.181,343.055 85.181,343.055C89.105,343.871 89.346,339.457 89.346,339.457C91.187,339.911 93.511,337.825 93.753,335.739C93.994,333.653 96.409,333.32 98.612,333.199C100.815,333.078 103.803,325.913 105.433,324.855C107.062,323.797 109.145,327.273 109.477,327.273C109.809,327.273 111.891,324.159 114.909,321.952C117.927,319.745 122.545,310.948 122.545,310.948C122.545,310.948 122.575,310.948 122.575,310.917C121.73,298.582 118.712,302.392 115.422,300.547Z" fill="#D5BB81" stroke="#666666" stroke-width="0.127" stroke-miterlimit="10" stroke-linecap="round" stroke-linejoin="round"/>
<path d="M33.241,215.744C33.935,216.681 38.794,218.283 43.532,221.428C48.271,224.542 48.723,222.818 50.353,222.818C51.983,222.818 58.683,227.686 58.683,227.686L58.441,229.016C60.675,228.986 62.637,230.014 62.425,233.853C62.425,233.853 69.367,238.328 70.453,242.198C71.54,246.068 70.755,251.54 73.381,253.203C76.007,254.865 80.624,259.642 80.926,262.424C81.228,265.205 79.689,266.747 80.926,267.2C82.163,267.654 86.932,269.528 86.026,272.612C86.026,272.612 92.485,274.154 92.817,276.149C93.149,278.145 93.421,282.619 95.594,282.952C97.737,283.254 101.751,275.394 100.996,279.415C100.453,282.256 99.064,284.705 100.091,286.549C101.117,285.612 101.751,285.038 101.962,284.887C104.738,282.559 104.165,279.566 106.127,279.112C108.088,278.659 107.756,275.635 106.579,273.791C105.433,271.947 109.115,272.068 110.624,271.584C112.133,271.131 108.42,268.228 110.956,267.291C113.491,266.354 116.841,260.7 116.509,258.372C116.177,256.044 118.471,255.017 117.776,253.203C117.082,251.389 112.585,250.391 110.956,248.305C109.326,246.219 110.835,245.191 108.632,242.409C106.428,239.628 109.205,238.6 110.714,235.819C112.223,233.037 117.293,232.916 116.962,230.256C116.63,227.595 106.791,221.7 99.638,221.7C92.485,221.7 91.67,213.144 92.938,209.093C94.205,205.041 93.964,207.823 98.129,205.979C102.294,204.134 106.338,199.841 107.274,197.302C108.209,194.762 101.509,196.032 93.632,195.216C85.785,194.399 83.582,190.227 80.685,188.564C77.787,186.902 75.705,189.532 74.437,188.02C73.17,186.509 70.152,188.141 68.31,188.474C66.469,188.806 65.534,187.778 65.534,185.813C65.534,183.848 60.343,183.274 59.528,180.613C58.713,177.953 62.999,179.585 66.107,179.676C69.216,179.797 67.496,177.257 65.655,174.688C63.814,172.118 67.375,171.332 69.246,170.183C71.087,169.034 69.94,167.401 71.208,166.132C72.475,164.862 70.182,156.517 70.272,154.099C70.393,151.68 75.131,155.822 75.011,153.524C74.89,151.196 80.775,149.473 80.775,146.813C80.775,144.152 81.59,139.043 81.59,137.561C81.59,136.05 78.693,132.24 75.916,130.608C73.139,128.975 73.381,127.494 73.381,125.166C73.381,122.838 66.681,118.908 66.681,117.517C66.681,116.126 64.84,108.84 64.84,106.754C64.84,104.668 70.725,104.668 71.661,104.094C72.596,103.519 68.19,97.261 65.896,95.538C63.572,93.814 62.425,91.486 61.399,92.182C60.373,92.877 56.993,92.998 54.82,93.814C52.647,94.631 53.884,96.596 51.711,96.928C49.508,97.261 47.999,97.17 45.343,96.928C42.687,96.687 42.235,99.831 39.337,99.71C37.798,99.649 35.987,101.191 34.629,102.673C34.84,102.945 35.052,103.035 35.202,102.824C35.776,102.008 38.432,102.824 38.432,102.824C38.432,102.824 39.579,103.64 38.311,105.152C37.043,106.663 37.285,113.133 37.285,113.133C37.285,113.133 37.285,113.133 36.017,113.133C34.75,113.133 33.361,108.961 31.038,109.898C28.714,110.836 30.343,119.512 30.343,119.512C25.364,120.903 25.846,125.982 24.217,128.189C22.587,130.396 21.44,130.275 20.867,132.815C20.293,135.354 25.273,136.534 28.14,138.378C31.038,140.222 28.472,142.187 28.472,145.906C28.472,149.624 33.905,149.503 35.293,149.957C36.681,150.41 36.561,152.164 35.414,152.98C34.267,153.797 36.108,158.997 36.108,158.997C32.879,157.969 32.879,161.204 32.879,161.204C28.593,158.18 27.567,160.508 27.567,160.508C34.961,171.846 40.152,168.157 40.152,168.157C43.261,176.622 35.655,180.553 35.655,180.553C23.885,182.064 18.452,188.988 18.452,188.988C15.344,188.413 11.058,191.316 6.772,191.406C2.487,191.527 0.887,193.251 0.887,195.699C0.887,198.148 10.726,196.395 10.937,197.09C11.179,197.785 14.982,199.872 17.185,200.204C19.388,200.537 20.987,208.428 22.557,209.002C24.096,209.607 32.547,214.807 33.241,215.744Z" fill="#FFA599" stroke="#666666" stroke-width="0.127" stroke-miterlimit="10" stroke-linecap="round" stroke-linejoin="round"/>
<path d="M294.121,74.375C294.935,72.652 292.975,69.628 291.585,68.48C290.197,67.331 291.707,65.94 290.801,64.428C289.895,62.917 286.969,63.491 284.071,62.1C281.173,60.71 280.721,61.284 280.479,60.468C280.237,59.652 277.461,57.807 274.715,54.572C271.939,51.337 274.263,47.982 274.263,46.107C274.263,44.263 273.235,44.142 272.421,41.602C271.607,39.063 266.535,39.184 264.907,38.126C263.277,37.098 267.231,33.712 267.563,31.867C267.893,30.023 263.065,27.695 263.277,24.914C263.487,22.132 260.047,20.046 257.843,19.018C255.641,17.991 255.641,14.725 254.253,11.853C252.865,8.951 248.487,8.951 248.487,8.135C248.487,7.318 247.915,3.267 245.469,2.118C243.055,0.969 242.361,1.302 240.731,0.153C239.101,-0.996 240.611,1.876 239.011,1.876C237.411,1.876 237.503,11.249 237.503,11.249C231.708,12.186 230.772,23.312 230.772,23.312C227.422,23.312 222.563,26.214 220.722,27.242C218.881,28.27 220.601,42.419 220.601,43.9C220.601,45.412 223.257,46.228 224.525,46.682C225.792,47.135 227.18,51.67 228.569,52.819C229.957,53.968 232.855,55.147 232.613,57.112C232.371,59.077 232.281,61.284 233.881,61.979C235.511,62.675 235.601,67.3 233.881,66.968C232.161,66.635 229.716,67.784 227.995,68.48C226.275,69.175 227.06,68.812 222.442,67.331C217.824,65.819 221.507,69.175 218.156,69.296C214.806,69.417 214.565,68.48 213.297,65.94C212.03,63.4 211.336,65.607 209.827,64.912C208.318,64.217 206.477,61.103 206.024,59.017C205.571,56.931 203.609,56.235 203.489,52.547C203.368,48.858 200.38,51.398 197.604,52.093C194.827,52.789 185.35,51.761 184.656,50.944C183.962,50.128 181.879,50.491 181.306,51.519C180.733,52.547 177.956,52.456 177.594,50.703C177.262,48.979 175.27,47.468 173.097,46.289C170.924,45.109 169.173,44.777 166.638,45.261C164.103,45.744 164.556,47.921 163.047,50.128C161.538,52.335 150.462,51.398 150.462,51.398C149.647,47.468 144.456,42.147 143.067,41.209C141.679,40.272 139.717,42.147 138.208,42.147C136.699,42.147 136.005,40.514 134.617,37.4C133.228,34.286 128.49,34.981 122.484,35.314C116.478,35.647 120.402,39.244 120.402,39.244C114.034,36.463 110.472,43.295 110.472,43.295C110.472,43.295 108.39,43.054 105.975,43.295C103.561,43.537 105.855,44.807 103.893,45.623C101.931,46.44 100.784,43.9 97.193,44.354C93.601,44.807 95.231,48.072 95.231,48.072C92.213,47.951 90.131,51.428 89.346,52.698C88.561,53.968 86.69,52.698 81.71,52.698C76.731,52.698 76.731,59.531 75.704,58.593C74.678,57.656 72.234,57.656 68.552,56.386C64.87,55.117 63.119,57.777 59.196,58.019C55.272,58.261 55.393,63.128 53.763,64.852C52.133,66.575 50.051,67.18 49.96,70.535C49.84,73.891 46.248,75.282 44.981,76.219C43.713,77.156 39.88,74.254 42.657,78.638C45.433,83.052 43.804,87.889 43.109,89.28C42.415,90.671 44.498,91.245 43.351,93.331C42.204,95.417 40.454,94.359 40.454,94.359C40.001,91.819 37.677,92.273 35.353,91.94C33.029,91.608 31.188,96.445 32.244,98.199C33.089,99.589 34.629,102.733 34.568,102.673C35.957,101.192 37.767,99.65 39.276,99.71C42.174,99.831 42.627,96.687 45.282,96.929C47.938,97.171 49.447,97.261 51.65,96.929C53.854,96.596 52.586,94.631 54.759,93.815C56.932,92.998 60.312,92.878 61.338,92.182C62.365,91.487 63.542,93.815 65.835,95.538C68.159,97.261 72.535,103.52 71.6,104.094C70.664,104.668 64.779,104.668 64.779,106.754C64.779,108.841 66.62,116.127 66.62,117.517C66.62,118.908 73.32,122.838 73.32,125.166C73.32,127.494 73.079,128.976 75.855,130.608C78.632,132.241 81.529,136.05 81.529,137.562C81.529,139.074 80.714,144.153 80.714,146.813C80.714,149.474 74.829,151.227 74.95,153.525C75.071,155.853 70.332,151.681 70.212,154.099C70.091,156.518 72.415,164.862 71.147,166.132C70.664,166.616 70.544,167.13 70.453,167.644C72.113,168.339 73.803,168.309 74.739,166.374C77.063,161.506 78.209,157.818 82.586,158.271C86.992,158.725 92.062,154.734 93.451,158.241C94.839,161.748 92.515,167.916 97.615,168.067C102.716,168.218 103.863,167.523 106.851,163.834C109.869,160.116 111.257,156.881 112.857,160.116C114.486,163.351 116.569,162.655 116.78,165.225C117.022,167.765 111.016,170.788 114.245,171.695C117.474,172.632 118.863,166.827 121.186,170.062C123.51,173.297 124.416,172.39 128.339,178.618C132.263,184.876 129.033,189.29 135.039,189.29C141.045,189.29 140.351,184.423 147.534,183.939C154.717,183.455 155.381,186.479 156.769,180.916C158.158,175.353 158.399,174.446 160.693,170.969C163.017,167.492 163.017,148.053 167.151,147.569C171.286,147.085 175.481,146.874 177.322,144.546C179.163,142.218 180.552,143.608 182.634,143.397C184.716,143.155 189.334,137.834 191.869,140.374C194.404,142.913 202.04,142.006 205.058,139.678C208.076,137.35 208.076,138.287 209.676,136.201C211.275,134.115 205.058,122.536 206.899,119.755C208.74,116.973 210.37,107.934 214.746,111.652C219.152,115.371 220.511,109.445 223.529,110.775C226.547,112.106 230.681,115.129 232.553,118.848C234.393,122.566 231.858,122.778 234.635,123.957C237.411,125.106 245.259,132.301 249.907,133.904C254.555,135.506 253.135,133.904 256.847,135.294C260.561,136.685 264.483,132.059 269.553,134.357C274.655,136.685 279.967,135.294 280.871,130.88C281.807,126.466 267.471,121.629 270.459,117.215C273.477,112.801 277.159,99.378 272.541,98.471C272.541,98.471 270.459,93.603 278.789,93.603C278.789,93.603 278.547,83.173 283.195,81.782C286.153,80.905 291.585,80.966 295.419,77.368C295.297,75.705 294.121,74.375 294.121,74.375Z" fill="#FFC1F1" stroke="#666666" stroke-width="0.127" stroke-miterlimit="10" stroke-linecap="round" stroke-linejoin="round"/>
<path d="M562.064,227.082C562.396,217.347 553.976,217.347 550.173,216.44C546.37,215.503 544.167,215.866 540.817,214.233C537.467,212.601 532.487,212.843 525.546,210.182C518.604,207.522 516.763,199.631 515.707,196.638C514.681,193.614 503.574,190.621 503.454,190.047C503.333,189.472 499.047,186.449 494.792,184.937C490.506,183.426 487.518,176.714 485.194,177.289C482.87,177.863 482.538,184.696 481.15,183.879C479.762,183.063 477.8,184.817 476.653,184.575C475.506,184.333 473.424,180.282 471.462,178.982C469.5,177.682 463.615,177.047 460.929,175.535C458.273,174.023 460.235,172.058 457.458,171.242C454.682,170.426 455.135,172.633 453.535,172.633C451.905,172.633 445.326,168.34 444.3,166.616C443.274,164.893 438.173,163.502 436.453,163.502C434.732,163.502 435.517,165.709 434.038,164.893C432.559,164.077 430.688,164.651 429.209,163.865C427.731,163.049 425.256,161.205 425.045,159.572C424.803,157.939 425.859,158.756 426.674,156.791C427.489,154.825 424.833,156.458 424.954,155.158C425.075,153.888 423.234,146.36 422.298,144.516C421.363,142.672 424.26,141.735 427.036,139.648C429.813,137.562 430.145,128.644 427.036,128.644C423.928,128.644 420.457,127.011 420.457,127.011C421.604,123.655 420.216,119.937 418.133,118.546C416.051,117.155 413.395,116.218 413.516,117.85C413.636,119.483 411.101,123.171 410.045,123.625C409.139,124.018 408.174,123.051 406.604,122.416C405.156,124.32 403.918,126.527 404.401,128.16C405.427,131.637 407.298,136.837 407.298,136.837C407.298,136.837 398.516,136.837 395.739,135.113C392.963,133.39 384.301,140.314 386.383,142.4C388.466,144.486 392.269,143.79 393.325,148.99C394.351,154.191 398.184,160.449 398.184,160.449C398.184,160.449 386.021,168.098 389.16,172.965C392.268,177.833 392.963,183.728 395.407,187.568C397.822,191.377 397.822,202.866 392.993,205.284C392.993,205.284 393.687,208.761 392.299,212.238C390.91,215.715 401.655,215.715 403.043,220.582C404.431,225.45 404.311,229.259 408.174,231.013C412.037,232.766 411.373,236.213 410.316,241.08C409.29,245.948 405.457,245.464 405.82,253.173C406.182,260.883 404.793,265.055 406.152,270.255C407.54,275.455 406.393,277.541 411.131,280.685C415.87,283.83 422.449,289.362 419.672,291.448C416.896,293.534 409.834,291.116 408.174,294.562C408.174,294.562 400.96,291.478 397.49,293.534C394.019,295.59 396.464,299.762 393.687,300.82C390.91,301.848 394.713,302.211 396.464,304.993C398.184,307.774 401.323,311.583 401.323,311.583C401.323,311.583 394.049,320.622 390.91,319.232C387.802,317.842 385.025,319.564 384.331,316.814C383.637,314.032 383.305,310.555 380.528,312.309C377.752,314.032 378.808,317.872 375.669,317.872C372.53,317.872 367.701,313.367 365.951,314.758C364.231,316.149 364.231,316.149 364.231,316.149C364.231,316.149 369.09,317.872 366.313,322.738C366.313,322.738 371.504,319.262 373.949,322.738C376.363,326.216 376.031,329.692 382.279,331.416C388.526,333.14 389.552,336.616 389.552,338.702C389.552,340.788 391.242,340.426 392.299,342.874C393.355,345.292 392.329,356.72 397.852,358.142C403.405,359.562 403.948,355.542 408.174,363.1C410.83,362.162 413.757,361.952 414.481,363.826C415.628,366.848 426.735,374.468 431.111,375.586C435.034,376.584 437.117,376.222 440.648,375.798C440.286,374.588 440.346,373.046 440.346,371.534C440.346,368.784 443.123,368.482 445.658,368.482C448.193,368.482 450.396,371.958 451.422,371.504C452.448,371.052 451.422,368.966 450.396,365.246C449.37,361.528 450.396,365.246 452.479,364.218C454.561,363.19 458.485,359.11 460.326,357.144C462.167,355.178 458.002,352.73 458.605,352.518C459.179,352.276 467.629,344.054 469.923,340.364C472.247,336.646 469.35,333.078 467.146,330.992C464.943,328.906 465.758,327.878 464.128,325.218C462.499,322.558 460.778,318.838 460.778,316.058C460.778,313.276 463.434,313.639 465.275,313.035C467.116,312.43 466.664,311.311 466.664,308.046C466.664,304.781 472.79,304.69 477.649,305.144C482.508,305.597 482.267,306.293 483.776,306.293C485.285,306.293 484.229,305.96 483.897,302.695C483.565,299.43 485.285,300.034 486.794,299.581C488.303,299.127 488.424,297.737 489.691,295.772C490.959,293.806 492.589,294.955 493.162,293.353C493.735,291.72 493.283,290.239 494.43,288.727C495.576,287.216 494.671,280.504 494.188,279.234C493.735,277.964 500.888,273.792 506.562,274.367C512.236,274.941 513.383,272.039 515.013,269.741C516.642,267.413 516.401,267.322 518.725,267.322C521.049,267.322 522.196,265.357 523.825,263.392C525.455,261.427 524.067,254.836 525.787,254.231C527.507,253.627 530.194,251.329 530.194,250.634C530.194,249.938 535.626,249.938 537.256,248.548C538.885,247.157 537.588,245.524 540.726,244.134C543.835,242.743 540.485,235.91 540.485,235.91C543.594,235.094 546.612,226.417 547.306,226.417C548,226.417 549.147,228.382 549.147,230.831C549.147,233.25 552.95,234.308 554.7,233.371C556.42,232.433 558.986,233.038 561.762,232.917C564.359,232.766 562.064,227.082 562.064,227.082Z" fill="#FFA1A1" stroke="#666666" stroke-width="0.127" stroke-miterlimit="10" stroke-linecap="round" stroke-linejoin="round"/>
<path d="M364.05,316.148C364.05,316.148 364.05,316.148 365.77,314.757C367.49,313.367 372.349,317.871 375.488,317.871C378.627,317.871 377.571,314.062 380.347,312.308C383.124,310.585 383.456,314.032 384.15,316.813C384.844,319.595 387.621,317.841 390.729,319.232C393.838,320.622 401.142,311.583 401.142,311.583C401.142,311.583 398.033,307.773 396.283,304.992C394.562,302.211 390.729,301.878 393.506,300.82C396.283,299.792 393.838,295.62 397.309,293.534C400.779,291.478 407.993,294.562 407.993,294.562C409.653,291.085 416.715,293.534 419.491,291.448C422.268,289.362 415.689,283.799 410.95,280.685C406.212,277.571 407.359,275.485 405.97,270.254C404.582,265.054 405.97,260.882 405.638,253.173C405.306,245.463 409.109,245.947 410.135,241.08C411.162,236.212 411.856,232.735 407.993,231.012C404.129,229.289 404.25,225.449 402.862,220.582C401.836,216.954 395.619,216.047 393.083,214.384C390.458,216.379 388.164,218.193 387.5,218.858C385.659,220.702 383.788,215.14 380.558,218.858C377.329,222.577 373.617,226.023 368.999,222.577C364.382,219.13 359.764,221.882 359.764,221.882C359.764,221.882 363.235,231.375 361.847,233.461C360.458,235.547 361.605,234.156 359.764,236.938C357.923,239.719 357.682,239.477 356.987,242.047C356.293,244.587 353.064,243.891 354.452,247.61C355.841,251.328 356.082,252.719 356.293,256.075C356.505,259.431 357.923,257.556 361.394,261.033C364.865,264.51 365.8,266.143 363.718,268.894C361.635,271.675 352.4,275.847 349.623,274.457C346.847,273.066 345.459,274.215 340.599,273.308C335.74,272.401 337.581,268.198 332.511,270.98C327.411,273.761 324.664,274.094 321.405,274.729C318.175,275.394 317.481,273.308 314.705,272.371C311.928,271.433 310.087,270.738 310.087,270.738C310.087,270.738 304.534,284.645 302.24,284.645C302.24,284.645 307.793,284.403 307.793,289.271C307.793,294.138 304.775,298.069 310.811,302.241C316.817,306.413 318.658,306.866 321.918,309.89C325.147,312.913 324.694,315.453 332.783,314.304C340.871,313.155 342.259,309.769 349.654,314.576C357.018,319.383 366.645,321.59 366.706,321.59C368.124,317.599 364.05,316.148 364.05,316.148Z" fill="#FDD7E4" stroke="#666666" stroke-width="0.127" stroke-miterlimit="10" stroke-linecap="round" stroke-linejoin="round"/>
<path d="M391.906,443.49C390.276,439.771 392.842,440.466 392.6,438.411C392.359,436.355 385.9,436.778 384.271,438.169C382.641,439.559 380.558,434.934 377.57,431.215C374.552,427.496 379.894,429.583 382.429,424.957C384.965,420.331 385.659,420.331 385.659,420.331C385.659,420.331 384.029,416.159 382.641,414.073C381.252,411.987 375.941,409.206 371.776,410.143C367.611,411.08 367.611,406.424 367.611,403.431C367.611,400.408 365.981,401.103 364.14,400.589C362.299,400.045 366.464,392.094 369.241,397.203C372.017,402.312 375.247,401.133 375.247,397.203C375.247,393.273 380.106,395.117 379.653,393.031C379.2,390.945 377.118,391.398 374.1,391.398C371.082,391.398 372.017,387.68 368.999,385.382C367.188,383.991 368.728,382.359 370.176,380.756C365.951,380.091 364.321,378.519 361.182,377.703C356.595,376.524 356.052,381.21 353.275,379.759C350.498,378.307 350.951,376.342 346.334,374.71C341.716,373.077 343.798,367.756 343.316,363.584C342.863,359.412 337.762,361.256 336.857,359.865C335.921,358.475 332.239,356.388 330.61,358.475C328.98,360.561 323.668,360.319 320.197,359.865C316.726,359.412 317.873,363.796 316.968,366.577C316.032,369.358 311.203,370.296 310.721,367.726C310.268,365.186 305.862,364.703 305.862,364.703C304.232,358.414 291.978,349.677 284.584,349.677C277.19,349.677 270.248,363.584 265.389,365.186C260.53,366.819 251.295,362.344 251.295,362.344C250.601,358.354 240.43,357.084 240.43,357.084C239.977,354.302 236.959,354.998 236.959,354.998C234.877,361.709 231.406,363.342 229.324,363.342C227.241,363.342 226.094,371.898 223.318,377.673C220.541,383.447 220.3,375.617 219.847,372.593C219.696,371.565 218.247,371.626 216.437,372.17C217.644,372.17 218.459,372.14 218.459,372.14C218.459,372.14 217.674,374.831 216.527,375.859C215.38,376.856 216.074,378.338 215.984,379.94C215.893,381.573 213.992,383.326 211.125,385.563C208.288,387.801 207.111,386.561 207.111,386.561L206.809,389.494C206.809,389.494 206.598,389.433 206.236,389.312C209.646,394.452 213.388,399.561 214.988,399.894C218.217,400.589 228.871,404.519 230.471,405.91C232.07,407.301 233.247,404.278 236.235,407.301C239.253,410.324 240.853,418.638 244.565,417.731C248.277,416.794 245.712,412.864 248.488,414.708C251.265,416.552 254.042,417.489 254.947,413.317C255.883,409.145 267.442,417.399 272.965,417.792C278.518,418.185 279.212,418.185 276.888,420.966C274.564,423.748 271.124,429.069 276.435,431.155C281.747,433.241 291.496,442.976 290.681,445.757C289.836,448.539 296.083,445.757 298.648,448.78C301.184,451.804 329.161,456.883 334.714,453.406C340.267,449.929 346.032,448.297 348.114,452.015C350.197,455.734 351.132,459.181 356.655,457.79C362.209,456.399 365.891,455.16 366.132,458.092C366.373,461.025 364.05,463.111 368.909,465.892C373.768,468.674 371.927,453.86 379.774,465.892C379.774,465.892 381.856,454.767 386.715,454.555C390.126,454.404 393.294,453.648 394.954,451.804C393.325,447.36 392.238,444.246 391.906,443.49Z" fill="#F7F667" stroke="#666666" stroke-width="0.127" stroke-miterlimit="10" stroke-linecap="round" stroke-linejoin="round"/>
<path d="M240.491,357.114C240.491,357.114 250.662,358.384 251.356,362.375C251.356,362.375 260.592,366.819 265.451,365.217C270.31,363.584 277.251,349.707 284.645,349.707C292.04,349.707 304.293,358.445 305.923,364.733C305.923,364.733 310.329,365.217 310.782,367.756C311.235,370.296 316.094,369.389 317.029,366.607C317.965,363.826 316.788,359.442 320.258,359.896C323.729,360.349 329.041,360.591 330.671,358.505C332.301,356.419 335.983,358.505 336.918,359.896C337.854,361.286 342.924,359.442 343.377,363.614C343.829,367.787 341.747,373.108 346.395,374.74C351.012,376.373 350.56,378.338 353.336,379.789C356.113,381.24 356.656,376.554 361.244,377.733C364.382,378.55 366.012,380.122 370.237,380.787C371.203,379.729 372.139,378.701 372.048,377.763C371.807,375.436 374.583,375.677 376.213,372.201C377.843,368.724 383.366,370.81 385.237,372.896C387.108,374.982 401.867,367.333 404.191,365.247C405.036,364.491 406.514,363.675 408.054,363.131C403.828,355.572 403.255,359.593 397.732,358.172C392.179,356.752 393.235,345.354 392.179,342.905C391.122,340.486 389.432,340.819 389.432,338.733C389.432,336.647 388.406,333.17 382.159,331.447C375.911,329.723 376.274,326.246 373.829,322.77C373.557,322.467 373.014,321.591 371.656,321.258C369.905,320.835 368.276,321.651 368.004,321.832C367.582,321.984 367.159,322.195 366.706,322.467C366.374,322.649 366.193,322.77 366.193,322.77C366.495,322.225 366.767,321.5 366.736,321.621C366.676,321.621 357.049,319.384 349.684,314.607C342.29,309.8 340.902,313.156 332.814,314.335C324.725,315.484 325.178,312.944 321.949,309.921C318.719,306.897 316.848,306.444 310.842,302.272C304.836,298.099 307.824,294.169 307.824,289.302C307.824,284.434 302.271,284.676 302.271,284.676L300.762,287.306L297.653,286.52C297.653,286.52 293.79,290.058 292.553,287.911C291.315,285.764 287.935,280.504 287.935,280.504L284.223,280.504C284.223,280.504 285.46,284.525 285.008,286.067C284.555,287.609 284.223,288.546 284.223,288.546L278.821,289.483C278.821,289.483 278.67,283.769 277.734,283.164C276.799,282.56 272.181,279.446 270.943,281.623C269.706,283.769 270.793,287.79 269.253,288.425C267.714,289.06 262.463,289.513 262.463,289.513C262.463,289.513 264.002,293.988 262.463,294.441C260.924,294.895 257.845,292.295 257.06,293.353C256.276,294.441 251.658,295.197 251.356,296.286C251.055,297.374 250.421,298.432 248.127,298.432C245.803,298.432 244.113,301.667 244.113,303.36C244.113,305.053 246.89,304.297 247.342,306.142C247.795,307.986 247.342,309.074 249.817,310.011C252.292,310.949 253.046,321.077 251.205,322.8C249.364,324.523 250.421,327.758 251.507,329.3C252.594,330.842 252.594,332.837 251.205,333.774C249.817,334.712 251.055,334.379 251.507,336.707C251.96,339.035 251.205,340.879 250.27,341.333C249.334,341.786 246.558,340.547 245.954,343.661C245.35,346.775 248.881,348.286 247.191,349.768C245.501,351.249 244.717,350.463 244.113,353.245C243.6,355.542 239.767,352.912 238.862,355.179C239.586,355.331 240.28,355.875 240.491,357.114Z" fill="#D9F98D" stroke="#666666" stroke-width="0.127" stroke-miterlimit="10" stroke-linecap="round" stroke-linejoin="round"/>
<path d="M398.063,160.509C398.063,160.509 394.23,154.25 393.204,149.05C392.178,143.85 388.345,144.546 386.262,142.459C384.18,140.373 392.841,133.42 395.618,135.173C398.395,136.897 407.177,136.897 407.177,136.897C407.177,136.897 405.336,131.697 404.28,128.22C403.797,126.617 405.034,124.38 406.483,122.475C406.211,122.355 405.94,122.264 405.638,122.173C403.556,121.599 402.62,120.782 403.103,119.271C403.556,117.759 400.447,113.134 398.244,111.743C396.041,110.352 394.652,111.864 393.837,110.715C393.023,109.566 383.093,104.336 381.131,103.55C379.17,102.764 377.419,103.217 376.635,100.436C375.82,97.654 375.246,98.017 373.405,98.017C371.564,98.017 369.934,91.305 368.214,87.708C366.494,84.11 362.208,88.161 359.432,88.04C356.655,87.919 356.776,85.712 354.573,85.621C352.369,85.501 352.732,84.805 350.166,83.082C347.601,81.359 345.881,85.742 343.919,86.801C341.957,87.828 337.551,86.468 335.378,86.559C333.175,86.68 333.869,89.461 333.054,90.277C332.239,91.094 327.953,90.277 327.501,91.547C327.048,92.817 324.483,93.633 321.133,92.696C317.783,91.759 316.515,89.915 316.032,88.191C315.579,86.468 312.682,85.41 313.014,83.777C313.346,82.145 312.078,79.605 309.905,77.519C307.702,75.433 307.702,76.37 304.926,77.186C302.149,78.003 295.449,78.124 295.449,78.124C295.449,77.882 295.449,77.67 295.419,77.428C291.586,80.996 286.153,80.935 283.196,81.842C278.578,83.233 278.789,93.663 278.789,93.663C270.459,93.663 272.542,98.531 272.542,98.531C277.16,99.468 273.478,112.892 270.459,117.275C267.441,121.689 281.777,126.527 280.872,130.941C279.936,135.355 274.624,136.715 269.554,134.418C266.113,132.845 263.186,134.478 260.53,135.234C262.673,137.38 264.876,138.862 266.898,139.043C274.866,139.739 277.31,140.434 278.337,146.329C279.363,152.225 285.61,149.443 285.972,152.92C286.304,156.397 284.342,163.35 281.868,164.741C279.393,166.132 275.922,172.39 270.731,169.941C270.731,169.941 267.29,175.837 267.109,177.923C266.928,180.009 266.596,182.095 267.109,183.486C267.622,184.876 265.54,179.313 261.375,186.962C257.21,194.611 258.961,203.984 254.796,204.316C250.631,204.649 243.689,207.793 248.216,209.516C252.744,211.24 253.076,210.302 255.49,214.414C257.904,218.526 262.431,221.307 257.572,222.698C252.713,224.089 248.216,222.698 248.216,222.698C248.216,222.698 247.19,233.128 245.108,234.156C243.025,235.184 248.579,239.356 250.993,240.414C253.408,241.442 255.158,241.442 254.464,244.586C253.77,247.7 250.661,250.331 253.438,253.203C256.214,256.045 260.017,251.903 261.768,256.075C263.488,260.247 258.659,266.777 262.462,268.017C266.264,269.257 268.709,275.847 268.709,275.847L267.683,280.473C267.683,280.473 269.735,279.777 272.361,280.805C274.232,280.775 277.039,282.649 277.733,283.103C278.276,283.467 278.548,285.583 278.699,287.275C278.759,288.303 278.789,288.635 278.819,289.421L284.222,288.485C284.222,288.485 284.524,287.547 285.006,286.005C285.459,284.463 284.222,280.443 284.222,280.443L287.934,280.443C287.934,280.443 291.314,285.703 292.552,287.849C293.789,289.997 297.652,286.459 297.652,286.459L300.761,287.245L302.27,284.615L302.451,284.585C304.865,283.919 310.117,270.708 310.117,270.708C310.117,270.708 311.958,271.403 314.734,272.34C317.511,273.278 318.205,275.364 321.434,274.699C324.664,274.033 327.44,273.731 332.541,270.95C337.641,268.168 335.77,272.34 340.629,273.278C345.488,274.215 346.877,273.036 349.653,274.426C352.43,275.817 361.665,271.645 363.747,268.864C365.83,266.082 364.894,264.45 361.424,261.003C357.953,257.526 356.564,259.37 356.323,256.045C356.082,252.719 355.87,251.298 354.482,247.58C353.094,243.861 356.323,244.556 357.017,242.017C357.711,239.477 357.953,239.689 359.794,236.907C361.635,234.126 360.488,235.517 361.876,233.431C363.265,231.344 359.794,221.851 359.794,221.851C359.794,221.851 364.411,219.07 369.029,222.547C373.647,226.023 377.359,222.547 380.588,218.828C383.818,215.109 385.689,220.672 387.53,218.828C388.194,218.163 390.487,216.349 393.113,214.354C392.238,213.779 391.785,213.114 392.147,212.237C393.536,208.76 392.841,205.284 392.841,205.284C397.701,202.865 397.701,191.376 395.256,187.567C392.841,183.758 392.147,177.832 389.009,172.965C385.9,168.158 398.063,160.509 398.063,160.509Z" fill="#91F8F5" stroke="#666666" stroke-width="0.127" stroke-miterlimit="10" stroke-linecap="round" stroke-linejoin="round"/>
<path d="M267.653,280.473L268.68,275.848C268.68,275.848 266.265,269.257 262.432,268.017C258.599,266.778 263.458,260.217 261.738,256.075C260.018,251.903 256.185,256.075 253.408,253.203C250.632,250.361 253.74,247.731 254.434,244.587C255.128,241.473 253.408,241.473 250.964,240.415C248.972,239.568 244.897,236.605 244.626,235.003C241.547,235.487 239.374,235.819 238.801,235.91C235.994,236.242 238.469,241.805 233.278,242.168C228.087,242.501 228.419,243.891 222.866,243.196C217.312,242.501 217.674,240.415 217.312,237.633C216.98,234.852 212.695,226.175 212.695,226.175C212.695,226.175 213.147,228.956 206.266,229.017C199.385,229.077 199.626,232.796 199.626,232.796C199.626,232.796 195.462,232.796 193.741,234.187C192.021,235.577 188.55,232.796 183.329,230.71C178.138,228.624 180.22,234.882 180.22,234.882C180.22,234.882 173.279,239.749 170.17,240.082C167.062,240.415 168.782,247.731 167.062,246.643C165.341,245.584 165.492,253.203 165.492,253.203C165.492,253.203 160.814,253.264 163.651,256.075C166.488,258.887 165.673,260.943 163.651,262.666C161.629,264.389 161.508,264.752 158.37,262.666C155.261,260.58 151.428,264.389 150.734,260.247C150.04,256.075 146.569,262.666 140.684,262.666C134.799,262.666 140.684,256.075 140.684,256.075C140.684,256.075 138.964,252.931 135.131,250.422C131.328,247.912 129.578,254.322 126.801,253.112C124.024,251.903 123.692,248.759 122.455,251.54C122.123,252.266 120.282,252.81 117.686,253.233C118.32,255.017 116.057,256.075 116.389,258.373C116.721,260.701 113.371,266.354 110.835,267.292C108.3,268.229 111.982,271.101 110.503,271.585C108.994,272.038 105.312,271.917 106.459,273.792C107.606,275.636 107.968,278.659 106.007,279.113C104.045,279.566 104.618,282.59 101.842,284.887C101.661,285.038 100.997,285.613 99.97,286.55L101.087,287.729L102.717,288.515C107.817,290.359 115.363,290.359 113.974,292.838C112.586,295.318 111.831,298.553 115.363,300.548C118.652,302.392 121.64,298.583 122.455,310.918C126.71,308.681 131.69,312.611 133.32,314.153C134.95,315.695 139.084,314.697 140.322,317.236C141.559,319.776 149.346,318.778 149.346,318.778C148.199,322.406 153.118,330.116 153.118,330.116C151.036,340.455 163.742,350.039 168.541,352.186C173.309,354.332 177.565,357.96 181.337,361.377C185.11,364.763 191.206,363.463 191.206,363.463C193.892,370.114 206.236,369.781 206.236,369.781C207.564,371.898 213.328,372.2 216.437,372.2C218.278,371.656 219.697,371.595 219.847,372.623C220.3,375.647 220.542,383.447 223.318,377.702C226.095,371.928 227.242,363.372 229.324,363.372C231.407,363.372 234.877,361.739 236.96,355.028C236.96,355.028 237.895,354.816 238.771,355.088C239.706,352.851 243.539,355.451 244.022,353.153C244.626,350.372 245.41,351.158 247.1,349.676C248.791,348.195 245.259,346.653 245.863,343.569C246.467,340.486 249.243,341.725 250.179,341.241C251.114,340.788 251.869,338.914 251.416,336.616C250.964,334.288 249.726,334.62 251.114,333.683C252.503,332.746 252.503,330.751 251.416,329.209C250.33,327.667 249.273,324.432 251.114,322.709C252.955,320.985 252.201,310.857 249.726,309.92C247.251,308.983 247.734,307.925 247.251,306.05C246.768,304.176 244.022,304.962 244.022,303.269C244.022,301.576 245.712,298.341 248.036,298.341C250.36,298.341 250.964,297.252 251.265,296.194C251.567,295.106 256.185,294.35 256.969,293.262C257.754,292.173 260.833,294.804 262.372,294.35C263.911,293.897 262.372,289.422 262.372,289.422C262.372,289.422 267.623,288.969 269.162,288.334C270.702,287.699 269.615,283.708 270.853,281.531C271.154,281.017 271.667,280.776 272.271,280.776C269.706,279.778 267.653,280.473 267.653,280.473Z" fill="#F4ADF4" stroke="#666666" stroke-width="0.127" stroke-miterlimit="10" stroke-linecap="round" stroke-linejoin="round"/>
<path d="M286.033,152.89C285.701,149.413 279.454,152.194 278.397,146.299C277.371,140.404 274.926,139.708 266.959,139.013C264.937,138.831 262.734,137.35 260.591,135.203C259.323,135.566 258.116,135.748 256.909,135.294C253.196,133.903 254.585,135.536 249.967,133.903C245.35,132.271 237.472,125.106 234.696,123.957C234.545,123.896 234.394,123.836 234.273,123.775C234.183,124.864 234.032,125.62 233.79,125.831C232.402,126.98 233.79,130.457 231.708,132.301C229.626,134.145 221.99,137.864 221.296,139.255C220.601,140.645 215.29,140.645 215.29,143.669C215.29,146.692 217.131,153.615 215.29,156.881C213.449,160.115 211.819,166.827 209.736,167.764C207.654,168.702 206.507,170.999 206.96,172.178C207.413,173.327 208.137,177.741 206.869,180.734C205.602,183.727 200.501,186.055 202.795,187.688C205.119,189.32 206.96,187.446 205.572,191.618C204.183,195.79 201.618,196.244 202.191,200.174C202.795,204.104 201.618,205.949 204.636,208.277C207.654,210.604 205.089,212.056 207.654,214.444C210.219,216.832 203.881,222.395 208.107,221.7C212.091,221.035 217.161,236.242 217.342,237.693C217.674,240.475 217.342,242.561 222.895,243.256C228.448,243.951 228.086,242.561 233.308,242.228C238.499,241.896 236.024,236.333 238.831,235.97C239.404,235.91 241.577,235.577 244.655,235.063C244.595,234.7 244.716,234.398 245.108,234.216C247.191,233.189 248.217,222.758 248.217,222.758C248.217,222.758 252.714,224.149 257.573,222.758C262.432,221.367 257.905,218.586 255.49,214.474C253.076,210.363 252.714,211.3 248.217,209.577C243.72,207.853 250.631,204.709 254.796,204.377C258.961,204.044 257.211,194.641 261.375,187.023C265.54,179.374 267.623,184.937 267.11,183.546C266.597,182.155 266.929,180.069 267.11,177.983C267.291,175.897 270.731,170.002 270.731,170.002C275.922,172.42 279.393,166.192 281.868,164.802C284.403,163.29 286.395,156.336 286.033,152.89Z" fill="#F1DEB3" stroke="#666666" stroke-width="0.127" stroke-miterlimit="10" stroke-linecap="round" stroke-linejoin="round"/>
<path d="M234.726,123.927C234.635,123.897 234.575,123.867 234.485,123.836C234.545,123.867 234.635,123.897 234.726,123.927ZM71.178,166.072C71.117,166.132 71.087,166.163 71.027,166.223C71.057,166.193 71.117,166.132 71.178,166.072ZM70.997,166.284C70.966,166.344 70.906,166.374 70.876,166.435C70.906,166.374 70.936,166.314 70.997,166.284ZM70.876,166.435C70.846,166.495 70.816,166.556 70.785,166.586C70.785,166.556 70.846,166.495 70.876,166.435ZM70.665,166.828C70.634,166.888 70.634,166.949 70.604,167.009C70.634,166.918 70.634,166.858 70.665,166.828ZM70.514,167.402C70.514,167.463 70.484,167.523 70.484,167.584C70.484,167.523 70.484,167.463 70.514,167.402ZM206.326,229.017C199.445,229.077 199.686,232.796 199.686,232.796C199.686,232.796 195.522,232.796 193.801,234.187C192.081,235.578 188.61,232.796 183.389,230.71C178.198,228.624 180.28,234.882 180.28,234.882C180.28,234.882 173.339,239.75 170.23,240.082C167.122,240.415 168.842,247.731 167.122,246.643C165.401,245.585 165.552,253.203 165.552,253.203C165.552,253.203 160.874,253.264 163.711,256.075C166.548,258.887 165.733,260.943 163.711,262.666C161.689,264.39 161.568,264.752 158.43,262.666C155.321,260.58 151.488,264.39 150.794,260.248C150.1,256.075 146.629,262.666 140.744,262.666C134.859,262.666 140.744,256.075 140.744,256.075C140.744,256.075 139.024,252.931 135.191,250.422C131.388,247.913 129.637,254.322 126.861,253.113C124.084,251.903 123.752,248.759 122.515,251.541C122.183,252.266 120.342,252.81 117.746,253.234L117.746,253.203C117.052,251.389 112.555,250.392 110.926,248.306C109.296,246.22 110.805,245.192 108.602,242.41C106.398,239.629 109.175,238.601 110.684,235.819C112.193,233.038 117.263,232.917 116.931,230.257C116.599,227.596 106.761,221.701 99.608,221.701C92.455,221.701 91.64,213.145 92.908,209.093C94.175,205.042 93.934,207.824 98.099,205.979C102.264,204.135 106.308,199.842 107.243,197.303C108.179,194.763 101.479,196.033 93.602,195.216C85.755,194.4 83.552,190.228 80.654,188.565C77.757,186.902 75.675,189.533 74.407,188.021C73.139,186.509 70.121,188.142 68.28,188.475C66.439,188.807 65.504,187.779 65.504,185.814C65.504,183.849 60.313,183.274 59.498,180.614C58.683,177.953 62.969,179.586 66.077,179.677C69.186,179.798 67.465,177.258 65.624,174.688C63.783,172.119 67.345,171.332 69.216,170.184C70.393,169.458 70.363,168.551 70.484,167.644C72.143,168.339 73.834,168.309 74.769,166.374C77.093,161.507 78.24,157.818 82.616,158.272C87.023,158.725 92.093,154.735 93.481,158.242C94.869,161.749 92.546,167.916 97.646,168.067C102.747,168.218 103.893,167.523 106.881,163.835C109.899,160.116 111.288,156.881 112.887,160.116C114.517,163.351 116.599,162.656 116.811,165.225C117.052,167.765 111.046,170.788 114.276,171.695C117.505,172.632 118.893,166.828 121.217,170.063C123.541,173.298 124.446,172.391 128.37,178.619C132.293,184.877 129.064,189.291 135.07,189.291C141.076,189.291 140.382,184.423 147.565,183.94C154.748,183.456 155.412,186.479 156.8,180.916C158.188,175.353 158.43,174.446 160.723,170.97C163.047,167.493 163.047,148.053 167.182,147.569C171.317,147.086 175.512,146.874 177.353,144.546C179.194,142.218 180.582,143.609 182.665,143.397C184.747,143.155 189.365,137.834 191.9,140.374C194.435,142.913 202.071,142.006 205.089,139.679C208.107,137.351 208.107,138.288 209.706,136.202C211.306,134.116 205.089,122.536 206.93,119.755C208.771,116.974 210.401,107.934 214.777,111.653C219.183,115.371 220.541,109.446 223.559,110.776C226.577,112.106 230.712,115.129 232.583,118.848C234.334,122.325 232.161,122.748 234.243,123.746C234.153,124.834 234.002,125.59 233.76,125.802C232.372,126.95 233.76,130.427 231.678,132.271C229.595,134.116 221.96,137.834 221.266,139.225C220.571,140.616 215.26,140.616 215.26,143.639C215.26,146.662 217.101,153.586 215.26,156.851C213.419,160.086 211.789,166.798 209.706,167.735C207.624,168.672 206.477,170.97 206.93,172.149C207.382,173.298 208.107,177.712 206.839,180.705C205.572,183.698 200.471,186.026 202.765,187.658C205.089,189.291 206.93,187.416 205.541,191.589C204.153,195.761 201.588,196.214 202.161,200.144C202.765,204.075 201.588,205.919 204.606,208.247C207.624,210.575 205.059,212.026 207.624,214.414C210.189,216.803 203.851,222.366 208.077,221.67C211.064,221.156 212.694,226.175 212.694,226.175C212.694,226.175 213.207,228.957 206.326,229.017Z" fill="#B4FF98" stroke="#666666" stroke-width="0.127" stroke-miterlimit="10" stroke-linecap="round" stroke-linejoin="round"/>
<path d="M94.425,250.91L94.541,250.781L94.827,250.444L95.269,250.198L95.347,250.068L95.424,249.848L95.424,249.667L95.554,249.524L95.632,249.343L95.788,249.343L96.074,249.485L96.255,249.796L96.281,250.159L96.71,250.392L96.957,250.574L97.178,250.858L97.437,251.467L97.541,251.856L97.606,252.322L97.671,252.763L97.892,252.958L98.009,253.294L98.126,253.618L98.165,253.968L98.009,254.279L97.788,254.486L97.502,254.538L97.45,254.771L97.32,255.095L97.048,255.419L96.749,255.678L96.347,255.833L95.893,255.95L95.152,255.95L94.606,255.885L93.983,255.678L93.619,255.496L93.36,255.314L93.178,255.172L92.996,254.952L92.866,254.771L92.918,254.499L93.139,254.369L93.139,254.175L93.23,253.864L93.412,253.501L93.58,253.203L93.749,252.957L93.918,252.802L94.048,252.711L94.048,252.491L94.087,252.232L94.126,251.817L94.204,251.467L94.308,251.144L94.425,250.91Z" fill="#FACD00" stroke="#666666" stroke-width="0.041" stroke-miterlimit="3.999327"/>
<path d="M98.213,253.711L98.213,253.704C98.187,253.443 98.105,253.19 97.973,252.964C97.936,252.901 97.894,252.842 97.847,252.786C97.83,252.766 97.809,252.75 97.786,252.739C97.763,252.727 97.737,252.721 97.711,252.72C97.71,252.704 97.708,252.688 97.707,252.672C97.697,252.574 97.687,252.478 97.676,252.385C97.673,252.361 97.671,252.339 97.668,252.315L97.662,252.265C97.662,252.26 97.661,252.255 97.659,252.25C97.658,252.239 97.657,252.228 97.655,252.217C97.655,252.21 97.654,252.204 97.652,252.198C97.651,252.188 97.65,252.178 97.648,252.167C97.647,252.157 97.647,252.155 97.645,252.148C97.644,252.142 97.643,252.129 97.641,252.119C97.639,252.109 97.639,252.107 97.638,252.1C97.637,252.09 97.635,252.08 97.633,252.07C97.633,252.064 97.632,252.059 97.631,252.053C97.629,252.041 97.627,252.029 97.625,252.017C97.624,252.014 97.624,252.01 97.623,252.007C97.62,251.992 97.618,251.976 97.615,251.961L97.612,251.949C97.61,251.938 97.609,251.927 97.606,251.916L97.604,251.901C97.602,251.892 97.6,251.882 97.598,251.873C97.596,251.864 97.596,251.862 97.595,251.856L97.589,251.83C97.588,251.824 97.587,251.818 97.586,251.813C97.585,251.807 97.582,251.795 97.58,251.787C97.577,251.779 97.577,251.776 97.576,251.771L97.569,251.741C97.569,251.737 97.568,251.733 97.567,251.729C97.564,251.715 97.56,251.701 97.557,251.688L97.555,251.681C97.552,251.67 97.55,251.658 97.547,251.647L97.543,251.633C97.541,251.625 97.539,251.616 97.537,251.607L97.532,251.592C97.53,251.584 97.528,251.577 97.526,251.568C97.524,251.559 97.523,251.558 97.521,251.553C97.52,251.548 97.517,251.537 97.515,251.529C97.513,251.521 97.512,251.519 97.511,251.514L97.503,251.489L97.499,251.476C97.496,251.466 97.493,251.455 97.49,251.445C97.49,251.443 97.489,251.441 97.488,251.439C97.484,251.427 97.48,251.415 97.477,251.403L97.473,251.391C97.47,251.383 97.467,251.375 97.465,251.367L97.46,251.353C97.457,251.346 97.455,251.339 97.452,251.332L97.447,251.317C97.446,251.312 97.442,251.304 97.44,251.297L97.435,251.283L97.427,251.262C97.426,251.257 97.424,251.253 97.422,251.249C97.421,251.244 97.416,251.233 97.413,251.225C97.413,251.222 97.411,251.219 97.41,251.216C97.405,251.205 97.401,251.194 97.397,251.183L97.393,251.174L97.384,251.151L97.378,251.139L97.37,251.12C97.368,251.115 97.366,251.111 97.364,251.107L97.356,251.089C97.354,251.084 97.352,251.08 97.351,251.076L97.342,251.058C97.34,251.054 97.339,251.05 97.336,251.045C97.334,251.041 97.33,251.033 97.328,251.026C97.325,251.02 97.324,251.019 97.323,251.016L97.309,250.99C97.308,250.988 97.307,250.986 97.306,250.984L97.294,250.96L97.289,250.949L97.28,250.932L97.273,250.92L97.265,250.905L97.258,250.893C97.255,250.888 97.253,250.883 97.25,250.878L97.243,250.867C97.24,250.861 97.237,250.856 97.234,250.851L97.228,250.841L97.217,250.821C97.217,250.819 97.215,250.816 97.213,250.814C97.208,250.806 97.203,250.798 97.198,250.788L97.192,250.78L97.182,250.764L97.176,250.754L97.166,250.74L97.16,250.73L97.151,250.717L97.144,250.706L97.134,250.693L97.127,250.684C97.124,250.679 97.12,250.674 97.117,250.669C97.114,250.665 97.113,250.664 97.111,250.661L97.096,250.64L97.091,250.634L97.08,250.618L97.072,250.61L97.063,250.597L97.055,250.588L97.046,250.577L97.038,250.568L97.029,250.557L97.022,250.548L97.01,250.537L97.003,250.529L96.991,250.515L96.985,250.509L96.97,250.492L96.963,250.485L96.952,250.474L96.945,250.467L96.935,250.457L96.927,250.449L96.917,250.44L96.91,250.432L96.9,250.422L96.892,250.415L96.881,250.405L96.874,250.399L96.857,250.384L96.851,250.379L96.832,250.363L96.822,250.354L96.813,250.348L96.804,250.34L96.796,250.333L96.785,250.326L96.777,250.319L96.766,250.311L96.759,250.306L96.744,250.295L96.737,250.29L96.724,250.28L96.716,250.275L96.706,250.268L96.698,250.263L96.687,250.256L96.679,250.251L96.669,250.244L96.661,250.24L96.65,250.233L96.642,250.228L96.63,250.221L96.624,250.218L96.606,250.207L96.599,250.204L96.588,250.198L96.58,250.193L96.569,250.188L96.561,250.184L96.551,250.178L96.543,250.174L96.532,250.169L96.512,250.156L96.505,250.153L96.487,250.145L96.481,250.143L96.469,250.137L96.461,250.134L96.45,250.13L96.442,250.126L96.432,250.122L96.424,250.119L96.413,250.115L96.405,250.112L96.394,250.108L96.387,250.106L96.367,250.099L96.35,250.093L96.346,250.092C96.365,249.988 96.362,249.88 96.338,249.777C96.313,249.674 96.266,249.577 96.202,249.493C96.084,249.338 95.918,249.238 95.778,249.238C95.744,249.238 95.71,249.244 95.679,249.257C95.648,249.271 95.62,249.291 95.597,249.316C95.555,249.361 95.531,249.42 95.529,249.482C95.483,249.488 95.44,249.507 95.405,249.538C95.37,249.568 95.345,249.608 95.334,249.653C95.324,249.687 95.322,249.723 95.328,249.758C95.334,249.793 95.348,249.826 95.368,249.855C95.312,249.907 95.262,249.987 95.256,250.118C95.174,250.147 95.095,250.181 95.018,250.222C95.001,250.231 94.983,250.241 94.966,250.251L94.922,250.277C94.912,250.284 94.901,250.291 94.89,250.298C94.858,250.318 94.827,250.341 94.795,250.365C94.785,250.373 94.774,250.382 94.765,250.391C94.745,250.406 94.726,250.423 94.707,250.44C94.687,250.457 94.663,250.479 94.641,250.5C94.611,250.531 94.581,250.561 94.552,250.595C94.538,250.61 94.525,250.627 94.511,250.644C94.497,250.661 94.489,250.67 94.479,250.684L94.461,250.707C94.444,250.73 94.428,250.754 94.411,250.778C94.395,250.802 94.376,250.832 94.359,250.86C94.347,250.881 94.335,250.902 94.323,250.923C94.314,250.939 94.305,250.956 94.297,250.972C94.282,251.003 94.265,251.035 94.25,251.068C94.22,251.131 94.193,251.197 94.168,251.267C94.153,251.31 94.137,251.354 94.124,251.4C94.115,251.431 94.105,251.462 94.097,251.495C94.088,251.527 94.081,251.557 94.073,251.588C94.071,251.598 94.068,251.608 94.066,251.619C94.058,251.653 94.051,251.688 94.044,251.723C94.038,251.753 94.033,251.784 94.027,251.816C94.017,251.879 94.008,251.944 93.999,252.012C93.99,252.09 93.983,252.171 93.977,252.255C93.974,252.302 93.972,252.348 93.969,252.393C93.967,252.437 93.965,252.482 93.963,252.526C93.962,252.57 93.96,252.612 93.959,252.654L93.959,252.681C93.918,252.681 93.795,252.681 93.465,253.219C93.275,253.531 93.115,253.863 93.05,254.088C93.024,254.174 93,254.283 93.025,254.362L93.023,254.362L93.01,254.365L93.004,254.366L92.992,254.369L92.987,254.37L92.974,254.374L92.97,254.375C92.964,254.377 92.959,254.379 92.954,254.381L92.951,254.381L92.938,254.386L92.933,254.388L92.923,254.392L92.918,254.395L92.908,254.401L92.904,254.403L92.891,254.411C92.886,254.414 92.882,254.417 92.877,254.421L92.874,254.424L92.865,254.431L92.861,254.435L92.849,254.447C92.847,254.45 92.844,254.453 92.841,254.456L92.839,254.459C92.836,254.464 92.832,254.468 92.829,254.473L92.827,254.476C92.825,254.48 92.822,254.484 92.82,254.488C92.82,254.489 92.819,254.491 92.817,254.493C92.815,254.496 92.814,254.5 92.812,254.504C92.812,254.506 92.811,254.508 92.81,254.509L92.802,254.525L92.8,254.53C92.798,254.536 92.795,254.542 92.794,254.549C92.792,254.556 92.79,254.564 92.789,254.572C92.788,254.58 92.787,254.588 92.787,254.597C92.79,254.676 92.81,254.754 92.846,254.825C92.869,254.874 92.895,254.921 92.924,254.966C92.937,254.986 92.95,255.006 92.966,255.026C93.06,255.154 93.171,255.269 93.295,255.369C93.333,255.4 93.373,255.431 93.416,255.461C93.49,255.514 93.568,255.563 93.648,255.607C93.927,255.763 94.28,255.895 94.713,255.965C94.782,255.977 94.854,255.986 94.929,255.994C95.094,256.012 95.26,256.021 95.427,256.02C95.621,256.021 95.816,256.006 96.008,255.974C96.077,255.963 96.142,255.949 96.206,255.933C96.616,255.832 96.923,255.646 97.15,255.405C97.16,255.395 97.169,255.384 97.179,255.373C97.194,255.356 97.209,255.339 97.224,255.321L97.246,255.293C97.269,255.265 97.29,255.235 97.311,255.205C97.323,255.189 97.334,255.173 97.345,255.156C97.391,255.084 97.433,255.01 97.469,254.933C97.479,254.913 97.488,254.894 97.495,254.874C97.501,254.861 97.506,254.848 97.512,254.836C97.523,254.809 97.534,254.781 97.545,254.753C97.552,254.733 97.56,254.713 97.567,254.692C97.573,254.673 97.579,254.655 97.585,254.636L97.602,254.585C97.61,254.586 97.619,254.586 97.628,254.586C97.649,254.586 97.669,254.583 97.689,254.576C97.796,254.541 97.894,254.485 97.978,254.411C98.072,254.327 98.141,254.219 98.178,254.099C98.216,253.973 98.228,253.841 98.213,253.711ZM95.686,249.905C95.688,249.905 95.689,249.905 95.69,249.904C95.69,249.904 95.691,249.904 95.691,249.903C95.691,249.902 95.691,249.902 95.691,249.901C95.692,249.9 95.692,249.899 95.691,249.898C95.691,249.897 95.691,249.897 95.69,249.897C95.69,249.896 95.689,249.896 95.689,249.896C95.572,249.841 95.452,249.789 95.478,249.693C95.491,249.648 95.53,249.629 95.58,249.629C95.657,249.635 95.732,249.657 95.8,249.694C95.801,249.695 95.802,249.695 95.802,249.694C95.803,249.694 95.804,249.694 95.805,249.694C95.806,249.693 95.806,249.692 95.807,249.691C95.807,249.69 95.807,249.689 95.807,249.688C95.807,249.687 95.806,249.687 95.806,249.686C95.721,249.599 95.629,249.507 95.709,249.416C95.718,249.407 95.729,249.4 95.741,249.396C95.753,249.391 95.766,249.389 95.778,249.39C95.941,249.39 96.261,249.661 96.199,250.055L96.192,250.053L96.181,250.051L96.174,250.049L96.163,250.047L96.144,250.044L96.138,250.044L96.121,250.041L96.118,250.041L96.103,250.039L96.097,250.039L96.086,250.037L96.061,250.037L96.051,250.036L96.027,250.036L96.013,250.035L95.787,250.035L95.754,250.036L95.752,250.036L95.721,250.039L95.718,250.039L95.689,250.041L95.685,250.041L95.657,250.044L95.654,250.044L95.626,250.047L95.624,250.047L95.595,250.051L95.556,250.056L95.517,250.063L95.506,250.065C95.48,250.07 95.456,250.075 95.431,250.081L95.418,250.084L95.413,250.085C95.443,249.926 95.573,249.912 95.686,249.905ZM93.268,253.924C93.374,253.676 93.501,253.438 93.647,253.211C93.818,252.946 93.918,252.856 93.952,252.837C93.954,252.836 93.956,252.835 93.958,252.834C94,252.836 94.054,252.884 94.102,252.959C94.103,252.962 94.105,252.965 94.106,252.967C94.246,253.199 94.3,253.61 94.147,253.897C94.119,253.951 94.084,254.002 94.043,254.048C93.945,254.159 93.82,254.242 93.68,254.291C93.648,254.303 93.618,254.312 93.593,254.319C93.391,254.372 93.225,254.349 93.167,254.317C93.162,254.303 93.145,254.218 93.268,253.924ZM97.575,253.905C97.558,254.106 97.522,254.305 97.469,254.501C97.454,254.554 97.438,254.605 97.421,254.656C97.344,254.882 97.225,255.092 97.068,255.273C96.895,255.464 96.679,255.612 96.438,255.704C96.156,255.814 95.817,255.87 95.429,255.87C95.243,255.87 95.057,255.859 94.872,255.836C94.799,255.827 94.726,255.816 94.656,255.803C94.394,255.756 94.14,255.677 93.899,255.566C93.57,255.413 93.291,255.2 93.111,254.965C92.945,254.749 92.934,254.611 92.941,254.589C92.954,254.54 92.983,254.502 93.212,254.502L93.336,254.502C93.506,254.502 93.635,254.479 93.741,254.43C93.973,254.348 94.165,254.183 94.282,253.968C94.466,253.621 94.397,253.153 94.238,252.889C94.204,252.831 94.159,252.779 94.106,252.738C94.11,252.591 94.116,252.433 94.127,252.265C94.173,251.542 94.372,250.994 94.719,250.636C94.885,250.465 95.089,250.336 95.314,250.259C95.413,250.226 95.514,250.201 95.617,250.187C95.697,250.176 95.778,250.17 95.858,250.17C96.007,250.169 96.154,250.191 96.296,250.235C96.485,250.295 96.658,250.398 96.801,250.536C97.175,250.89 97.416,251.495 97.517,252.333C97.533,252.47 97.55,252.619 97.563,252.777C97.594,253.132 97.61,253.527 97.575,253.905ZM98.067,253.855C98.067,253.883 98.065,253.91 98.061,253.938C98.057,253.964 98.052,253.99 98.045,254.016C98.031,254.076 98.006,254.134 97.972,254.187C97.959,254.207 97.945,254.227 97.929,254.246C97.921,254.255 97.913,254.263 97.904,254.271C97.895,254.279 97.886,254.289 97.878,254.297C97.87,254.306 97.86,254.313 97.852,254.32C97.825,254.342 97.796,254.361 97.766,254.378C97.746,254.389 97.726,254.398 97.706,254.407C97.686,254.416 97.666,254.424 97.645,254.431C97.651,254.407 97.656,254.382 97.662,254.358C97.675,254.296 97.686,254.233 97.696,254.17C97.698,254.156 97.701,254.142 97.702,254.127C97.708,254.091 97.713,254.054 97.717,254.017C97.72,253.991 97.722,253.966 97.725,253.94C97.728,253.914 97.73,253.888 97.732,253.862C97.735,253.823 97.737,253.784 97.74,253.745C97.741,253.719 97.743,253.693 97.743,253.668C97.744,253.642 97.745,253.616 97.746,253.59L97.746,253.317C97.746,253.292 97.746,253.266 97.744,253.24C97.742,253.214 97.742,253.188 97.741,253.162C97.74,253.136 97.739,253.11 97.737,253.084C97.734,253.014 97.729,252.944 97.724,252.875L97.727,252.875C97.729,252.876 97.731,252.878 97.732,252.88C97.752,252.903 97.771,252.927 97.789,252.953C97.803,252.973 97.817,252.993 97.83,253.015L97.843,253.036C97.873,253.086 97.9,253.138 97.923,253.192C97.935,253.218 97.947,253.246 97.957,253.274C97.973,253.316 97.988,253.359 98.001,253.404C98.014,253.447 98.025,253.491 98.035,253.536C98.047,253.596 98.057,253.656 98.063,253.717C98.065,253.733 98.066,253.748 98.067,253.763C98.068,253.796 98.068,253.826 98.067,253.855Z" fill="#383838"/>
<path d="M95.237,256.52C95.203,256.519 95.171,256.509 95.143,256.489C95.116,256.47 95.095,256.443 95.083,256.411L94.93,255.997C94.856,255.989 94.784,255.979 94.714,255.968C94.785,256.165 94.872,256.407 94.897,256.471C94.905,256.493 94.897,256.52 94.857,256.52L94.621,256.52C94.621,256.52 94.549,256.677 94.743,256.671C95.28,256.655 95.222,257.085 95.391,257.003C95.554,256.925 95.244,256.671 95.249,256.671C95.867,256.749 95.669,256.519 95.669,256.519C95.669,256.519 95.355,256.52 95.237,256.52Z" fill="#383838"/>
<path d="M96.395,256.308C96.38,256.308 96.365,256.304 96.353,256.295C96.34,256.287 96.33,256.275 96.325,256.261C96.296,256.19 96.243,256.039 96.205,255.935C96.142,255.95 96.076,255.964 96.008,255.975C96.049,256.088 96.105,256.244 96.11,256.259C96.121,256.293 96.113,256.306 96.052,256.306L95.822,256.306C95.822,256.306 95.756,256.454 96.01,256.454C96.527,256.454 96.42,256.888 96.619,256.777C96.746,256.706 96.51,256.506 96.491,256.482C96.48,256.468 96.489,256.449 96.517,256.453C97.046,256.534 96.916,256.306 96.916,256.306C96.916,256.306 96.55,256.308 96.395,256.308Z" fill="#383838"/>
<path d="M95.591,251.89C95.614,251.884 95.634,251.872 95.65,251.855C95.666,251.838 95.677,251.817 95.68,251.794C95.684,251.771 95.681,251.747 95.671,251.726C95.662,251.705 95.646,251.687 95.626,251.675C95.606,251.663 95.583,251.656 95.56,251.657C95.536,251.658 95.514,251.666 95.495,251.679C95.476,251.693 95.462,251.712 95.453,251.734C95.445,251.756 95.444,251.779 95.449,251.802C95.453,251.817 95.459,251.831 95.468,251.844C95.477,251.856 95.489,251.867 95.502,251.875C95.515,251.883 95.53,251.889 95.545,251.891C95.56,251.894 95.576,251.893 95.591,251.89Z" fill="#383838"/>
<path d="M96.85,251.874C96.87,251.862 96.886,251.844 96.896,251.823C96.905,251.802 96.908,251.778 96.905,251.755C96.901,251.732 96.89,251.711 96.875,251.694C96.859,251.677 96.838,251.665 96.815,251.659C96.793,251.654 96.769,251.656 96.747,251.664C96.725,251.672 96.706,251.686 96.693,251.705C96.679,251.724 96.671,251.747 96.67,251.77C96.67,251.793 96.676,251.816 96.688,251.836C96.696,251.849 96.707,251.86 96.719,251.869C96.732,251.879 96.746,251.885 96.761,251.889C96.776,251.892 96.792,251.893 96.807,251.89C96.823,251.888 96.837,251.882 96.85,251.874Z" fill="#383838"/>
<path d="M96.514,252.177L96.221,252.055C96.211,252.052 96.2,252.05 96.19,252.05C96.18,252.05 96.169,252.052 96.159,252.055L95.865,252.177C95.856,252.179 95.848,252.185 95.842,252.192C95.835,252.199 95.831,252.208 95.83,252.218C95.829,252.228 95.831,252.237 95.835,252.246C95.84,252.255 95.847,252.262 95.855,252.267L96.153,252.459C96.163,252.467 96.176,252.471 96.19,252.47C96.203,252.471 96.216,252.467 96.226,252.459L96.524,252.267C96.531,252.263 96.536,252.258 96.54,252.252C96.544,252.246 96.547,252.24 96.549,252.232C96.55,252.225 96.55,252.218 96.548,252.211C96.546,252.204 96.542,252.197 96.538,252.192C96.531,252.185 96.523,252.179 96.514,252.177Z" fill="#383838"/>
</svg>
