<svg width="34" height="20" viewBox="0 0 34 20" fill="none" xmlns="http://www.w3.org/2000/svg" xmlns:xlink="http://www.w3.org/1999/xlink">
<path d="M18.606,10.996C21.408,7.493 25.675,3.204 31.441,0.321L33.677,4.794C28.775,7.244 25.042,10.955 22.511,14.119C21.252,15.692 20.31,17.106 19.688,18.118C19.377,18.623 19.147,19.026 18.998,19.296C18.923,19.431 18.869,19.533 18.835,19.598L18.8,19.666L18.795,19.675L18.794,19.677C18.794,19.677 18.794,19.677 18.792,19.675L14.325,19.675C14.323,19.677 14.323,19.677 14.323,19.677L14.323,19.675L14.318,19.666L14.282,19.598C14.248,19.533 14.194,19.431 14.12,19.296C13.971,19.026 13.74,18.623 13.429,18.118C12.807,17.106 11.865,15.692 10.606,14.119C8.075,10.955 4.342,7.244 -0.56,4.794L1.676,0.321C7.442,3.204 11.708,7.493 14.511,10.996C15.304,11.988 15.987,12.925 16.559,13.76C17.13,12.925 17.813,11.988 18.606,10.996Z" clip-rule="evenodd" fill-rule="evenodd" transform="rotate(180 16.558 9.999)" fill="#000000"/>
</svg>
