<svg width="36" height="20" viewBox="0 0 36 20" fill="none" xmlns="http://www.w3.org/2000/svg" xmlns:xlink="http://www.w3.org/1999/xlink">
<path d="M19.489,10.996C22.292,7.493 26.558,3.204 32.324,0.321L34.56,4.794C29.658,7.244 25.925,10.955 23.394,14.119C22.135,15.692 21.194,17.106 20.571,18.118C20.26,18.623 20.03,19.026 19.881,19.296C19.806,19.431 19.752,19.533 19.718,19.598L19.683,19.666L19.678,19.675L19.677,19.677C19.677,19.677 19.677,19.677 19.675,19.675L15.208,19.675C15.206,19.677 15.206,19.677 15.206,19.677L15.206,19.675L15.201,19.666L15.165,19.598C15.132,19.533 15.077,19.431 15.003,19.296C14.854,19.026 14.624,18.623 14.313,18.118C13.69,17.106 12.748,15.692 11.49,14.119C8.958,10.955 5.225,7.244 0.323,4.794L2.559,0.321C8.325,3.204 12.592,7.493 15.394,10.996C16.187,11.988 16.87,12.925 17.442,13.76C18.013,12.925 18.696,11.988 19.489,10.996Z" clip-rule="evenodd" fill-rule="evenodd" transform="rotate(180 17.442 9.999)" fill="#000000"/>
</svg>
