<svg width="34" height="20" viewBox="0 0 34 20" fill="none" xmlns="http://www.w3.org/2000/svg" xmlns:xlink="http://www.w3.org/1999/xlink">
<path d="M18.606,10.997C21.408,7.494 25.675,3.205 31.441,0.322L33.677,4.795C28.775,7.245 25.042,10.956 22.511,14.12C21.252,15.693 20.31,17.107 19.688,18.119C19.377,18.624 19.147,19.027 18.998,19.297C18.923,19.432 18.869,19.534 18.835,19.599L18.8,19.667L18.795,19.676L18.794,19.678C18.794,19.678 18.794,19.677 18.792,19.676L14.325,19.676C14.323,19.678 14.323,19.678 14.323,19.678L14.323,19.676L14.318,19.667L14.282,19.599C14.248,19.534 14.194,19.432 14.12,19.297C13.971,19.027 13.74,18.624 13.429,18.119C12.807,17.107 11.865,15.693 10.606,14.12C8.075,10.956 4.342,7.245 -0.56,4.795L1.676,0.322C7.442,3.205 11.708,7.494 14.511,10.997C15.304,11.989 15.987,12.926 16.559,13.761C17.13,12.926 17.813,11.989 18.606,10.997Z" clip-rule="evenodd" fill-rule="evenodd" transform="rotate(180 16.558 10)" fill="#000000"/>
</svg>
