<svg width="48" height="48" viewBox="0 0 48 48" fill="none" xmlns="http://www.w3.org/2000/svg" xmlns:xlink="http://www.w3.org/1999/xlink">
<path d="M43,30C43,29.448 42.552,29 42,29C41.448,29 41,29.448 41,30L43,30ZM6,38L5,38L6,38ZM7,30C7,29.448 6.552,29 6,29C5.448,29 5,29.448 5,30L7,30ZM41,30L41,38L43,38L43,30L41,30ZM41,38C41,38.796 40.684,39.559 40.121,40.121L41.536,41.536C42.473,40.598 43,39.326 43,38L41,38ZM40.121,40.121C39.559,40.684 38.796,41 38,41L38,43C39.326,43 40.598,42.473 41.536,41.536L40.121,40.121ZM38,41L10,41L10,43L38,43L38,41ZM10,41C9.204,41 8.441,40.684 7.879,40.121L6.464,41.536C7.402,42.473 8.674,43 10,43L10,41ZM7.879,40.121C7.316,39.559 7,38.796 7,38L5,38C5,39.326 5.527,40.598 6.464,41.536L7.879,40.121ZM7,38L7,30L5,30L5,38L7,38Z" fill="#000000"/>
<path d="M33.293,16.707C33.683,17.098 34.317,17.098 34.707,16.707C35.098,16.317 35.098,15.683 34.707,15.293L33.293,16.707ZM24,6L24.707,5.293C24.317,4.902 23.683,4.902 23.293,5.293L24,6ZM13.293,15.293C12.902,15.683 12.902,16.317 13.293,16.707C13.683,17.098 14.317,17.098 14.707,16.707L13.293,15.293ZM34.707,15.293L24.707,5.293L23.293,6.707L33.293,16.707L34.707,15.293ZM23.293,5.293L13.293,15.293L14.707,16.707L24.707,6.707L23.293,5.293Z" fill="#000000"/>
<line x1="23" y1="6" x2="23" y2="30" stroke="#000000" stroke-width="1" stroke-miterlimit="3.999327" stroke-linecap="round" stroke-linejoin="round"/>
</svg>
