<svg width="30" height="40" viewBox="0 0 30 40" fill="none" xmlns="http://www.w3.org/2000/svg" xmlns:xlink="http://www.w3.org/1999/xlink">
<path d="M14,-0.117C6.012,-0.117 -0.486,6.381 -0.486,14.369C-0.486,24.282 12.478,38.835 13.03,39.45C13.548,40.027 14.453,40.026 14.971,39.45C15.523,38.835 28.487,24.282 28.487,14.369C28.486,6.381 21.988,-0.117 14,-0.117ZM14,21.658C9.981,21.658 6.712,18.388 6.712,14.369C6.712,10.35 9.981,7.081 14,7.081C18.019,7.081 21.289,10.35 21.289,14.369C21.289,18.388 18.019,21.658 14,21.658Z" fill="#000000"/>
</svg>
