<svg width="28" height="30" viewBox="0 0 28 30" fill="none" xmlns="http://www.w3.org/2000/svg" xmlns:xlink="http://www.w3.org/1999/xlink">
<path d="M13.965,28.815C12.038,28.815 10.228,28.451 8.537,27.724C6.828,26.997 5.341,26.001 4.078,24.737C2.814,23.474 1.818,21.987 1.091,20.278C0.364,18.587 0,16.777 0,14.85C0,12.922 0.364,11.113 1.091,9.422C1.818,7.713 2.814,6.226 4.078,4.963C5.341,3.699 6.828,2.703 8.537,1.976C10.228,1.249 12.038,0.885 13.965,0.885C15.892,0.885 17.702,1.249 19.393,1.976C21.102,2.703 22.589,3.699 23.852,4.963C25.116,6.226 26.112,7.713 26.839,9.422C27.566,11.113 27.93,12.922 27.93,14.85C27.93,16.777 27.566,18.587 26.839,20.278C26.112,21.987 25.116,23.474 23.852,24.737C22.589,26.001 21.102,26.997 19.393,27.724C17.702,28.451 15.892,28.815 13.965,28.815ZM12.574,3.776C11.192,3.94 9.91,4.349 8.728,5.004C7.528,5.64 6.492,6.449 5.619,7.431C4.746,8.413 4.055,9.54 3.546,10.813C3.037,12.086 2.782,13.432 2.782,14.85C2.782,15.286 2.809,15.714 2.864,16.132C2.918,16.55 2.991,16.959 3.082,17.359L9.765,10.65L9.765,9.258C9.765,8.495 10.037,7.84 10.583,7.295C11.128,6.749 11.792,6.476 12.574,6.476L12.574,3.776ZM22.202,7.322C22.02,7.886 21.688,8.349 21.207,8.713C20.725,9.077 20.175,9.258 19.556,9.258L18.165,9.258L18.165,13.459C18.165,13.841 18.029,14.168 17.756,14.441C17.484,14.714 17.147,14.85 16.747,14.85L8.374,14.85L8.374,17.632L11.183,17.632C11.565,17.632 11.892,17.768 12.165,18.041C12.438,18.314 12.574,18.65 12.574,19.05L12.574,21.833L15.356,21.833C16.138,21.833 16.802,22.105 17.347,22.651C17.893,23.196 18.165,23.851 18.165,24.615L18.165,25.215C19.184,24.796 20.12,24.242 20.975,23.551C21.829,22.86 22.566,22.064 23.184,21.164C23.802,20.264 24.284,19.278 24.63,18.205C24.975,17.15 25.148,16.032 25.148,14.85C25.148,13.395 24.884,12.022 24.357,10.731C23.83,9.44 23.111,8.304 22.202,7.322Z" fill="#1A1A1A"/>
</svg>
