<svg width="38" height="38" viewBox="0 0 38 38" fill="none" xmlns="http://www.w3.org/2000/svg" xmlns:xlink="http://www.w3.org/1999/xlink">
<path d="M36.667,17.216L36.667,18.55C36.667,19.286 36.07,19.883 35.334,19.883L20.001,19.883L20.001,35.216C20.001,35.953 19.404,36.55 18.667,36.55L17.334,36.55C16.598,36.55 16.001,35.953 16.001,35.216L16.001,19.883L0.667,19.883C-0.069,19.883 -0.666,19.286 -0.666,18.55L-0.666,17.216C-0.666,16.48 -0.069,15.883 0.667,15.883L16.001,15.883L16.001,0.55C16.001,-0.187 16.598,-0.784 17.334,-0.784L18.667,-0.784C19.404,-0.784 20.001,-0.187 20.001,0.55L20.001,15.883L35.334,15.883C36.07,15.883 36.667,16.48 36.667,17.216Z" fill="#000000"/>
</svg>
