<svg width="40" height="34" viewBox="0 0 40 34" fill="none" xmlns="http://www.w3.org/2000/svg" xmlns:xlink="http://www.w3.org/1999/xlink">
<path d="M4,0.858L36,0.858C38.209,0.858 40,2.649 40,4.858L40,28.858C40,31.068 38.209,32.858 36,32.858L4,32.858C1.791,32.858 0,31.068 0,28.858L0,4.858C0,2.649 1.791,0.858 4,0.858ZM23.3,23.758L36,14.858L36,10.658L21.3,20.958C20.518,21.501 19.482,21.501 18.7,20.958L4,10.658L4,14.858L16.7,23.758C18.682,25.144 21.318,25.144 23.3,23.758Z" clip-rule="evenodd" fill-rule="evenodd" fill="#000000"/>
</svg>
