<svg width="40" height="32" viewBox="0 0 40 32" fill="none" xmlns="http://www.w3.org/2000/svg" xmlns:xlink="http://www.w3.org/1999/xlink">
<path d="M4,-0.117L36,-0.117C38.209,-0.117 40,1.674 40,3.883L40,27.883C40,30.092 38.209,31.883 36,31.883L4,31.883C1.791,31.883 0,30.092 0,27.883L0,3.883C0,1.674 1.791,-0.117 4,-0.117ZM23.3,22.783L36,13.883L36,9.683L21.3,19.983C20.518,20.525 19.482,20.525 18.7,19.983L4,9.683L4,13.883L16.7,22.783C18.682,24.168 21.318,24.168 23.3,22.783Z" clip-rule="evenodd" fill-rule="evenodd" fill="#000000"/>
</svg>
