<svg width="42" height="48" viewBox="0 0 42 48" fill="none" xmlns="http://www.w3.org/2000/svg" xmlns:xlink="http://www.w3.org/1999/xlink">
<path d="M28.973,0C26.25,0.184 23.336,1.804 21.533,3.99C19.954,5.914 18.63,8.737 19.133,11.67C18.683,11.531 18.274,11.516 17.783,11.34C16.444,10.864 14.914,10.35 13.013,10.35C9.236,10.35 5.37,12.596 2.933,16.35C-0.615,21.802 0.098,31.399 5.483,39.6C6.431,41.04 7.538,42.611 8.903,43.86C10.268,45.109 11.918,46.061 13.853,46.08C15.506,46.099 16.658,45.547 17.693,45.09C18.728,44.632 19.691,44.227 21.503,44.22C21.514,44.22 21.521,44.22 21.533,44.22C23.336,44.205 24.27,44.602 25.283,45.06C26.295,45.517 27.435,46.095 29.093,46.08C31.065,46.065 32.741,44.985 34.133,43.65C35.524,42.315 36.668,40.676 37.613,39.24C38.966,37.177 39.51,36.052 40.553,33.75C40.661,33.51 40.665,33.232 40.56,32.989C40.459,32.745 40.26,32.554 40.013,32.46C36.6,31.17 34.654,28.151 34.373,24.96C34.091,21.769 35.441,18.484 38.843,16.62C39.094,16.485 39.27,16.249 39.33,15.971C39.386,15.694 39.319,15.401 39.143,15.18C36.701,12.146 33.266,10.35 29.903,10.35C27.758,10.35 26.183,10.856 24.893,11.34C24.679,11.422 24.521,11.415 24.323,11.49C25.631,10.8 26.786,9.844 27.653,8.73C29.228,6.709 30.443,3.832 29.993,0.81C29.918,0.315 29.471,-0.038 28.973,0ZM27.953,2.28C27.889,4.219 27.225,6.116 26.123,7.53C24.968,9.015 23.025,10.042 21.143,10.35C21.176,8.486 21.911,6.555 23.033,5.19C24.21,3.765 26.16,2.737 27.953,2.28ZM13.013,12.27C13.853,12.27 15.803,12.671 17.123,13.14C18.443,13.609 19.834,14.16 21.473,14.16C23.074,14.16 24.341,13.605 25.583,13.14C26.824,12.675 28.061,12.27 29.903,12.27C32.306,12.27 34.905,13.519 36.953,15.69C33.675,18.004 32.141,21.611 32.453,25.11C32.764,28.646 34.894,32.002 38.393,33.75C38.388,33.761 38.383,33.772 38.378,33.783C37.628,35.414 37.129,36.502 36.023,38.19C35.104,39.589 34.013,41.119 32.813,42.27C31.613,43.421 30.341,44.149 29.063,44.16C27.829,44.171 27.128,43.804 26.063,43.32C24.998,42.836 23.621,42.281 21.503,42.3C19.388,42.311 17.993,42.844 16.913,43.32C15.833,43.796 15.124,44.171 13.883,44.16C12.57,44.149 11.351,43.511 10.193,42.45C9.034,41.389 7.988,39.941 7.073,38.55C2.033,30.87 1.628,21.847 4.523,17.4C6.645,14.134 12.173,12.27 13.013,12.27Z" fill="#000000"/>
<path d="M13.013,12.27C13.853,12.27 15.803,12.671 17.123,13.14C18.443,13.609 19.834,14.16 21.473,14.16C23.074,14.16 24.341,13.605 25.583,13.14C26.824,12.675 28.061,12.27 29.903,12.27C32.306,12.27 34.905,13.519 36.953,15.69C33.675,18.004 32.141,21.611 32.453,25.11C32.764,28.646 34.894,32.002 38.393,33.75L38.378,33.783C37.628,35.414 37.129,36.502 36.023,38.19C35.104,39.589 34.013,41.119 32.813,42.27C31.613,43.421 30.341,44.149 29.063,44.16C27.829,44.171 27.128,43.804 26.063,43.32C24.998,42.836 23.621,42.281 21.503,42.3C19.388,42.311 17.993,42.844 16.913,43.32C15.833,43.796 15.124,44.171 13.883,44.16C12.57,44.149 11.351,43.511 10.193,42.45C9.034,41.389 7.988,39.941 7.073,38.55C2.033,30.87 1.628,21.847 4.523,17.4C6.645,14.134 12.173,12.27 13.013,12.27Z" fill="#000000"/>
<path d="M27.953,2.28C27.889,4.219 27.225,6.116 26.123,7.53C24.968,9.015 23.025,10.042 21.143,10.35C21.176,8.486 21.911,6.555 23.033,5.19C24.21,3.765 26.16,2.737 27.953,2.28Z" fill="#000000"/>
</svg>
