<svg width="12" height="20" viewBox="0 0 12 20" fill="none" xmlns="http://www.w3.org/2000/svg" xmlns:xlink="http://www.w3.org/1999/xlink">
<path d="M2.707,1.176C2.317,0.785 1.683,0.785 1.293,1.176C0.902,1.566 0.902,2.199 1.293,2.59L2.707,1.176ZM10,9.883L10.707,10.59C11.098,10.199 11.098,9.566 10.707,9.176L10,9.883ZM1.293,17.176C0.902,17.566 0.902,18.199 1.293,18.59C1.683,18.98 2.317,18.98 2.707,18.59L1.293,17.176ZM1.293,2.59L9.293,10.59L10.707,9.176L2.707,1.176L1.293,2.59ZM9.293,9.176L1.293,17.176L2.707,18.59L10.707,10.59L9.293,9.176Z" fill="#666666"/>
</svg>
