<svg width="32" height="32" viewBox="0 0 32 32" fill="none" xmlns="http://www.w3.org/2000/svg" xmlns:xlink="http://www.w3.org/1999/xlink">
<path d="M7.819,28.357L8.715,29.266L8.725,29.256L7.819,28.357ZM2.581,28.315L3.491,27.42L3.49,27.419L2.581,28.315ZM2.622,23.077L3.518,23.988L3.529,23.976L2.622,23.077ZM13.45,12.16L14.356,13.06C14.7,12.713 14.816,12.2 14.655,11.739L13.45,12.16ZM22.1,0.711L22.024,1.985L22.036,1.986L22.1,0.711ZM22.92,2.84L23.816,3.75L23.823,3.743L22.92,2.84ZM20.778,4.947L19.883,4.036L19.883,4.037L20.778,4.947ZM25.978,10.229L26.874,11.139L26.874,11.139L25.978,10.229ZM28.117,8.123L27.228,7.206L27.221,7.213L28.117,8.123ZM30.233,8.968L28.957,9.019L28.958,9.024L30.233,8.968ZM18.659,17.434L19.098,16.235C18.63,16.063 18.104,16.18 17.753,16.534L18.659,17.434ZM6.923,27.447C6.696,27.671 6.427,27.847 6.132,27.967L7.09,30.334C7.697,30.088 8.249,29.725 8.715,29.266L6.923,27.447ZM6.132,27.967C5.836,28.087 5.52,28.147 5.201,28.145L5.181,30.698C5.835,30.703 6.484,30.58 7.09,30.334L6.132,27.967ZM5.201,28.145C4.883,28.142 4.568,28.077 4.274,27.952L3.278,30.304C3.88,30.559 4.527,30.693 5.181,30.698L5.201,28.145ZM4.274,27.952C3.981,27.828 3.715,27.647 3.491,27.42L1.671,29.211C2.129,29.677 2.676,30.048 3.278,30.304L4.274,27.952ZM3.49,27.419C3.267,27.192 3.09,26.923 2.97,26.628L0.604,27.587C0.849,28.193 1.212,28.745 1.671,29.211L3.49,27.419ZM2.97,26.628C2.851,26.333 2.79,26.016 2.793,25.698L0.239,25.678C0.234,26.332 0.358,26.98 0.604,27.587L2.97,26.628ZM2.793,25.698C2.796,25.379 2.861,25.064 2.985,24.77L0.634,23.774C0.379,24.377 0.245,25.023 0.239,25.678L2.793,25.698ZM2.985,24.77C3.11,24.477 3.29,24.211 3.518,23.987L1.727,22.167C1.261,22.626 0.889,23.172 0.634,23.774L2.985,24.77ZM3.529,23.976L14.356,13.06L12.543,11.261L1.716,22.178L3.529,23.976ZM14.655,11.739C14.255,10.597 14.144,9.374 14.331,8.179L11.808,7.784C11.556,9.395 11.706,11.043 12.244,12.582L14.655,11.739ZM14.331,8.179C14.518,6.984 14.997,5.853 15.727,4.888L13.689,3.349C12.706,4.65 12.06,6.173 11.808,7.784L14.331,8.179ZM15.727,4.888C16.456,3.923 17.412,3.153 18.511,2.646L17.442,0.327C15.961,1.01 14.672,2.048 13.689,3.349L15.727,4.888ZM18.511,2.646C19.609,2.14 20.816,1.913 22.024,1.985L22.176,-0.564C20.549,-0.661 18.922,-0.355 17.442,0.327L18.511,2.646ZM22.036,1.986C22.031,1.986 22.026,1.984 22.021,1.981L23.518,-0.088C23.122,-0.375 22.652,-0.54 22.164,-0.564L22.036,1.986ZM22.021,1.981C22.017,1.977 22.013,1.973 22.011,1.968L24.394,1.049C24.218,0.593 23.914,0.198 23.518,-0.088L22.021,1.981ZM22.011,1.968C22.009,1.962 22.009,1.957 22.01,1.951L24.508,2.481C24.609,2.003 24.57,1.505 24.394,1.049L22.011,1.968ZM22.01,1.951C22.011,1.946 22.014,1.941 22.018,1.937L23.823,3.743C24.169,3.397 24.407,2.959 24.508,2.481L22.01,1.951ZM22.025,1.93L19.883,4.036L21.674,5.857L23.816,3.75L22.025,1.93ZM19.883,4.037C18.941,4.964 18.406,6.227 18.395,7.548L20.949,7.569C20.954,6.924 21.215,6.308 21.674,5.856L19.883,4.037ZM18.395,7.548C18.385,8.87 18.9,10.142 19.827,11.083L21.647,9.292C21.195,8.833 20.944,8.213 20.949,7.569L18.395,7.548ZM19.827,11.083C20.754,12.025 22.017,12.56 23.339,12.571L23.359,10.017C22.715,10.012 22.099,9.751 21.647,9.292L19.827,11.083ZM23.339,12.571C24.661,12.581 25.932,12.066 26.874,11.139L25.083,9.319C24.623,9.771 24.003,10.022 23.359,10.017L23.339,12.571ZM26.874,11.139L29.013,9.032L27.221,7.213L25.082,9.32L26.874,11.139ZM29.006,9.039C29.002,9.043 28.997,9.045 28.992,9.046L28.497,6.541C28.018,6.636 27.578,6.867 27.228,7.206L29.006,9.039ZM28.992,9.046C28.986,9.047 28.981,9.047 28.975,9.045L29.923,6.674C29.471,6.493 28.975,6.447 28.497,6.541L28.992,9.046ZM28.975,9.045C28.97,9.043 28.966,9.039 28.963,9.035L31.048,7.561C30.767,7.163 30.376,6.855 29.923,6.674L28.975,9.045ZM28.963,9.035C28.959,9.03 28.958,9.025 28.957,9.019L31.509,8.918C31.49,8.43 31.33,7.959 31.048,7.561L28.963,9.035ZM28.958,9.024C29.01,10.231 28.763,11.432 28.24,12.521L30.541,13.628C31.247,12.16 31.579,10.54 31.509,8.913L28.958,9.024ZM28.24,12.521C27.716,13.61 26.932,14.553 25.957,15.267L27.464,17.328C28.779,16.366 29.836,15.095 30.541,13.628L28.24,12.521ZM25.957,15.267C24.982,15.98 23.845,16.442 22.649,16.61L23.006,19.139C24.618,18.911 26.15,18.289 27.464,17.328L25.957,15.267ZM22.649,16.61C21.452,16.779 20.233,16.65 19.098,16.235L18.22,18.633C19.749,19.193 21.393,19.367 23.006,19.139L22.649,16.61ZM17.753,16.534L6.913,27.457L8.725,29.256L19.565,18.333L17.753,16.534Z" fill="#1A1A1A"/>
</svg>
