<svg width="30" height="42" viewBox="0 0 30 42" fill="none" xmlns="http://www.w3.org/2000/svg" xmlns:xlink="http://www.w3.org/1999/xlink">
<path d="M14,0.856C6.012,0.856 -0.486,7.355 -0.486,15.343C-0.486,25.256 12.478,39.809 13.03,40.424C13.548,41.001 14.453,41 14.971,40.424C15.523,39.809 28.487,25.256 28.487,15.343C28.486,7.355 21.988,0.856 14,0.856ZM14,22.631C9.981,22.631 6.712,19.362 6.712,15.343C6.712,11.324 9.981,8.054 14,8.054C18.019,8.054 21.289,11.324 21.289,15.343C21.289,19.362 18.019,22.631 14,22.631Z" fill="#000000"/>
</svg>
