<svg width="40" height="32" viewBox="0 0 40 32" fill="none" xmlns="http://www.w3.org/2000/svg" xmlns:xlink="http://www.w3.org/1999/xlink">
<path d="M27.914,10.385L25.919,10.385C25.919,11.086 26.287,11.736 26.887,12.096C27.488,12.457 28.234,12.475 28.853,12.146L27.914,10.385ZM23.994,1.64L23.994,-0.355L23.994,1.64ZM5.601,1.64L5.601,-0.355L5.601,1.64ZM1.681,5.56L-0.314,5.56L1.681,5.56ZM1.681,25.16L-0.314,25.16L1.681,25.16ZM27.914,20.334L28.853,18.574C28.234,18.244 27.488,18.263 26.887,18.624C26.287,18.984 25.919,19.634 25.919,20.334L27.914,20.334ZM34.08,23.623L33.141,25.383L33.142,25.384L34.08,23.623ZM36.961,21.894L38.956,21.896L38.956,21.894L36.961,21.894ZM36.961,8.825L38.956,8.825L38.956,8.824L36.961,8.825ZM34.08,7.096L33.142,5.336L33.141,5.336L34.08,7.096ZM29.909,10.385L29.909,5.56L25.919,5.56L25.919,10.385L29.909,10.385ZM29.909,5.56C29.909,3.991 29.286,2.487 28.176,1.377L25.355,4.199C25.716,4.56 25.919,5.049 25.919,5.56L29.909,5.56ZM28.176,1.377C27.067,0.268 25.563,-0.355 23.994,-0.355L23.994,3.635C24.504,3.635 24.994,3.838 25.355,4.199L28.176,1.377ZM23.994,-0.355L5.601,-0.355L5.601,3.635L23.994,3.635L23.994,-0.355ZM5.601,-0.355C4.032,-0.355 2.528,0.268 1.419,1.377L4.24,4.199C4.601,3.838 5.091,3.635 5.601,3.635L5.601,-0.355ZM1.419,1.377C0.309,2.487 -0.314,3.991 -0.314,5.56L3.676,5.56C3.676,5.049 3.879,4.56 4.24,4.199L1.419,1.377ZM-0.314,5.56L-0.314,25.16L3.676,25.16L3.676,5.56L-0.314,5.56ZM-0.314,25.16C-0.314,26.729 0.309,28.233 1.419,29.342L4.24,26.521C3.879,26.16 3.676,25.67 3.676,25.16L-0.314,25.16ZM1.419,29.342C2.528,30.452 4.032,31.075 5.601,31.075L5.601,27.085C5.091,27.085 4.601,26.882 4.24,26.521L1.419,29.342ZM5.601,31.075L23.994,31.075L23.994,27.085L5.601,27.085L5.601,31.075ZM23.994,31.075C25.563,31.075 27.067,30.452 28.176,29.342L25.355,26.521C24.994,26.882 24.504,27.085 23.994,27.085L23.994,31.075ZM28.176,29.342C29.286,28.233 29.909,26.729 29.909,25.16L25.919,25.16C25.919,25.67 25.716,26.16 25.355,26.521L28.176,29.342ZM29.909,25.16L29.909,20.334L25.919,20.334L25.919,25.16L29.909,25.16ZM26.975,22.095L33.141,25.383L35.019,21.863L28.853,18.574L26.975,22.095ZM33.142,25.384C33.745,25.705 34.42,25.864 35.102,25.847L35,21.858C35.006,21.858 35.012,21.859 35.018,21.862L33.142,25.384ZM35.102,25.847C35.785,25.829 36.451,25.636 37.036,25.285L34.983,21.863C34.988,21.86 34.994,21.858 35,21.858L35.102,25.847ZM37.036,25.285C37.621,24.933 38.106,24.437 38.442,23.843L34.971,21.876C34.974,21.871 34.978,21.866 34.983,21.863L37.036,25.285ZM38.442,23.843C38.779,23.249 38.956,22.578 38.956,21.896L34.966,21.893C34.966,21.887 34.968,21.881 34.971,21.876L38.442,23.843ZM38.956,21.894L38.956,8.825L34.966,8.825L34.966,21.894L38.956,21.894ZM38.956,8.824C38.956,8.141 38.779,7.471 38.442,6.877L34.971,8.844C34.968,8.839 34.966,8.833 34.966,8.827L38.956,8.824ZM38.442,6.877C38.106,6.283 37.621,5.786 37.036,5.435L34.983,8.857C34.978,8.853 34.974,8.849 34.971,8.844L38.442,6.877ZM37.036,5.435C36.451,5.084 35.785,4.89 35.102,4.873L35,8.861C34.994,8.861 34.988,8.86 34.983,8.857L37.036,5.435ZM35.102,4.873C34.42,4.855 33.745,5.015 33.142,5.336L35.018,8.857C35.012,8.86 35.006,8.862 35,8.861L35.102,4.873ZM33.141,5.336L26.975,8.625L28.853,12.146L35.019,8.857L33.141,5.336Z" fill="#767676"/>
</svg>
