<svg width="32" height="32" viewBox="0 0 32 32" fill="none" xmlns="http://www.w3.org/2000/svg" xmlns:xlink="http://www.w3.org/1999/xlink">
<path d="M7.818,28.358L8.714,29.267L8.725,29.257L7.818,28.358ZM2.58,28.316L3.491,27.421L3.49,27.42L2.58,28.316ZM2.622,23.078L3.517,23.988L3.528,23.977L2.622,23.078ZM13.449,12.161L14.356,13.061C14.7,12.714 14.816,12.201 14.654,11.74L13.449,12.161ZM22.099,0.712L22.023,1.986L22.036,1.987L22.099,0.712ZM22.92,2.841L23.815,3.751L23.823,3.744L22.92,2.841ZM20.778,4.948L19.883,4.037L19.882,4.038L20.778,4.948ZM25.978,10.23L26.873,11.14L26.874,11.14L25.978,10.23ZM28.116,8.124L27.227,7.207L27.22,7.214L28.116,8.124ZM30.233,8.969L28.957,9.02L28.957,9.025L30.233,8.969ZM18.658,17.435L19.098,16.236C18.629,16.064 18.104,16.181 17.752,16.535L18.658,17.435ZM6.922,27.448C6.695,27.672 6.426,27.848 6.131,27.968L7.09,30.335C7.696,30.089 8.248,29.726 8.714,29.267L6.922,27.448ZM6.131,27.968C5.836,28.088 5.52,28.148 5.201,28.145L5.181,30.699C5.835,30.704 6.484,30.58 7.09,30.335L6.131,27.968ZM5.201,28.145C4.882,28.143 4.567,28.078 4.274,27.953L3.277,30.304C3.88,30.56 4.527,30.694 5.181,30.699L5.201,28.145ZM4.274,27.953C3.98,27.829 3.714,27.648 3.491,27.421L1.67,29.211C2.129,29.678 2.675,30.049 3.277,30.304L4.274,27.953ZM3.49,27.42C3.266,27.193 3.09,26.924 2.97,26.629L0.603,27.588C0.849,28.194 1.212,28.746 1.671,29.212L3.49,27.42ZM2.97,26.629C2.85,26.333 2.79,26.017 2.793,25.699L0.239,25.678C0.234,26.332 0.358,26.981 0.603,27.588L2.97,26.629ZM2.793,25.699C2.795,25.38 2.86,25.065 2.985,24.771L0.633,23.775C0.378,24.377 0.244,25.024 0.239,25.678L2.793,25.699ZM2.985,24.771C3.109,24.478 3.29,24.212 3.517,23.988L1.727,22.168C1.26,22.626 0.889,23.173 0.633,23.775L2.985,24.771ZM3.528,23.977L14.356,13.061L12.543,11.262L1.715,22.179L3.528,23.977ZM14.654,11.74C14.255,10.598 14.143,9.375 14.33,8.18L11.808,7.785C11.556,9.396 11.705,11.044 12.244,12.583L14.654,11.74ZM14.33,8.18C14.517,6.985 14.997,5.854 15.726,4.889L13.689,3.35C12.706,4.651 12.06,6.174 11.808,7.785L14.33,8.18ZM15.726,4.889C16.455,3.924 17.412,3.154 18.51,2.647L17.441,0.328C15.96,1.011 14.671,2.049 13.689,3.35L15.726,4.889ZM18.51,2.647C19.609,2.141 20.816,1.914 22.023,1.986L22.176,-0.563C20.548,-0.66 18.922,-0.354 17.441,0.328L18.51,2.647ZM22.036,1.987C22.03,1.987 22.025,1.985 22.02,1.982L23.517,-0.087C23.122,-0.374 22.651,-0.539 22.163,-0.563L22.036,1.987ZM22.02,1.982C22.016,1.978 22.012,1.974 22.01,1.969L24.393,1.05C24.218,0.594 23.913,0.199 23.517,-0.087L22.02,1.982ZM22.01,1.969C22.008,1.963 22.008,1.958 22.009,1.952L24.507,2.482C24.609,2.004 24.569,1.506 24.393,1.05L22.01,1.969ZM22.009,1.952C22.01,1.947 22.013,1.942 22.017,1.938L23.823,3.744C24.168,3.398 24.406,2.96 24.507,2.482L22.009,1.952ZM22.024,1.931L19.883,4.037L21.673,5.858L23.815,3.751L22.024,1.931ZM19.882,4.038C18.94,4.965 18.405,6.228 18.395,7.549L20.948,7.57C20.954,6.925 21.214,6.309 21.674,5.857L19.882,4.038ZM18.395,7.549C18.384,8.871 18.899,10.143 19.827,11.084L21.646,9.293C21.194,8.834 20.943,8.214 20.948,7.57L18.395,7.549ZM19.827,11.084C20.754,12.026 22.017,12.561 23.338,12.572L23.359,10.018C22.714,10.013 22.098,9.752 21.646,9.293L19.827,11.084ZM23.338,12.572C24.66,12.582 25.931,12.067 26.873,11.14L25.082,9.32C24.623,9.772 24.003,10.023 23.359,10.018L23.338,12.572ZM26.874,11.14L29.012,9.033L27.22,7.214L25.082,9.321L26.874,11.14ZM29.006,9.04C29.002,9.044 28.997,9.046 28.991,9.047L28.496,6.542C28.018,6.637 27.577,6.868 27.227,7.207L29.006,9.04ZM28.991,9.047C28.986,9.048 28.98,9.048 28.975,9.046L29.923,6.675C29.47,6.494 28.974,6.448 28.496,6.542L28.991,9.047ZM28.975,9.046C28.97,9.044 28.965,9.04 28.962,9.036L31.048,7.562C30.766,7.164 30.375,6.856 29.923,6.675L28.975,9.046ZM28.962,9.036C28.959,9.031 28.957,9.026 28.957,9.02L31.508,8.919C31.489,8.431 31.329,7.96 31.048,7.562L28.962,9.036ZM28.957,9.025C29.009,10.232 28.763,11.433 28.239,12.522L30.541,13.629C31.246,12.161 31.579,10.541 31.508,8.914L28.957,9.025ZM28.239,12.522C27.716,13.611 26.932,14.554 25.956,15.268L27.464,17.329C28.778,16.367 29.835,15.096 30.541,13.629L28.239,12.522ZM25.956,15.268C24.981,15.981 23.845,16.443 22.648,16.611L23.005,19.14C24.618,18.912 26.149,18.29 27.464,17.329L25.956,15.268ZM22.648,16.611C21.452,16.78 20.232,16.651 19.098,16.236L18.219,18.634C19.749,19.194 21.393,19.368 23.005,19.14L22.648,16.611ZM17.752,16.535L6.912,27.458L8.725,29.257L19.565,18.334L17.752,16.535Z" fill="#1A1A1A"/>
</svg>
