<svg width="24" height="20" viewBox="0 0 24 20" fill="none" xmlns="http://www.w3.org/2000/svg" xmlns:xlink="http://www.w3.org/1999/xlink">
<path d="M2,8.357C1.172,8.357 0.5,9.029 0.5,9.857C0.5,10.686 1.172,11.357 2,11.357L2,8.357ZM22,9.857L23.061,10.918C23.646,10.332 23.646,9.382 23.061,8.797L22,9.857ZM15.061,0.797C14.475,0.211 13.525,0.211 12.939,0.797C12.354,1.382 12.354,2.332 12.939,2.918L15.061,0.797ZM12.939,16.797C12.354,17.382 12.354,18.332 12.939,18.918C13.525,19.504 14.475,19.504 15.061,18.918L12.939,16.797ZM2,11.357L22,11.357L22,8.357L2,8.357L2,11.357ZM23.061,8.797L15.061,0.797L12.939,2.918L20.939,10.918L23.061,8.797ZM20.939,8.797L12.939,16.797L15.061,18.918L23.061,10.918L20.939,8.797Z" fill="#008BF9"/>
</svg>
