<svg width="40" height="32" viewBox="0 0 40 32" fill="none" xmlns="http://www.w3.org/2000/svg" xmlns:xlink="http://www.w3.org/1999/xlink">
<path d="M27.914,10.346L25.919,10.346C25.919,11.046 26.287,11.696 26.888,12.056C27.489,12.417 28.235,12.436 28.853,12.106L27.914,10.346ZM23.994,1.6L23.994,-0.395L23.994,1.6ZM5.602,1.6L5.602,-0.395L5.602,1.6ZM1.682,5.52L-0.313,5.52L1.682,5.52ZM1.682,25.12L-0.313,25.12L1.682,25.12ZM27.914,20.295L28.853,18.534C28.235,18.205 27.489,18.223 26.888,18.584C26.287,18.944 25.919,19.594 25.919,20.295L27.914,20.295ZM34.08,23.583L33.142,25.344L33.143,25.344L34.08,23.583ZM36.962,21.855L38.957,21.856L38.957,21.855L36.962,21.855ZM36.962,8.785L38.957,8.785L38.957,8.784L36.962,8.785ZM34.08,7.057L33.143,5.296L33.142,5.296L34.08,7.057ZM29.909,10.346L29.909,5.52L25.919,5.52L25.919,10.346L29.909,10.346ZM29.909,5.52C29.909,3.951 29.286,2.447 28.177,1.338L25.355,4.159C25.716,4.52 25.919,5.01 25.919,5.52L29.909,5.52ZM28.177,1.338C27.068,0.228 25.563,-0.395 23.994,-0.395L23.994,3.595C24.505,3.595 24.994,3.798 25.355,4.159L28.177,1.338ZM23.994,-0.395L5.602,-0.395L5.602,3.595L23.994,3.595L23.994,-0.395ZM5.602,-0.395C4.033,-0.395 2.528,0.228 1.419,1.338L4.24,4.159C4.601,3.798 5.091,3.595 5.602,3.595L5.602,-0.395ZM1.419,1.338C0.31,2.447 -0.313,3.951 -0.313,5.52L3.677,5.52C3.677,5.01 3.879,4.52 4.24,4.159L1.419,1.338ZM-0.313,5.52L-0.313,25.12L3.677,25.12L3.677,5.52L-0.313,5.52ZM-0.313,25.12C-0.313,26.689 0.31,28.193 1.419,29.303L4.24,26.481C3.879,26.12 3.677,25.631 3.677,25.12L-0.313,25.12ZM1.419,29.303C2.528,30.412 4.033,31.035 5.602,31.035L5.602,27.045C5.091,27.045 4.601,26.842 4.24,26.481L1.419,29.303ZM5.602,31.035L23.994,31.035L23.994,27.045L5.602,27.045L5.602,31.035ZM23.994,31.035C25.563,31.035 27.068,30.412 28.177,29.303L25.355,26.481C24.994,26.842 24.505,27.045 23.994,27.045L23.994,31.035ZM28.177,29.303C29.286,28.193 29.909,26.689 29.909,25.12L25.919,25.12C25.919,25.631 25.716,26.12 25.355,26.481L28.177,29.303ZM29.909,25.12L29.909,20.295L25.919,20.295L25.919,25.12L29.909,25.12ZM26.975,22.055L33.142,25.344L35.019,21.823L28.853,18.534L26.975,22.055ZM33.143,25.344C33.745,25.665 34.42,25.824 35.103,25.807L35.001,21.818C35.007,21.818 35.013,21.82 35.018,21.822L33.143,25.344ZM35.103,25.807C35.785,25.79 36.451,25.596 37.036,25.245L34.984,21.823C34.989,21.82 34.995,21.819 35.001,21.818L35.103,25.807ZM37.036,25.245C37.622,24.894 38.106,24.397 38.443,23.803L34.971,21.836C34.974,21.831 34.978,21.826 34.984,21.823L37.036,25.245ZM38.443,23.803C38.779,23.209 38.956,22.538 38.957,21.856L34.967,21.853C34.967,21.847 34.968,21.841 34.971,21.836L38.443,23.803ZM38.957,21.855L38.957,8.785L34.967,8.785L34.967,21.855L38.957,21.855ZM38.957,8.784C38.956,8.102 38.779,7.431 38.443,6.837L34.971,8.804C34.968,8.799 34.967,8.793 34.967,8.787L38.957,8.784ZM38.443,6.837C38.106,6.243 37.622,5.747 37.036,5.395L34.984,8.817C34.978,8.814 34.974,8.809 34.971,8.804L38.443,6.837ZM37.036,5.395C36.451,5.044 35.785,4.85 35.103,4.833L35.001,8.822C34.995,8.822 34.989,8.82 34.984,8.817L37.036,5.395ZM35.103,4.833C34.42,4.816 33.745,4.975 33.143,5.296L35.018,8.818C35.013,8.82 35.007,8.822 35.001,8.822L35.103,4.833ZM33.142,5.296L26.975,8.585L28.853,12.106L35.019,8.817L33.142,5.296Z" fill="#767676"/>
</svg>
