<svg width="24" height="20" viewBox="0 0 24 20" fill="none" xmlns="http://www.w3.org/2000/svg" xmlns:xlink="http://www.w3.org/1999/xlink">
<path d="M2,8.5C1.172,8.5 0.5,9.172 0.5,10C0.5,10.828 1.172,11.5 2,11.5L2,8.5ZM22,10L23.061,11.061C23.646,10.475 23.646,9.525 23.061,8.939L22,10ZM15.061,0.939C14.475,0.354 13.525,0.354 12.939,0.939C12.354,1.525 12.354,2.475 12.939,3.061L15.061,0.939ZM12.939,16.939C12.354,17.525 12.354,18.475 12.939,19.061C13.525,19.646 14.475,19.646 15.061,19.061L12.939,16.939ZM2,11.5L22,11.5L22,8.5L2,8.5L2,11.5ZM23.061,8.939L15.061,0.939L12.939,3.061L20.939,11.061L23.061,8.939ZM20.939,8.939L12.939,16.939L15.061,19.061L23.061,11.061L20.939,8.939Z" fill="#008BF9"/>
</svg>
