<svg width="40" height="32" viewBox="0 0 40 32" fill="none" xmlns="http://www.w3.org/2000/svg" xmlns:xlink="http://www.w3.org/1999/xlink">
<path d="M27.913,10.346L25.918,10.346C25.918,11.046 26.286,11.696 26.887,12.056C27.488,12.417 28.234,12.436 28.852,12.106L27.913,10.346ZM23.993,1.6L23.993,-0.395L23.993,1.6ZM5.601,1.6L5.601,-0.395L5.601,1.6ZM1.681,5.52L-0.314,5.52L1.681,5.52ZM1.681,25.12L-0.314,25.12L1.681,25.12ZM27.913,20.295L28.852,18.534C28.234,18.205 27.488,18.223 26.887,18.584C26.286,18.944 25.918,19.594 25.918,20.295L27.913,20.295ZM34.08,23.583L33.141,25.344L33.142,25.344L34.08,23.583ZM36.961,21.855L38.956,21.856L38.956,21.855L36.961,21.855ZM36.961,8.785L38.956,8.785L38.956,8.784L36.961,8.785ZM34.08,7.057L33.142,5.296L33.141,5.296L34.08,7.057ZM29.908,10.346L29.908,5.52L25.918,5.52L25.918,10.346L29.908,10.346ZM29.908,5.52C29.908,3.951 29.285,2.447 28.176,1.338L25.355,4.159C25.716,4.52 25.918,5.01 25.918,5.52L29.908,5.52ZM28.176,1.338C27.067,0.228 25.562,-0.395 23.993,-0.395L23.993,3.595C24.504,3.595 24.994,3.798 25.355,4.159L28.176,1.338ZM23.993,-0.395L5.601,-0.395L5.601,3.595L23.993,3.595L23.993,-0.395ZM5.601,-0.395C4.032,-0.395 2.528,0.228 1.418,1.338L4.24,4.159C4.601,3.798 5.09,3.595 5.601,3.595L5.601,-0.395ZM1.418,1.338C0.309,2.447 -0.314,3.951 -0.314,5.52L3.676,5.52C3.676,5.01 3.879,4.52 4.24,4.159L1.418,1.338ZM-0.314,5.52L-0.314,25.12L3.676,25.12L3.676,5.52L-0.314,5.52ZM-0.314,25.12C-0.314,26.689 0.309,28.193 1.418,29.303L4.24,26.481C3.879,26.12 3.676,25.631 3.676,25.12L-0.314,25.12ZM1.418,29.303C2.528,30.412 4.032,31.035 5.601,31.035L5.601,27.045C5.09,27.045 4.601,26.842 4.24,26.481L1.418,29.303ZM5.601,31.035L23.993,31.035L23.993,27.045L5.601,27.045L5.601,31.035ZM23.993,31.035C25.562,31.035 27.067,30.412 28.176,29.303L25.355,26.481C24.994,26.842 24.504,27.045 23.993,27.045L23.993,31.035ZM28.176,29.303C29.285,28.193 29.908,26.689 29.908,25.12L25.918,25.12C25.918,25.631 25.716,26.12 25.355,26.481L28.176,29.303ZM29.908,25.12L29.908,20.295L25.918,20.295L25.918,25.12L29.908,25.12ZM26.975,22.055L33.141,25.344L35.018,21.823L28.852,18.534L26.975,22.055ZM33.142,25.344C33.744,25.665 34.42,25.824 35.102,25.807L35,21.818C35.006,21.818 35.012,21.82 35.017,21.822L33.142,25.344ZM35.102,25.807C35.784,25.79 36.45,25.596 37.036,25.245L34.983,21.823C34.988,21.82 34.994,21.819 35,21.818L35.102,25.807ZM37.036,25.245C37.621,24.894 38.105,24.397 38.442,23.803L34.97,21.836C34.973,21.831 34.978,21.826 34.983,21.823L37.036,25.245ZM38.442,23.803C38.778,23.209 38.955,22.538 38.956,21.856L34.966,21.853C34.966,21.847 34.967,21.841 34.97,21.836L38.442,23.803ZM38.956,21.855L38.956,8.785L34.966,8.785L34.966,21.855L38.956,21.855ZM38.956,8.784C38.955,8.102 38.778,7.431 38.442,6.837L34.97,8.804C34.967,8.799 34.966,8.793 34.966,8.787L38.956,8.784ZM38.442,6.837C38.105,6.243 37.621,5.747 37.036,5.395L34.983,8.817C34.978,8.814 34.973,8.809 34.97,8.804L38.442,6.837ZM37.036,5.395C36.45,5.044 35.784,4.85 35.102,4.833L35,8.822C34.994,8.822 34.988,8.82 34.983,8.817L37.036,5.395ZM35.102,4.833C34.42,4.816 33.744,4.975 33.142,5.296L35.017,8.818C35.012,8.82 35.006,8.822 35,8.822L35.102,4.833ZM33.141,5.296L26.975,8.585L28.852,12.106L35.018,8.817L33.141,5.296Z" fill="#767676"/>
</svg>
