<svg width="24" height="20" viewBox="0 0 24 20" fill="none" xmlns="http://www.w3.org/2000/svg" xmlns:xlink="http://www.w3.org/1999/xlink">
<path d="M2,7.382C1.172,7.382 0.5,8.054 0.5,8.882C0.5,9.711 1.172,10.382 2,10.382L2,7.382ZM22,8.882L23.061,9.943C23.646,9.357 23.646,8.407 23.061,7.822L22,8.882ZM15.061,-0.178C14.475,-0.764 13.525,-0.764 12.939,-0.178C12.354,0.407 12.354,1.357 12.939,1.943L15.061,-0.178ZM12.939,15.822C12.354,16.407 12.354,17.357 12.939,17.943C13.525,18.529 14.475,18.529 15.061,17.943L12.939,15.822ZM2,10.382L22,10.382L22,7.382L2,7.382L2,10.382ZM23.061,7.822L15.061,-0.178L12.939,1.943L20.939,9.943L23.061,7.822ZM20.939,7.822L12.939,15.822L15.061,17.943L23.061,9.943L20.939,7.822Z" fill="#008BF9"/>
</svg>
