<svg width="24" height="20" viewBox="0 0 24 20" fill="none" xmlns="http://www.w3.org/2000/svg" xmlns:xlink="http://www.w3.org/1999/xlink">
<path d="M1,7.5C0.172,7.5 -0.5,8.172 -0.5,9C-0.5,9.828 0.172,10.5 1,10.5L1,7.5ZM21,9L22.061,10.061C22.646,9.475 22.646,8.525 22.061,7.939L21,9ZM14.061,-0.061C13.475,-0.646 12.525,-0.646 11.939,-0.061C11.354,0.525 11.354,1.475 11.939,2.061L14.061,-0.061ZM11.939,15.939C11.354,16.525 11.354,17.475 11.939,18.061C12.525,18.646 13.475,18.646 14.061,18.061L11.939,15.939ZM1,10.5L21,10.5L21,7.5L1,7.5L1,10.5ZM22.061,7.939L14.061,-0.061L11.939,2.061L19.939,10.061L22.061,7.939ZM19.939,7.939L11.939,15.939L14.061,18.061L22.061,10.061L19.939,7.939Z" fill="#008BF9"/>
</svg>
