<svg width="38" height="38" viewBox="0 0 38 38" fill="none" xmlns="http://www.w3.org/2000/svg" xmlns:xlink="http://www.w3.org/1999/xlink">
<path d="M36.667,17.191L36.667,18.525C36.667,19.261 36.07,19.858 35.334,19.858L20.001,19.858L20.001,35.191C20.001,35.928 19.404,36.525 18.667,36.525L17.334,36.525C16.598,36.525 16.001,35.928 16.001,35.191L16.001,19.858L0.667,19.858C-0.069,19.858 -0.666,19.261 -0.666,18.525L-0.666,17.191C-0.666,16.455 -0.069,15.858 0.667,15.858L16.001,15.858L16.001,0.525C16.001,-0.212 16.598,-0.809 17.334,-0.809L18.667,-0.809C19.404,-0.809 20.001,-0.212 20.001,0.525L20.001,15.858L35.334,15.858C36.07,15.858 36.667,16.455 36.667,17.191Z" fill="#000000"/>
</svg>
