<svg width="24" height="20" viewBox="0 0 24 20" fill="none" xmlns="http://www.w3.org/2000/svg" xmlns:xlink="http://www.w3.org/1999/xlink">
<path d="M1,8.357C0.172,8.357 -0.5,9.029 -0.5,9.857C-0.5,10.686 0.172,11.357 1,11.357L1,8.357ZM21,9.857L22.061,10.918C22.646,10.332 22.646,9.382 22.061,8.797L21,9.857ZM14.061,0.797C13.475,0.211 12.525,0.211 11.939,0.797C11.354,1.382 11.354,2.332 11.939,2.918L14.061,0.797ZM11.939,16.797C11.354,17.382 11.354,18.332 11.939,18.918C12.525,19.504 13.475,19.504 14.061,18.918L11.939,16.797ZM1,11.357L21,11.357L21,8.357L1,8.357L1,11.357ZM22.061,8.797L14.061,0.797L11.939,2.918L19.939,10.918L22.061,8.797ZM19.939,8.797L11.939,16.797L14.061,18.918L22.061,10.918L19.939,8.797Z" fill="#008BF9"/>
</svg>
