<svg width="38" height="36" viewBox="0 0 38 36" fill="none" xmlns="http://www.w3.org/2000/svg" xmlns:xlink="http://www.w3.org/1999/xlink">
<path d="M28,35.883C24.693,35.88 21.437,35.063 18.52,33.503L17.62,33.003C11.401,29.66 6.303,24.562 2.96,18.343L2.46,17.443C0.86,14.51 0.014,11.225 0,7.883L0,6.543C-0.001,5.477 0.424,4.455 1.18,3.703L4.56,0.323C4.888,-0.007 5.352,-0.167 5.814,-0.108C6.276,-0.049 6.685,0.221 6.92,0.623L11.42,8.343C11.875,9.129 11.744,10.123 11.1,10.763L7.32,14.543C7.006,14.854 6.933,15.333 7.14,15.723L7.84,17.043C10.354,21.7 14.179,25.518 18.84,28.023L20.16,28.743C20.55,28.95 21.03,28.877 21.34,28.563L25.12,24.783C25.76,24.14 26.754,24.008 27.54,24.463L35.26,28.963C35.662,29.198 35.933,29.607 35.991,30.069C36.05,30.532 35.891,30.995 35.56,31.323L32.18,34.703C31.428,35.459 30.406,35.884 29.34,35.883L28,35.883Z" fill="#000000"/>
</svg>
