<svg width="28" height="20" viewBox="0 0 28 20" fill="none" xmlns="http://www.w3.org/2000/svg" xmlns:xlink="http://www.w3.org/1999/xlink">
<path d="M26.414,2.414C27.195,1.633 27.195,0.367 26.414,-0.414C25.633,-1.195 24.367,-1.195 23.586,-0.414L26.414,2.414ZM8.5,17.5L7.086,18.914C7.867,19.695 9.133,19.695 9.914,18.914L8.5,17.5ZM2.414,8.586C1.633,7.805 0.367,7.805 -0.414,8.586C-1.195,9.367 -1.195,10.633 -0.414,11.414L2.414,8.586ZM23.586,-0.414L7.086,16.086L9.914,18.914L26.414,2.414L23.586,-0.414ZM9.914,16.086L2.414,8.586L-0.414,11.414L7.086,18.914L9.914,16.086Z" fill="#FFFFFF"/>
</svg>
